<?xml version="1.0" encoding="utf-8"?>
<!-- Generator: Adobe Illustrator 24.2.1, SVG Export Plug-In . SVG Version: 6.00 Build 0)  -->
<svg version="1.1" id="Layer_1" xmlns="http://www.w3.org/2000/svg" xmlns:xlink="http://www.w3.org/1999/xlink" x="0px" y="0px"
	 viewBox="0 0 100 120" style="enable-background:new 0 0 100 120;" xml:space="preserve">
<style type="text/css">
	.st0{fill:#383838;}
</style>
<g>
	<g>
		<g>
			<g>
				<g>
					<path class="st0" d="M81.2,45.3c-1.8-0.2-3.1-2-2.9-3.8c0.3-1.8,1.6-3,3.5-3c0.5,0,0.9-0.3,1-0.7c0.1-0.5-0.2-0.9-0.7-1
						c-0.7-0.2-1.5-0.4-2.3-0.5c-4.6-0.5-8.8,2.1-10.7,6.3c-1,2.4-4.2,3.9-6.5,2.3c-1.1-0.8-1.7-2.3-1.4-3.6
						c0.3-1.3,1.4-2.4,2.8-2.6c0.5-0.1,1.1,0,1.5-0.4c0.3-0.3,0.3-0.8,0-1.1c-0.2-0.2-0.4-0.2-0.6-0.3C62.6,36,60.2,36,58,36.8
						c-2.2,0.8-4.1,2.3-5.2,4.3c-0.6,1-1.1,2.2-1.9,3c-1,1-3.1,1.8-4.4,1c-1.2-0.7-2-2.3-1.8-3.7c0.3-1.8,1.6-3,3.5-3
						c0.5,0,0.9-0.3,1-0.7c0.1-0.5-0.2-0.9-0.7-1c-0.7-0.2-1.5-0.4-2.3-0.5c-4.6-0.5-8.8,2.1-10.7,6.3c-1,2.4-4.2,3.9-6.5,2.3
						c-1.1-0.8-1.7-2.3-1.4-3.6c0.3-1.3,1.4-2.4,2.8-2.6c0.5-0.1,1.1,0,1.5-0.4c0.3-0.3,0.3-0.8,0-1.1c-0.2-0.2-0.4-0.2-0.6-0.3
						C29,36,26.5,36,24.4,36.8c-2.2,0.8-4.1,2.3-5.2,4.3c-0.6,1-1.1,2.2-1.9,3c-0.7,0.7-1.6,1.1-2.5,1.2c-0.4,0-0.7,0.1-1.1,0.2
						c-0.3,0.1-0.7,0.4-0.7,0.8c-0.1,0.4,0.3,0.8,0.8,1c0.4,0.1,0.9,0,1.3-0.1c1.2-0.3,2.5-0.7,3.4-1.6c1.1-1,1.6-2.5,2.4-3.7
						c1.4-2.3,4-3.8,6.6-3.9c-0.2,0-0.7,0.8-0.8,1c-0.3,0.4-0.5,0.8-0.6,1.3c-0.3,0.9-0.3,1.9-0.1,2.8c0.4,1.9,1.9,3.4,3.7,4
						c2.2,0.7,4.8-0.3,6.3-1.9c0.5-0.6,1-1.3,1.3-2c0.9-1.9,2.3-3.4,4.2-4.3c1-0.5,2-0.8,3.2-0.8c-1.1,1.1-1.7,2.4-1.7,3.9
						c0,1.5,0.6,2.8,1.7,3.8c0.8,0.7,1.7,1.4,2.7,1.6c1.5,0.3,3.7-0.7,4.8-1.7c1.1-1,1.6-2.5,2.4-3.7c1.4-2.3,4-3.8,6.6-3.9
						c-0.2,0-0.7,0.8-0.8,1c-0.3,0.4-0.5,0.8-0.6,1.3c-0.3,0.9-0.3,1.9-0.1,2.8c0.4,1.9,1.9,3.4,3.7,4c2.2,0.7,4.8-0.3,6.3-1.9
						c0.5-0.6,1-1.3,1.3-2c0.9-1.9,2.3-3.4,4.2-4.3c1-0.5,2-0.8,3.2-0.8c-1.1,1.1-1.7,2.4-1.7,3.9c0,1.5,0.6,2.8,1.7,3.8
						c1,0.9,2.1,1.3,3.4,1.3c0.5,0,3.1-0.3,4.5-1.8c1.8-2,0.8-3.2-1.1-1.5C84.3,44.7,82.4,45.4,81.2,45.3z"/>
				</g>
			</g>
		</g>
		<g>
			<g>
				<g>
					<polygon class="st0" points="54.1,72.1 54.1,59.1 45.7,59.1 45.7,72.1 41.2,72.1 49.9,87.1 58.6,72.1 					"/>
				</g>
			</g>
		</g>
	</g>
	<g>
		<path class="st0" d="M50,105c-0.2,0-0.4,0-0.5,0c-12-0.1-23.3-4.9-31.7-13.5c-8.4-8.6-13-19.9-12.8-32l1.3,0l-1.3,0
			c0.1-12,4.9-23.3,13.5-31.7c8.6-8.4,19.9-13,32-12.8c12,0.1,23.3,4.9,31.7,13.5c8.4,8.6,13,19.9,12.8,32
			c-0.1,12-4.9,23.3-13.5,31.7C73,100.5,61.8,105,50,105z M50,17.6c-11.1,0-21.6,4.3-29.6,12.1C12.3,37.6,7.7,48.2,7.6,59.5
			c-0.1,11.3,4.2,22,12.1,30.1c7.9,8.1,18.5,12.6,29.8,12.8c0.2,0,0.3,0,0.5,0c11.1,0,21.6-4.3,29.6-12.1
			c8.1-7.9,12.6-18.5,12.8-29.8c0.1-11.3-4.2-22-12.1-30.1c-7.9-8.1-18.5-12.6-29.8-12.8C50.3,17.6,50.2,17.6,50,17.6z"/>
	</g>
</g>
</svg>
