<?xml version="1.0" encoding="utf-8"?>
<!-- Generator: Adobe Illustrator 24.2.1, SVG Export Plug-In . SVG Version: 6.00 Build 0)  -->
<svg version="1.1" id="Layer_1" xmlns="http://www.w3.org/2000/svg" xmlns:xlink="http://www.w3.org/1999/xlink" x="0px" y="0px"
	 viewBox="0 0 100 120" style="enable-background:new 0 0 100 120;" xml:space="preserve">
<style type="text/css">
	.st0{fill:#383838;}
</style>
<g>
	<g>
		<g>
			<g>
				<polygon class="st0" points="32.9,62.8 50.8,63.7 36.5,75.1 28.5,67 				"/>
			</g>
		</g>
		<g>
			<g>
				<g>
					<path class="st0" d="M36.3,77.3L26.1,66.9l10.2-10c3.2-8.2,11.6-30.3,11.7-30.5l0-0.1c1-1.9,2.7-3.2,4.8-3.6
						c2-0.4,4,0.2,5.5,1.5c0.1,0.1,0.2,0.2,0.3,0.3l20.7,21.2c0.1,0.1,0.2,0.2,0.3,0.3c1.3,1.5,1.8,3.5,1.4,5.5
						c-0.4,2.1-1.8,3.8-3.7,4.7l-0.1,0c-0.2,0.1-22.5,8-30.8,11L36.3,77.3z M28.8,66.9l7.5,7.6l9.1-8.9l0.2-0.1
						c7.9-2.9,29.7-10.6,30.9-11.1c1.3-0.7,2.3-1.9,2.6-3.3c0.3-1.4-0.1-2.8-1-3.9c-0.1-0.1-0.1-0.2-0.2-0.2L57.3,25.9
						c-0.1-0.1-0.2-0.2-0.2-0.2c-1-0.9-2.4-1.3-3.8-1c-1.5,0.3-2.7,1.2-3.4,2.5C49.3,28.4,41.1,50,38,57.8L38,58L28.8,66.9z"/>
				</g>
			</g>
			<g>
				<g>
					<path class="st0" d="M27.1,64.5l11.5,11.8c0.6,0.6,0.6,1.5,0,2.1h0c-0.6,0.6-1.5,0.6-2.1,0L25.1,66.6c-0.6-0.6-0.6-1.5,0-2.1
						l0,0C25.7,63.9,26.6,63.9,27.1,64.5z"/>
				</g>
			</g>
		</g>
		<g>
			<g>
				<g>
					<path class="st0" d="M33.2,77.6c0,0-12.2,15.8-0.2,15.9C45.1,93.6,33.2,77.6,33.2,77.6z"/>
				</g>
			</g>
		</g>
		<g>
			<g>
				<path class="st0" d="M54.3,37.9c-0.2,0-0.4-0.1-0.6-0.2l-7-5.9c-0.4-0.3-0.5-1-0.1-1.4c0.3-0.4,1-0.5,1.4-0.1l7,5.9
					c0.4,0.3,0.5,1,0.1,1.4C54.9,37.8,54.6,37.9,54.3,37.9z"/>
			</g>
		</g>
		<g>
			<g>
				<path class="st0" d="M50.4,46.2c-0.2,0-0.4-0.1-0.6-0.2l-6.5-5.6c-0.4-0.4-0.4-1-0.1-1.4c0.4-0.4,1-0.4,1.4-0.1l6.5,5.6
					c0.4,0.4,0.4,1,0.1,1.4C50.9,46.1,50.6,46.2,50.4,46.2z"/>
			</g>
		</g>
		<g>
			<g>
				<path class="st0" d="M46.4,53.9c-0.2,0-0.4-0.1-0.6-0.2l-5.2-4.5c-0.4-0.4-0.4-1-0.1-1.4c0.3-0.4,1-0.4,1.4-0.1l5.2,4.5
					c0.4,0.4,0.4,1,0.1,1.4C47,53.8,46.7,53.9,46.4,53.9z"/>
			</g>
		</g>
	</g>
	<g>
		<path class="st0" d="M50,105c-0.2,0-0.4,0-0.5,0c-12-0.1-23.3-4.9-31.7-13.5c-8.4-8.6-13-19.9-12.8-32l1.3,0l-1.3,0
			c0.1-12,4.9-23.3,13.5-31.7C27,19.5,38.2,15,50,15c0.2,0,0.4,0,0.5,0c12,0.1,23.3,4.9,31.7,13.5c8.4,8.6,13,19.9,12.8,32
			c-0.1,12-4.9,23.3-13.5,31.7C73,100.5,61.8,105,50,105z M50,17.6c-11.1,0-21.6,4.3-29.6,12.1C12.3,37.6,7.7,48.2,7.6,59.5
			c-0.1,11.3,4.2,22,12.1,30.1c7.9,8.1,18.5,12.6,29.8,12.8c11.3,0.1,22-4.2,30.1-12.1c8.1-7.9,12.6-18.5,12.8-29.8
			c0.1-11.3-4.2-22-12.1-30.1c-7.9-8.1-18.5-12.6-29.8-12.8C50.3,17.6,50.2,17.6,50,17.6z"/>
	</g>
</g>
</svg>
