<?xml version="1.0" encoding="utf-8"?>
<!-- Generator: Adobe Illustrator 24.2.1, SVG Export Plug-In . SVG Version: 6.00 Build 0)  -->
<svg version="1.1" id="Layer_1" xmlns="http://www.w3.org/2000/svg" xmlns:xlink="http://www.w3.org/1999/xlink" x="0px" y="0px"
	 viewBox="0 0 100 130" style="enable-background:new 0 0 100 130;" xml:space="preserve">
<style type="text/css">
	.st0{fill:#383838;}
	.st1{clip-path:url(#SVGID_2_);fill:#FFFFFF;}
	.st2{clip-path:url(#SVGID_4_);fill:#FFFFFF;}
	.st3{clip-path:url(#SVGID_6_);fill:#FFFFFF;}
	.st4{clip-path:url(#SVGID_8_);fill:#FFFFFF;}
	.st5{clip-path:url(#SVGID_10_);fill:#FFFFFF;}
	.st6{clip-path:url(#SVGID_12_);fill:#FFFFFF;}
	.st7{clip-path:url(#SVGID_14_);fill:#FFFFFF;}
	.st8{clip-path:url(#SVGID_16_);fill:#FFFFFF;}
	.st9{clip-path:url(#SVGID_18_);fill:#FFFFFF;}
	.st10{fill:#FFFFFF;}
</style>
<text transform="matrix(1 0 0 1 -364.9385 -324.8591)" class="st0" style="font-family:'ArialMT'; font-size:28.0505px;">Waterproof</text>
<text transform="matrix(1 0 0 1 -176.6824 -324.8591)" class="st0" style="font-family:'ArialMT'; font-size:28.0505px;">Snowproof</text>
<text transform="matrix(1 0 0 1 199.4946 -324.8591)" class="st0" style="font-family:'ArialMT'; font-size:28.0505px;">Dust Proof</text>
<text transform="matrix(1 0 0 1 1.8696 -324.8591)" class="st0" style="font-family:'ArialMT'; font-size:28.0505px;">Submersible</text>
<g>
	<g>
		<path class="st0" d="M-316.88-440.24c0,0-48.25,64.9,0,64.9S-316.88-440.24-316.88-440.24z"/>
	</g>
	<g>
		<g>
			<g>
				<defs>
					<path id="SVGID_1_" d="M-332.42-393.95c0,0-1.86,11.79,9.93,13.65C-322.49-380.3-329.93-387.13-332.42-393.95z"/>
				</defs>
				<clipPath id="SVGID_2_">
					<use xlink:href="#SVGID_1_"  style="overflow:visible;"/>
				</clipPath>
				<rect x="-334.28" y="-393.95" class="st1" width="1.75" height="13.65"/>
			</g>
			<g>
				<defs>
					<path id="SVGID_3_" d="M-332.42-393.95c0,0-1.86,11.79,9.93,13.65C-322.49-380.3-329.93-387.13-332.42-393.95z"/>
				</defs>
				<clipPath id="SVGID_4_">
					<use xlink:href="#SVGID_3_"  style="overflow:visible;"/>
				</clipPath>
				<rect x="-332.52" y="-393.95" class="st2" width="10.03" height="13.65"/>
			</g>
			<g>
				<defs>
					<path id="SVGID_5_" d="M-332.42-393.95c0,0-1.86,11.79,9.93,13.65C-322.49-380.3-329.93-387.13-332.42-393.95z"/>
				</defs>
				<clipPath id="SVGID_6_">
					<use xlink:href="#SVGID_5_"  style="overflow:visible;"/>
				</clipPath>
				<path class="st3" d="M-322.49-380.3v-13.65V-380.3z"/>
			</g>
		</g>
	</g>
	<g>
		<path class="st0" d="M-273.04-440.24c0,0-33.95,45.67,0,45.67S-273.04-440.24-273.04-440.24z"/>
	</g>
	<g>
		<g>
			<g>
				<defs>
					<path id="SVGID_7_" d="M-284.26-409.88c0,0-1.22,7.73,6.51,8.95C-277.75-400.93-282.63-405.41-284.26-409.88z"/>
				</defs>
				<clipPath id="SVGID_8_">
					<use xlink:href="#SVGID_7_"  style="overflow:visible;"/>
				</clipPath>
				<rect x="-285.48" y="-409.88" class="st4" width="1.15" height="8.95"/>
			</g>
			<g>
				<defs>
					<path id="SVGID_9_" d="M-284.26-409.88c0,0-1.22,7.73,6.51,8.95C-277.75-400.93-282.63-405.41-284.26-409.88z"/>
				</defs>
				<clipPath id="SVGID_10_">
					<use xlink:href="#SVGID_9_"  style="overflow:visible;"/>
				</clipPath>
				<rect x="-284.33" y="-409.88" class="st5" width="6.58" height="8.95"/>
			</g>
			<g>
				<defs>
					<path id="SVGID_11_" d="M-284.26-409.88c0,0-1.22,7.73,6.51,8.95C-277.75-400.93-282.63-405.41-284.26-409.88z"/>
				</defs>
				<clipPath id="SVGID_12_">
					<use xlink:href="#SVGID_11_"  style="overflow:visible;"/>
				</clipPath>
				<path class="st6" d="M-277.75-400.93v-8.95V-400.93z"/>
			</g>
		</g>
	</g>
	<g>
		<path class="st0" d="M-295.16-475.61c0,0-27.03,36.36,0,36.36S-295.16-475.61-295.16-475.61z"/>
	</g>
	<g>
		<g>
			<g>
				<defs>
					<path id="SVGID_13_" d="M-303.87-449.67c0,0-1.04,6.6,5.56,7.65C-298.31-442.03-302.48-445.85-303.87-449.67z"/>
				</defs>
				<clipPath id="SVGID_14_">
					<use xlink:href="#SVGID_13_"  style="overflow:visible;"/>
				</clipPath>
				<rect x="-304.91" y="-449.67" class="st7" width="0.98" height="7.65"/>
			</g>
			<g>
				<defs>
					<path id="SVGID_15_" d="M-303.87-449.67c0,0-1.04,6.6,5.56,7.65C-298.31-442.03-302.48-445.85-303.87-449.67z"/>
				</defs>
				<clipPath id="SVGID_16_">
					<use xlink:href="#SVGID_15_"  style="overflow:visible;"/>
				</clipPath>
				<rect x="-303.93" y="-449.67" class="st8" width="5.62" height="7.65"/>
			</g>
			<g>
				<defs>
					<path id="SVGID_17_" d="M-303.87-449.67c0,0-1.04,6.6,5.56,7.65C-298.31-442.03-302.48-445.85-303.87-449.67z"/>
				</defs>
				<clipPath id="SVGID_18_">
					<use xlink:href="#SVGID_17_"  style="overflow:visible;"/>
				</clipPath>
				<path class="st9" d="M-298.31-442.03v-7.65V-442.03z"/>
			</g>
		</g>
	</g>
</g>
<g>
	<path class="st0" d="M-298.14-358.18c-34.18,0-61.99-27.81-61.99-61.99s27.81-61.99,61.99-61.99s61.99,27.81,61.99,61.99
		S-263.95-358.18-298.14-358.18z M-298.14-477.61c-31.67,0-57.44,25.77-57.44,57.44s25.77,57.44,57.44,57.44
		s57.44-25.77,57.44-57.44S-266.46-477.61-298.14-477.61z"/>
</g>
<g>
	<path class="st0" d="M-111.59-358.18c-34.18,0-61.99-27.81-61.99-61.99s27.81-61.99,61.99-61.99s61.99,27.81,61.99,61.99
		S-77.41-358.18-111.59-358.18z M-111.59-477.61c-31.67,0-57.44,25.77-57.44,57.44s25.77,57.44,57.44,57.44s57.44-25.77,57.44-57.44
		S-79.92-477.61-111.59-477.61z"/>
</g>
<g id="KNwPzr.tif_8_">
	<g>
		<g>
			<path class="st0" d="M-122.02-396.21c0.17,0.06,0.26,0.08,0.33,0.12c3.04,1.75,6.08,3.5,9.11,5.27c0.21,0.12,0.38,0.37,0.49,0.6
				c1.46,3.04,2.9,6.09,4.35,9.13c0.17,0.36,0.37,0.73,0.65,1c0.62,0.62,1.64,0.67,2.35,0.18c0.78-0.53,1.08-1.48,0.68-2.37
				c-0.63-1.4-1.32-2.79-1.98-4.18c-0.1-0.21-0.18-0.43-0.32-0.76c0.29,0.16,0.44,0.24,0.6,0.33c2.3,1.33,4.6,2.67,6.92,3.97
				c0.44,0.25,1.01,0.44,1.5,0.4c0.91-0.08,1.49-0.72,1.63-1.54s-0.2-1.56-0.99-2.03c-1.99-1.16-3.98-2.31-5.98-3.46
				c-0.55-0.32-1.1-0.64-1.82-1.06c1.91-0.15,3.59-0.29,5.29-0.41c1.18-0.08,1.98-0.92,1.92-2.05c-0.05-1.12-0.95-1.88-2.16-1.79
				c-3.45,0.27-6.91,0.57-10.36,0.83c-0.35,0.03-0.76-0.09-1.07-0.26c-1.93-1.08-3.84-2.2-5.76-3.3c-1.13-0.65-2.25-1.31-3.43-1.99
				c0.15-0.11,0.21-0.17,0.28-0.21c2.67-1.54,5.36-3.06,8-4.64c0.92-0.55,1.81-0.79,2.89-0.69c3.12,0.3,6.24,0.54,9.36,0.75
				c0.49,0.03,1.07-0.13,1.5-0.39c0.67-0.4,0.89-1.27,0.68-2.02c-0.24-0.84-0.95-1.36-1.99-1.43c-0.8-0.06-1.61-0.09-2.41-0.15
				c-0.84-0.06-1.68-0.14-2.72-0.24c0.39-0.24,0.61-0.39,0.84-0.52c2.26-1.31,4.53-2.61,6.79-3.92c1.1-0.64,1.46-1.75,0.89-2.72
				s-1.72-1.22-2.81-0.6c-1.96,1.13-3.91,2.25-5.86,3.38c-0.54,0.31-1.09,0.62-1.8,1.02c0.83-1.76,1.59-3.32,2.3-4.9
				c0.48-1.08,0.08-2.15-0.91-2.6c-1.03-0.47-2.06-0.04-2.59,1.07c-1.48,3.1-2.96,6.21-4.46,9.31c-0.16,0.33-0.47,0.65-0.79,0.84
				c-2.21,1.31-4.44,2.59-6.67,3.87c-0.8,0.46-1.61,0.92-2.48,1.41c-0.01-0.24-0.03-0.37-0.03-0.5c0-3.34-0.02-6.67,0.02-10.01
				c0-0.43,0.16-0.92,0.41-1.28c1.88-2.77,3.8-5.52,5.7-8.28c0.75-1.09,0.6-2.27-0.33-2.91c-0.94-0.64-2.07-0.37-2.83,0.71
				c-0.81,1.15-1.6,2.32-2.4,3.48c-0.14,0.2-0.29,0.4-0.44,0.6c-0.04-0.02-0.08-0.04-0.13-0.07c0-0.22,0-0.44,0-0.65
				c0-2.66,0.01-5.33,0-7.99c0-1.24-0.77-2.04-1.91-2.04c-1.19,0-1.93,0.77-1.94,2.08c-0.02,2.66,0,5.33-0.01,7.99
				c0,0.23-0.02,0.45-0.04,0.84c-1.06-1.53-2.01-2.91-2.96-4.3c-0.34-0.5-0.77-0.87-1.39-0.95c-0.8-0.1-1.47,0.16-1.91,0.85
				c-0.49,0.77-0.39,1.53,0.11,2.26c1.94,2.82,3.9,5.62,5.82,8.45c0.21,0.31,0.35,0.73,0.36,1.1c0.03,3.31,0.02,6.63,0.01,9.94
				c0,0.19-0.02,0.39-0.04,0.66c-0.25-0.13-0.45-0.22-0.64-0.33c-2.85-1.64-5.7-3.27-8.53-4.94c-0.32-0.19-0.62-0.52-0.78-0.85
				c-1.52-3.13-3-6.29-4.51-9.42c-0.49-1.02-1.56-1.37-2.54-0.91c-0.94,0.44-1.33,1.48-0.93,2.49c0.12,0.31,0.28,0.61,0.42,0.91
				c0.61,1.3,1.23,2.61,1.91,4.05c-0.26-0.14-0.37-0.19-0.48-0.25c-2.38-1.37-4.76-2.75-7.15-4.11c-1.14-0.65-2.29-0.39-2.85,0.62
				c-0.54,0.98-0.17,2.07,0.94,2.71c1.53,0.89,3.06,1.77,4.59,2.65c0.95,0.55,1.9,1.1,2.85,1.66c-0.28,0.16-0.52,0.18-0.76,0.2
				c-1.49,0.11-2.99,0.17-4.48,0.35c-1.19,0.14-1.94,1.11-1.79,2.11c0.17,1.14,1.03,1.79,2.26,1.7c0.82-0.06,1.65-0.15,2.47-0.21
				c2.61-0.2,5.22-0.4,7.83-0.57c0.35-0.02,0.75,0.06,1.06,0.23c2.41,1.36,4.81,2.75,7.21,4.13c0.65,0.37,1.29,0.76,1.99,1.18
				c-3.21,1.86-6.32,3.66-9.44,5.45c-0.21,0.12-0.52,0.15-0.77,0.13c-3.43-0.27-6.86-0.55-10.3-0.83c-1.28-0.1-2.22,0.61-2.32,1.78
				c-0.1,1.11,0.8,1.97,2.08,2.06c1.64,0.11,3.28,0.26,5.1,0.41c-0.35,0.22-0.54,0.36-0.74,0.48c-2.28,1.32-4.57,2.63-6.85,3.95
				c-1.12,0.65-1.49,1.76-0.92,2.71c0.61,1.03,1.7,1.27,2.83,0.62c1.45-0.84,2.9-1.68,4.35-2.52c1.03-0.6,2.07-1.19,3.26-1.87
				c-0.16,0.37-0.23,0.57-0.33,0.77c-0.63,1.33-1.28,2.66-1.9,4c-0.53,1.14-0.17,2.25,0.87,2.72c1.01,0.46,2.06,0.04,2.6-1.08
				c1.48-3.1,2.95-6.21,4.44-9.31c0.14-0.3,0.4-0.6,0.68-0.77c2.91-1.71,5.84-3.38,8.76-5.07c0.14-0.08,0.3-0.13,0.52-0.22
				c0,2.53,0,4.97,0,7.41c0,1.25,0.25,2.59-0.11,3.73s-1.32,2.1-2.03,3.13c-1.37,1.99-2.75,3.97-4.1,5.97
				c-0.63,0.94-0.43,2.06,0.43,2.67c0.89,0.64,1.94,0.47,2.67-0.43c0.21-0.26,0.39-0.55,0.58-0.82c0.81-1.17,1.61-2.33,2.42-3.5
				c0.05,0.01,0.1,0.03,0.15,0.04c0,0.24,0,0.47,0,0.71c0,2.57-0.02,5.15,0.02,7.72c0.01,0.49,0.11,1.04,0.35,1.46
				c0.42,0.75,1.31,0.99,2.18,0.74c0.77-0.22,1.3-0.97,1.3-1.9c0.01-2.71,0-5.42,0.01-8.13c0-0.21,0.02-0.42,0.04-0.78
				c0.25,0.35,0.4,0.56,0.55,0.77c0.84,1.21,1.66,2.43,2.51,3.64c0.49,0.69,1.29,0.99,1.98,0.8c1.47-0.42,1.97-1.83,1.09-3.11
				c-1.96-2.86-3.93-5.71-5.89-8.57c-0.13-0.19-0.27-0.44-0.27-0.66C-122.02-388.91-122.02-392.51-122.02-396.21z"/>
		</g>
		<g>
			<path class="st0" d="M-122.02-396.21c0,3.7,0,7.3,0.01,10.91c0,0.22,0.14,0.46,0.27,0.66c1.96,2.86,3.93,5.71,5.89,8.57
				c0.88,1.29,0.39,2.7-1.09,3.11c-0.69,0.19-1.49-0.11-1.98-0.8c-0.85-1.2-1.68-2.42-2.51-3.64c-0.15-0.22-0.3-0.43-0.55-0.77
				c-0.02,0.36-0.04,0.57-0.04,0.78c0,2.71,0,5.42-0.01,8.13c0,0.94-0.53,1.68-1.3,1.9c-0.86,0.25-1.75,0.01-2.18-0.74
				c-0.24-0.42-0.35-0.97-0.35-1.46c-0.03-2.57-0.02-5.15-0.02-7.72c0-0.24,0-0.47,0-0.71c-0.05-0.01-0.1-0.03-0.15-0.04
				c-0.81,1.17-1.61,2.33-2.42,3.5c-0.19,0.28-0.37,0.56-0.58,0.82c-0.73,0.91-1.77,1.07-2.67,0.43c-0.86-0.62-1.07-1.73-0.43-2.67
				c1.35-2,2.73-3.98,4.1-5.97c0.71-1.03,1.67-1.98,2.03-3.13c0.36-1.14,0.11-2.48,0.11-3.73c0.01-2.44,0-4.87,0-7.41
				c-0.22,0.09-0.38,0.14-0.52,0.22c-2.92,1.68-5.85,3.36-8.76,5.07c-0.28,0.17-0.54,0.47-0.68,0.77c-1.49,3.1-2.95,6.21-4.44,9.31
				c-0.54,1.12-1.59,1.54-2.6,1.08c-1.04-0.48-1.4-1.58-0.87-2.72c0.62-1.34,1.27-2.66,1.9-4c0.09-0.19,0.17-0.4,0.33-0.77
				c-1.19,0.68-2.22,1.27-3.26,1.87c-1.45,0.84-2.9,1.68-4.35,2.52c-1.14,0.65-2.22,0.41-2.83-0.62c-0.57-0.95-0.2-2.06,0.92-2.71
				c2.28-1.32,4.57-2.63,6.85-3.95c0.2-0.12,0.4-0.25,0.74-0.48c-1.82-0.15-3.46-0.29-5.1-0.41c-1.29-0.09-2.18-0.95-2.08-2.06
				c0.1-1.17,1.04-1.88,2.32-1.78c3.43,0.28,6.86,0.56,10.3,0.83c0.25,0.02,0.56-0.01,0.77-0.13c3.12-1.79,6.23-3.59,9.44-5.45
				c-0.7-0.42-1.34-0.8-1.99-1.18c-2.4-1.38-4.8-2.77-7.21-4.13c-0.3-0.17-0.71-0.25-1.06-0.23c-2.61,0.17-5.22,0.37-7.83,0.57
				c-0.83,0.06-1.65,0.15-2.47,0.21c-1.23,0.1-2.09-0.56-2.26-1.7c-0.15-1,0.6-1.97,1.79-2.11c1.49-0.18,2.99-0.24,4.48-0.35
				c0.24-0.02,0.48-0.04,0.76-0.2c-0.95-0.55-1.9-1.11-2.85-1.66c-1.53-0.88-3.06-1.77-4.59-2.65c-1.11-0.65-1.49-1.73-0.94-2.71
				c0.56-1.01,1.71-1.27,2.85-0.62c2.39,1.36,4.76,2.74,7.15,4.11c0.11,0.06,0.22,0.12,0.48,0.25c-0.68-1.45-1.3-2.75-1.91-4.05
				c-0.14-0.3-0.3-0.6-0.42-0.91c-0.4-1.01-0.01-2.05,0.93-2.49c0.98-0.46,2.05-0.11,2.54,0.91c1.51,3.14,2.99,6.29,4.51,9.42
				c0.16,0.33,0.46,0.67,0.78,0.85c2.83,1.67,5.68,3.3,8.53,4.94c0.19,0.11,0.38,0.2,0.64,0.33c0.01-0.27,0.04-0.46,0.04-0.66
				c0-3.31,0.01-6.63-0.01-9.94c0-0.37-0.15-0.79-0.36-1.1c-1.92-2.83-3.88-5.63-5.82-8.45c-0.5-0.73-0.6-1.49-0.11-2.26
				c0.44-0.69,1.11-0.94,1.91-0.85c0.63,0.08,1.05,0.44,1.39,0.95c0.95,1.38,1.9,2.76,2.96,4.3c0.02-0.38,0.04-0.61,0.04-0.84
				c0-2.66-0.01-5.33,0.01-7.99c0.01-1.31,0.75-2.08,1.94-2.08c1.14,0,1.9,0.81,1.91,2.04c0.01,2.66,0,5.33,0,7.99
				c0,0.22,0,0.44,0,0.65c0.04,0.02,0.08,0.04,0.13,0.07c0.15-0.2,0.3-0.4,0.44-0.6c0.8-1.16,1.59-2.33,2.4-3.48
				c0.76-1.08,1.89-1.35,2.83-0.71c0.93,0.64,1.08,1.82,0.33,2.91c-1.9,2.76-3.82,5.51-5.7,8.28c-0.24,0.36-0.4,0.85-0.41,1.28
				c-0.03,3.34-0.02,6.67-0.02,10.01c0,0.13,0.01,0.26,0.03,0.5c0.87-0.49,1.67-0.95,2.48-1.41c2.23-1.28,4.46-2.56,6.67-3.87
				c0.32-0.19,0.62-0.51,0.79-0.84c1.51-3.09,2.98-6.2,4.46-9.31c0.53-1.11,1.56-1.53,2.59-1.07c0.99,0.45,1.4,1.52,0.91,2.6
				c-0.71,1.58-1.47,3.14-2.3,4.9c0.71-0.4,1.26-0.71,1.8-1.02c1.96-1.13,3.91-2.25,5.86-3.38c1.08-0.62,2.24-0.38,2.81,0.6
				c0.56,0.97,0.2,2.09-0.89,2.72c-2.26,1.31-4.53,2.61-6.79,3.92c-0.23,0.13-0.44,0.27-0.84,0.52c1.04,0.09,1.88,0.17,2.72,0.24
				c0.8,0.06,1.61,0.09,2.41,0.15c1.03,0.07,1.74,0.6,1.99,1.43c0.22,0.75,0,1.62-0.68,2.02c-0.43,0.26-1.01,0.42-1.5,0.39
				c-3.12-0.21-6.25-0.44-9.36-0.75c-1.08-0.1-1.97,0.14-2.89,0.69c-2.64,1.59-5.33,3.1-8,4.64c-0.07,0.04-0.14,0.1-0.28,0.21
				c1.18,0.68,2.3,1.34,3.43,1.99c1.92,1.11,3.83,2.22,5.76,3.3c0.31,0.17,0.72,0.29,1.07,0.26c3.46-0.26,6.91-0.56,10.36-0.83
				c1.21-0.1,2.1,0.66,2.16,1.79c0.05,1.13-0.74,1.96-1.92,2.05c-1.69,0.12-3.38,0.26-5.29,0.41c0.72,0.42,1.27,0.74,1.82,1.06
				c1.99,1.15,3.99,2.3,5.98,3.46c0.79,0.47,1.13,1.21,0.99,2.03s-0.72,1.46-1.63,1.54c-0.49,0.04-1.06-0.15-1.5-0.4
				c-2.32-1.29-4.61-2.64-6.92-3.97c-0.15-0.09-0.31-0.17-0.6-0.33c0.14,0.34,0.22,0.56,0.32,0.76c0.66,1.39,1.34,2.78,1.98,4.18
				c0.4,0.89,0.1,1.84-0.68,2.37c-0.71,0.48-1.73,0.43-2.35-0.18c-0.28-0.27-0.48-0.64-0.65-1c-1.46-3.04-2.9-6.09-4.35-9.13
				c-0.11-0.23-0.28-0.48-0.49-0.6c-3.03-1.77-6.07-3.52-9.11-5.27C-121.76-396.13-121.84-396.15-122.02-396.21z"/>
		</g>
	</g>
</g>
<g id="KNwPzr.tif_7_">
	<g>
		<g>
			<path class="st0" d="M-82.78-436.69c0.11,0.04,0.16,0.05,0.21,0.08c1.92,1.11,3.85,2.22,5.77,3.34c0.13,0.08,0.24,0.24,0.31,0.38
				c0.92,1.93,1.83,3.86,2.76,5.78c0.11,0.23,0.24,0.46,0.41,0.63c0.39,0.39,1.04,0.42,1.49,0.12c0.49-0.33,0.69-0.94,0.43-1.5
				c-0.4-0.89-0.84-1.76-1.25-2.65c-0.06-0.13-0.11-0.27-0.2-0.48c0.18,0.1,0.28,0.15,0.38,0.21c1.46,0.84,2.91,1.69,4.38,2.51
				c0.28,0.16,0.64,0.28,0.95,0.25c0.58-0.05,0.94-0.46,1.03-0.97c0.09-0.52-0.13-0.99-0.63-1.28c-1.26-0.74-2.52-1.46-3.78-2.19
				c-0.35-0.2-0.69-0.4-1.15-0.67c1.21-0.1,2.28-0.19,3.35-0.26c0.75-0.05,1.25-0.58,1.22-1.3c-0.03-0.71-0.6-1.19-1.37-1.13
				c-2.19,0.17-4.37,0.36-6.56,0.52c-0.22,0.02-0.48-0.05-0.68-0.16c-1.22-0.68-2.43-1.39-3.65-2.09c-0.71-0.41-1.43-0.83-2.17-1.26
				c0.09-0.07,0.13-0.11,0.18-0.14c1.69-0.98,3.39-1.94,5.07-2.94c0.58-0.35,1.15-0.5,1.83-0.44c1.97,0.19,3.95,0.34,5.93,0.47
				c0.31,0.02,0.68-0.08,0.95-0.25c0.43-0.25,0.57-0.81,0.43-1.28c-0.15-0.53-0.6-0.86-1.26-0.91c-0.51-0.04-1.02-0.06-1.53-0.1
				c-0.53-0.04-1.06-0.09-1.72-0.15c0.25-0.15,0.39-0.24,0.53-0.33c1.43-0.83,2.87-1.65,4.3-2.48c0.69-0.4,0.92-1.11,0.57-1.72
				c-0.36-0.62-1.09-0.77-1.78-0.38c-1.24,0.71-2.48,1.43-3.71,2.14c-0.34,0.2-0.69,0.39-1.14,0.65c0.53-1.11,1.01-2.1,1.46-3.1
				c0.31-0.68,0.05-1.36-0.58-1.65c-0.65-0.3-1.31-0.03-1.64,0.68c-0.94,1.97-1.87,3.94-2.83,5.9c-0.1,0.21-0.3,0.41-0.5,0.53
				c-1.4,0.83-2.81,1.64-4.22,2.45c-0.51,0.29-1.02,0.58-1.57,0.89c-0.01-0.15-0.02-0.23-0.02-0.32c0-2.11-0.01-4.23,0.01-6.34
				c0-0.27,0.1-0.58,0.26-0.81c1.19-1.76,2.41-3.5,3.61-5.25c0.47-0.69,0.38-1.44-0.21-1.84c-0.6-0.41-1.31-0.23-1.79,0.45
				c-0.51,0.73-1.01,1.47-1.52,2.2c-0.09,0.13-0.18,0.25-0.28,0.38c-0.03-0.01-0.05-0.03-0.08-0.04c0-0.14,0-0.28,0-0.41
				c0-1.69,0-3.38,0-5.06c0-0.78-0.48-1.29-1.21-1.29c-0.75,0-1.22,0.49-1.23,1.32c-0.01,1.69,0,3.38,0,5.06
				c0,0.14-0.01,0.29-0.02,0.53c-0.67-0.97-1.28-1.84-1.88-2.72c-0.22-0.32-0.49-0.55-0.88-0.6c-0.51-0.06-0.93,0.1-1.21,0.54
				c-0.31,0.49-0.25,0.97,0.07,1.43c1.23,1.78,2.47,3.56,3.69,5.35c0.13,0.2,0.22,0.46,0.23,0.7c0.02,2.1,0.01,4.2,0.01,6.3
				c0,0.12-0.01,0.25-0.02,0.42c-0.16-0.08-0.28-0.14-0.4-0.21c-1.8-1.04-3.61-2.07-5.4-3.13c-0.2-0.12-0.39-0.33-0.49-0.54
				c-0.96-1.98-1.9-3.98-2.86-5.97c-0.31-0.64-0.99-0.87-1.61-0.57c-0.59,0.28-0.84,0.94-0.59,1.58c0.08,0.2,0.18,0.38,0.27,0.58
				c0.39,0.83,0.78,1.65,1.21,2.57c-0.17-0.09-0.24-0.12-0.3-0.16c-1.51-0.87-3.02-1.74-4.53-2.6c-0.72-0.41-1.45-0.25-1.8,0.39
				c-0.34,0.62-0.11,1.31,0.6,1.72c0.97,0.56,1.94,1.12,2.9,1.68c0.6,0.35,1.2,0.7,1.81,1.05c-0.18,0.1-0.33,0.11-0.48,0.13
				c-0.95,0.07-1.9,0.11-2.84,0.22c-0.75,0.09-1.23,0.7-1.13,1.34c0.11,0.72,0.65,1.13,1.43,1.07c0.52-0.04,1.04-0.09,1.57-0.13
				c1.65-0.12,3.3-0.25,4.96-0.36c0.22-0.01,0.48,0.04,0.67,0.15c1.53,0.86,3.05,1.74,4.57,2.62c0.41,0.24,0.81,0.48,1.26,0.75
				c-2.03,1.18-4,2.32-5.98,3.45c-0.14,0.08-0.33,0.1-0.49,0.09c-2.17-0.17-4.35-0.35-6.52-0.53c-0.81-0.07-1.4,0.39-1.47,1.12
				c-0.06,0.7,0.51,1.25,1.32,1.3c1.04,0.07,2.08,0.16,3.23,0.26c-0.22,0.14-0.34,0.23-0.47,0.3c-1.45,0.84-2.89,1.67-4.34,2.5
				c-0.71,0.41-0.94,1.11-0.58,1.72c0.39,0.65,1.08,0.8,1.8,0.39c0.92-0.53,1.84-1.06,2.76-1.59c0.65-0.38,1.31-0.75,2.06-1.18
				c-0.1,0.23-0.15,0.36-0.21,0.49c-0.4,0.84-0.81,1.68-1.2,2.53c-0.34,0.72-0.1,1.42,0.55,1.73c0.64,0.29,1.31,0.03,1.65-0.68
				c0.94-1.96,1.87-3.93,2.81-5.9c0.09-0.19,0.25-0.38,0.43-0.49c1.84-1.08,3.7-2.14,5.55-3.21c0.09-0.05,0.19-0.08,0.33-0.14
				c0,1.6,0,3.15,0,4.69c0,0.79,0.16,1.64-0.07,2.37c-0.23,0.72-0.84,1.33-1.29,1.98c-0.86,1.26-1.74,2.51-2.6,3.78
				c-0.4,0.59-0.27,1.3,0.27,1.69c0.57,0.4,1.23,0.3,1.69-0.27c0.13-0.17,0.25-0.35,0.37-0.52c0.51-0.74,1.02-1.48,1.53-2.22
				c0.03,0.01,0.06,0.02,0.09,0.02c0,0.15,0,0.3,0,0.45c0,1.63-0.01,3.26,0.01,4.89c0,0.31,0.07,0.66,0.22,0.93
				c0.27,0.47,0.83,0.63,1.38,0.47c0.49-0.14,0.82-0.61,0.83-1.21c0.01-1.72,0-3.43,0-5.15c0-0.13,0.01-0.26,0.03-0.49
				c0.16,0.22,0.26,0.35,0.35,0.49c0.53,0.77,1.05,1.54,1.59,2.3c0.31,0.44,0.82,0.63,1.25,0.51c0.93-0.26,1.25-1.16,0.69-1.97
				c-1.24-1.81-2.49-3.62-3.73-5.43c-0.08-0.12-0.17-0.28-0.17-0.42C-82.79-432.07-82.78-434.35-82.78-436.69z"/>
		</g>
		<g>
			<path class="st0" d="M-82.78-436.69c0,2.34,0,4.63,0.01,6.91c0,0.14,0.09,0.29,0.17,0.42c1.24,1.81,2.49,3.62,3.73,5.43
				c0.56,0.81,0.24,1.71-0.69,1.97c-0.44,0.12-0.95-0.07-1.25-0.51c-0.54-0.76-1.06-1.54-1.59-2.3c-0.09-0.14-0.19-0.27-0.35-0.49
				c-0.01,0.23-0.03,0.36-0.03,0.49c0,1.72,0,3.43,0,5.15c0,0.59-0.34,1.06-0.83,1.21c-0.55,0.16-1.11,0-1.38-0.47
				c-0.15-0.27-0.22-0.61-0.22-0.93c-0.02-1.63-0.01-3.26-0.01-4.89c0-0.15,0-0.3,0-0.45c-0.03-0.01-0.06-0.02-0.09-0.02
				c-0.51,0.74-1.02,1.48-1.53,2.22c-0.12,0.17-0.23,0.36-0.37,0.52c-0.46,0.57-1.12,0.68-1.69,0.27c-0.55-0.39-0.68-1.1-0.27-1.69
				c0.86-1.27,1.73-2.52,2.6-3.78c0.45-0.65,1.06-1.26,1.29-1.98c0.23-0.73,0.07-1.57,0.07-2.37c0-1.54,0-3.09,0-4.69
				c-0.14,0.06-0.24,0.09-0.33,0.14c-1.85,1.07-3.71,2.13-5.55,3.21c-0.18,0.11-0.34,0.3-0.43,0.49c-0.95,1.96-1.87,3.93-2.81,5.9
				c-0.34,0.71-1,0.98-1.65,0.68c-0.66-0.3-0.89-1-0.55-1.73c0.39-0.85,0.8-1.69,1.2-2.53c0.06-0.12,0.11-0.25,0.21-0.49
				c-0.75,0.43-1.41,0.81-2.06,1.18c-0.92,0.53-1.84,1.06-2.76,1.59c-0.72,0.41-1.41,0.26-1.8-0.39c-0.36-0.6-0.12-1.31,0.58-1.72
				c1.44-0.84,2.89-1.67,4.34-2.5c0.13-0.07,0.25-0.16,0.47-0.3c-1.15-0.09-2.19-0.19-3.23-0.26c-0.81-0.06-1.38-0.6-1.32-1.3
				c0.07-0.74,0.66-1.19,1.47-1.12c2.17,0.18,4.35,0.36,6.52,0.53c0.16,0.01,0.35-0.01,0.49-0.09c1.98-1.13,3.95-2.27,5.98-3.45
				c-0.45-0.26-0.85-0.51-1.26-0.75c-1.52-0.88-3.04-1.76-4.57-2.62c-0.19-0.11-0.45-0.16-0.67-0.15c-1.65,0.11-3.31,0.23-4.96,0.36
				c-0.52,0.04-1.04,0.09-1.57,0.13c-0.78,0.06-1.32-0.35-1.43-1.07c-0.09-0.64,0.38-1.25,1.13-1.34c0.94-0.11,1.89-0.15,2.84-0.22
				c0.15-0.01,0.3-0.02,0.48-0.13c-0.6-0.35-1.2-0.7-1.81-1.05c-0.97-0.56-1.94-1.12-2.9-1.68c-0.7-0.41-0.94-1.1-0.6-1.72
				c0.36-0.64,1.08-0.8,1.8-0.39c1.51,0.86,3.02,1.74,4.53,2.6c0.07,0.04,0.14,0.07,0.3,0.16c-0.43-0.92-0.82-1.74-1.21-2.57
				c-0.09-0.19-0.19-0.38-0.27-0.58c-0.25-0.64-0.01-1.3,0.59-1.58c0.62-0.29,1.3-0.07,1.61,0.57c0.96,1.99,1.9,3.98,2.86,5.97
				c0.1,0.21,0.29,0.42,0.49,0.54c1.79,1.06,3.6,2.09,5.4,3.13c0.12,0.07,0.24,0.13,0.4,0.21c0.01-0.17,0.02-0.29,0.02-0.42
				c0-2.1,0.01-4.2-0.01-6.3c0-0.24-0.09-0.5-0.23-0.7c-1.22-1.79-2.46-3.57-3.69-5.35c-0.32-0.46-0.38-0.95-0.07-1.43
				c0.28-0.44,0.7-0.6,1.21-0.54c0.4,0.05,0.67,0.28,0.88,0.6c0.6,0.88,1.21,1.75,1.88,2.72c0.01-0.24,0.02-0.39,0.02-0.53
				c0-1.69-0.01-3.38,0-5.06c0-0.83,0.48-1.32,1.23-1.32c0.72,0,1.2,0.51,1.21,1.29c0.01,1.69,0,3.38,0,5.06c0,0.14,0,0.28,0,0.41
				c0.03,0.01,0.05,0.03,0.08,0.04c0.09-0.13,0.19-0.25,0.28-0.38c0.51-0.73,1.01-1.47,1.52-2.2c0.48-0.68,1.2-0.86,1.79-0.45
				c0.59,0.4,0.69,1.15,0.21,1.84c-1.2,1.75-2.42,3.49-3.61,5.25c-0.15,0.23-0.25,0.54-0.26,0.81c-0.02,2.11-0.01,4.23-0.01,6.34
				c0,0.08,0.01,0.16,0.02,0.32c0.55-0.31,1.06-0.6,1.57-0.89c1.41-0.81,2.82-1.62,4.22-2.45c0.2-0.12,0.4-0.32,0.5-0.53
				c0.95-1.96,1.89-3.93,2.83-5.9c0.34-0.7,0.99-0.97,1.64-0.68c0.63,0.28,0.88,0.96,0.58,1.65c-0.45,1-0.93,1.99-1.46,3.1
				c0.45-0.25,0.8-0.45,1.14-0.65c1.24-0.71,2.48-1.43,3.71-2.14c0.69-0.4,1.42-0.24,1.78,0.38c0.36,0.61,0.13,1.32-0.57,1.72
				c-1.43,0.83-2.87,1.66-4.3,2.48c-0.14,0.08-0.28,0.17-0.53,0.33c0.66,0.06,1.19,0.11,1.72,0.15c0.51,0.04,1.02,0.06,1.53,0.1
				c0.65,0.05,1.11,0.38,1.26,0.91c0.14,0.48,0,1.03-0.43,1.28c-0.27,0.16-0.64,0.27-0.95,0.25c-1.98-0.13-3.96-0.28-5.93-0.47
				c-0.68-0.07-1.25,0.09-1.83,0.44c-1.67,1.01-3.38,1.96-5.07,2.94c-0.05,0.03-0.09,0.07-0.18,0.14c0.74,0.43,1.46,0.85,2.17,1.26
				c1.21,0.7,2.42,1.41,3.65,2.09c0.2,0.11,0.45,0.18,0.68,0.16c2.19-0.16,4.38-0.35,6.56-0.52c0.77-0.06,1.33,0.42,1.37,1.13
				c0.03,0.72-0.47,1.24-1.22,1.3c-1.07,0.08-2.14,0.17-3.35,0.26c0.46,0.27,0.8,0.47,1.15,0.67c1.26,0.73,2.53,1.45,3.78,2.19
				c0.5,0.29,0.72,0.76,0.63,1.28c-0.09,0.52-0.46,0.92-1.03,0.97c-0.31,0.03-0.67-0.09-0.95-0.25c-1.47-0.82-2.92-1.67-4.38-2.51
				c-0.1-0.06-0.19-0.11-0.38-0.21c0.09,0.21,0.14,0.35,0.2,0.48c0.42,0.88,0.85,1.76,1.25,2.65c0.26,0.57,0.06,1.17-0.43,1.5
				c-0.45,0.31-1.1,0.27-1.49-0.12c-0.18-0.17-0.3-0.41-0.41-0.63c-0.92-1.93-1.83-3.86-2.76-5.78c-0.07-0.14-0.18-0.3-0.31-0.38
				c-1.92-1.12-3.84-2.23-5.77-3.34C-82.62-436.64-82.67-436.65-82.78-436.69z"/>
		</g>
	</g>
</g>
<g id="KNwPzr.tif_6_">
	<g>
		<g>
			<path class="st0" d="M-124.75-453.78c0.08,0.03,0.12,0.04,0.16,0.06c1.44,0.83,2.88,1.66,4.31,2.5c0.1,0.06,0.18,0.18,0.23,0.28
				c0.69,1.44,1.37,2.88,2.06,4.32c0.08,0.17,0.18,0.34,0.31,0.47c0.29,0.29,0.78,0.32,1.11,0.09c0.37-0.25,0.51-0.7,0.32-1.12
				c-0.3-0.67-0.62-1.32-0.94-1.98c-0.05-0.1-0.08-0.2-0.15-0.36c0.14,0.08,0.21,0.11,0.28,0.16c1.09,0.63,2.18,1.27,3.28,1.88
				c0.21,0.12,0.48,0.21,0.71,0.19c0.43-0.04,0.71-0.34,0.77-0.73c0.07-0.39-0.09-0.74-0.47-0.96c-0.94-0.55-1.89-1.09-2.83-1.64
				c-0.26-0.15-0.52-0.3-0.86-0.5c0.9-0.07,1.7-0.14,2.5-0.2c0.56-0.04,0.94-0.43,0.91-0.97c-0.03-0.53-0.45-0.89-1.02-0.85
				c-1.64,0.13-3.27,0.27-4.91,0.39c-0.17,0.01-0.36-0.04-0.51-0.12c-0.91-0.51-1.82-1.04-2.73-1.56c-0.53-0.31-1.07-0.62-1.62-0.94
				c0.07-0.05,0.1-0.08,0.13-0.1c1.26-0.73,2.54-1.45,3.79-2.2c0.43-0.26,0.86-0.37,1.37-0.33c1.48,0.14,2.95,0.26,4.43,0.35
				c0.23,0.02,0.51-0.06,0.71-0.18c0.32-0.19,0.42-0.6,0.32-0.96c-0.11-0.4-0.45-0.64-0.94-0.68c-0.38-0.03-0.76-0.04-1.14-0.07
				c-0.4-0.03-0.79-0.07-1.29-0.11c0.19-0.12,0.29-0.18,0.4-0.24c1.07-0.62,2.15-1.24,3.22-1.86c0.52-0.3,0.69-0.83,0.42-1.29
				c-0.27-0.46-0.82-0.58-1.33-0.28c-0.93,0.53-1.85,1.07-2.78,1.6c-0.26,0.15-0.52,0.29-0.85,0.48c0.39-0.83,0.75-1.57,1.09-2.32
				c0.23-0.51,0.04-1.02-0.43-1.23c-0.49-0.22-0.98-0.02-1.23,0.51c-0.7,1.47-1.4,2.94-2.11,4.41c-0.08,0.16-0.22,0.31-0.37,0.4
				c-1.05,0.62-2.1,1.23-3.16,1.83c-0.38,0.22-0.76,0.43-1.17,0.67c-0.01-0.11-0.01-0.18-0.01-0.24c0-1.58-0.01-3.16,0.01-4.74
				c0-0.2,0.08-0.44,0.19-0.61c0.89-1.31,1.8-2.61,2.7-3.92c0.35-0.52,0.28-1.07-0.16-1.38c-0.45-0.3-0.98-0.17-1.34,0.34
				c-0.38,0.55-0.76,1.1-1.14,1.65c-0.07,0.1-0.14,0.19-0.21,0.28c-0.02-0.01-0.04-0.02-0.06-0.03c0-0.1,0-0.21,0-0.31
				c0-1.26,0-2.52,0-3.79c0-0.59-0.36-0.97-0.9-0.97c-0.56,0-0.91,0.36-0.92,0.98c-0.01,1.26,0,2.52,0,3.79
				c0,0.11-0.01,0.21-0.02,0.4c-0.5-0.73-0.95-1.38-1.4-2.03c-0.16-0.24-0.36-0.41-0.66-0.45c-0.38-0.05-0.7,0.07-0.9,0.4
				c-0.23,0.36-0.18,0.73,0.05,1.07c0.92,1.33,1.85,2.66,2.76,4c0.1,0.15,0.17,0.35,0.17,0.52c0.01,1.57,0.01,3.14,0.01,4.71
				c0,0.09-0.01,0.18-0.02,0.31c-0.12-0.06-0.21-0.11-0.3-0.16c-1.35-0.78-2.7-1.55-4.04-2.34c-0.15-0.09-0.29-0.25-0.37-0.4
				c-0.72-1.48-1.42-2.98-2.14-4.46c-0.23-0.48-0.74-0.65-1.2-0.43c-0.44,0.21-0.63,0.7-0.44,1.18c0.06,0.15,0.13,0.29,0.2,0.43
				c0.29,0.62,0.58,1.23,0.91,1.92c-0.12-0.06-0.18-0.09-0.23-0.12c-1.13-0.65-2.25-1.3-3.38-1.95c-0.54-0.31-1.08-0.19-1.35,0.29
				c-0.26,0.46-0.08,0.98,0.45,1.28c0.72,0.42,1.45,0.84,2.17,1.26c0.45,0.26,0.9,0.52,1.35,0.78c-0.13,0.08-0.25,0.09-0.36,0.09
				c-0.71,0.05-1.42,0.08-2.12,0.17c-0.56,0.07-0.92,0.52-0.85,1c0.08,0.54,0.49,0.85,1.07,0.8c0.39-0.03,0.78-0.07,1.17-0.1
				c1.24-0.09,2.47-0.19,3.71-0.27c0.16-0.01,0.36,0.03,0.5,0.11c1.14,0.64,2.28,1.3,3.41,1.96c0.31,0.18,0.61,0.36,0.94,0.56
				c-1.52,0.88-2.99,1.73-4.47,2.58c-0.1,0.06-0.24,0.07-0.36,0.06c-1.63-0.13-3.25-0.26-4.88-0.39c-0.61-0.05-1.05,0.29-1.1,0.84
				c-0.05,0.52,0.38,0.93,0.99,0.97c0.78,0.05,1.55,0.12,2.42,0.19c-0.17,0.11-0.26,0.17-0.35,0.23c-1.08,0.62-2.16,1.25-3.24,1.87
				c-0.53,0.31-0.7,0.83-0.44,1.28c0.29,0.49,0.8,0.6,1.34,0.29c0.69-0.4,1.37-0.79,2.06-1.19c0.49-0.28,0.98-0.56,1.54-0.88
				c-0.07,0.18-0.11,0.27-0.15,0.36c-0.3,0.63-0.6,1.26-0.9,1.89c-0.25,0.54-0.08,1.06,0.41,1.29c0.48,0.22,0.98,0.02,1.23-0.51
				c0.7-1.47,1.39-2.94,2.1-4.41c0.07-0.14,0.19-0.29,0.32-0.37c1.38-0.81,2.76-1.6,4.15-2.4c0.07-0.04,0.14-0.06,0.25-0.11
				c0,1.2,0,2.35,0,3.51c0,0.59,0.12,1.23-0.05,1.77c-0.17,0.54-0.63,0.99-0.96,1.48c-0.65,0.94-1.3,1.88-1.94,2.83
				c-0.3,0.44-0.2,0.97,0.2,1.27c0.42,0.3,0.92,0.22,1.26-0.2c0.1-0.12,0.18-0.26,0.27-0.39c0.38-0.55,0.76-1.1,1.15-1.66
				c0.02,0.01,0.05,0.01,0.07,0.02c0,0.11,0,0.22,0,0.33c0,1.22-0.01,2.44,0.01,3.66c0,0.23,0.05,0.49,0.17,0.69
				c0.2,0.35,0.62,0.47,1.03,0.35c0.37-0.11,0.62-0.46,0.62-0.9c0-1.28,0-2.57,0-3.85c0-0.1,0.01-0.2,0.02-0.37
				c0.12,0.16,0.19,0.26,0.26,0.37c0.4,0.57,0.79,1.15,1.19,1.72c0.23,0.33,0.61,0.47,0.94,0.38c0.7-0.2,0.93-0.87,0.51-1.47
				c-0.93-1.35-1.86-2.7-2.79-4.06c-0.06-0.09-0.13-0.21-0.13-0.31C-124.75-450.32-124.75-452.02-124.75-453.78z"/>
		</g>
		<g>
			<path class="st0" d="M-124.75-453.78c0,1.75,0,3.46,0.01,5.17c0,0.1,0.07,0.22,0.13,0.31c0.93,1.35,1.86,2.7,2.79,4.06
				c0.42,0.61,0.18,1.28-0.51,1.47c-0.33,0.09-0.71-0.05-0.94-0.38c-0.4-0.57-0.79-1.15-1.19-1.72c-0.07-0.1-0.14-0.2-0.26-0.37
				c-0.01,0.17-0.02,0.27-0.02,0.37c0,1.28,0,2.57,0,3.85c0,0.44-0.25,0.79-0.62,0.9c-0.41,0.12-0.83,0-1.03-0.35
				c-0.11-0.2-0.16-0.46-0.17-0.69c-0.02-1.22-0.01-2.44-0.01-3.66c0-0.11,0-0.22,0-0.33c-0.02-0.01-0.05-0.01-0.07-0.02
				c-0.38,0.55-0.76,1.1-1.15,1.66c-0.09,0.13-0.17,0.27-0.27,0.39c-0.34,0.43-0.84,0.51-1.26,0.2c-0.41-0.29-0.5-0.82-0.2-1.27
				c0.64-0.95,1.29-1.88,1.94-2.83c0.33-0.49,0.79-0.94,0.96-1.48s0.05-1.18,0.05-1.77c0-1.15,0-2.31,0-3.51
				c-0.11,0.04-0.18,0.07-0.25,0.11c-1.38,0.8-2.77,1.59-4.15,2.4c-0.13,0.08-0.25,0.22-0.32,0.37c-0.71,1.47-1.4,2.94-2.1,4.41
				c-0.25,0.53-0.75,0.73-1.23,0.51c-0.49-0.22-0.67-0.75-0.41-1.29c0.29-0.63,0.6-1.26,0.9-1.89c0.04-0.09,0.08-0.19,0.15-0.36
				c-0.56,0.32-1.05,0.6-1.54,0.88c-0.69,0.4-1.37,0.8-2.06,1.19c-0.54,0.31-1.05,0.2-1.34-0.29c-0.27-0.45-0.09-0.98,0.44-1.28
				c1.08-0.63,2.16-1.25,3.24-1.87c0.1-0.06,0.19-0.12,0.35-0.23c-0.86-0.07-1.64-0.14-2.42-0.19c-0.61-0.04-1.03-0.45-0.99-0.97
				c0.05-0.55,0.49-0.89,1.1-0.84c1.63,0.13,3.25,0.27,4.88,0.39c0.12,0.01,0.26-0.01,0.36-0.06c1.48-0.85,2.95-1.7,4.47-2.58
				c-0.33-0.2-0.64-0.38-0.94-0.56c-1.14-0.66-2.27-1.31-3.41-1.96c-0.14-0.08-0.34-0.12-0.5-0.11c-1.24,0.08-2.47,0.18-3.71,0.27
				c-0.39,0.03-0.78,0.07-1.17,0.1c-0.58,0.05-0.99-0.26-1.07-0.8c-0.07-0.48,0.28-0.93,0.85-1c0.7-0.09,1.41-0.11,2.12-0.17
				c0.11-0.01,0.23-0.02,0.36-0.09c-0.45-0.26-0.9-0.52-1.35-0.78c-0.72-0.42-1.45-0.84-2.17-1.26c-0.53-0.31-0.7-0.82-0.45-1.28
				c0.27-0.48,0.81-0.6,1.35-0.29c1.13,0.65,2.26,1.3,3.38,1.95c0.05,0.03,0.1,0.05,0.23,0.12c-0.32-0.69-0.62-1.3-0.91-1.92
				c-0.07-0.14-0.14-0.28-0.2-0.43c-0.19-0.48,0-0.97,0.44-1.18c0.47-0.22,0.97-0.05,1.2,0.43c0.72,1.49,1.42,2.98,2.14,4.46
				c0.08,0.16,0.22,0.32,0.37,0.4c1.34,0.79,2.69,1.56,4.04,2.34c0.09,0.05,0.18,0.09,0.3,0.16c0.01-0.13,0.02-0.22,0.02-0.31
				c0-1.57,0.01-3.14-0.01-4.71c0-0.18-0.07-0.38-0.17-0.52c-0.91-1.34-1.84-2.67-2.76-4c-0.24-0.34-0.29-0.71-0.05-1.07
				c0.21-0.33,0.52-0.45,0.9-0.4c0.3,0.04,0.5,0.21,0.66,0.45c0.45,0.66,0.9,1.31,1.4,2.03c0.01-0.18,0.02-0.29,0.02-0.4
				c0-1.26,0-2.52,0-3.79c0-0.62,0.36-0.99,0.92-0.98c0.54,0,0.9,0.38,0.9,0.97c0,1.26,0,2.52,0,3.79c0,0.1,0,0.21,0,0.31
				c0.02,0.01,0.04,0.02,0.06,0.03c0.07-0.09,0.14-0.19,0.21-0.28c0.38-0.55,0.75-1.1,1.14-1.65c0.36-0.51,0.89-0.64,1.34-0.34
				c0.44,0.3,0.51,0.86,0.16,1.38c-0.9,1.31-1.81,2.61-2.7,3.92c-0.12,0.17-0.19,0.4-0.19,0.61c-0.02,1.58-0.01,3.16-0.01,4.74
				c0,0.06,0.01,0.12,0.01,0.24c0.41-0.23,0.79-0.45,1.17-0.67c1.05-0.61,2.11-1.21,3.16-1.83c0.15-0.09,0.3-0.24,0.37-0.4
				c0.71-1.46,1.41-2.94,2.11-4.41c0.25-0.52,0.74-0.73,1.23-0.51c0.47,0.21,0.66,0.72,0.43,1.23c-0.34,0.75-0.7,1.49-1.09,2.32
				c0.34-0.19,0.6-0.33,0.85-0.48c0.93-0.53,1.85-1.07,2.78-1.6c0.51-0.3,1.06-0.18,1.33,0.28c0.27,0.46,0.1,0.99-0.42,1.29
				c-1.07,0.62-2.14,1.24-3.22,1.86c-0.11,0.06-0.21,0.13-0.4,0.24c0.49,0.04,0.89,0.08,1.29,0.11c0.38,0.03,0.76,0.04,1.14,0.07
				c0.49,0.04,0.83,0.28,0.94,0.68c0.1,0.36,0,0.77-0.32,0.96c-0.2,0.12-0.48,0.2-0.71,0.18c-1.48-0.1-2.96-0.21-4.43-0.35
				c-0.51-0.05-0.93,0.06-1.37,0.33c-1.25,0.75-2.52,1.47-3.79,2.2c-0.04,0.02-0.07,0.05-0.13,0.1c0.56,0.32,1.09,0.63,1.62,0.94
				c0.91,0.52,1.81,1.05,2.73,1.56c0.15,0.08,0.34,0.14,0.51,0.12c1.64-0.12,3.27-0.26,4.91-0.39c0.57-0.05,1,0.31,1.02,0.85
				c0.03,0.54-0.35,0.93-0.91,0.97c-0.8,0.06-1.6,0.13-2.5,0.2c0.34,0.2,0.6,0.35,0.86,0.5c0.94,0.55,1.89,1.09,2.83,1.64
				c0.38,0.22,0.54,0.57,0.47,0.96c-0.07,0.39-0.34,0.69-0.77,0.73c-0.23,0.02-0.5-0.07-0.71-0.19c-1.1-0.61-2.18-1.25-3.28-1.88
				c-0.07-0.04-0.15-0.08-0.28-0.16c0.07,0.16,0.1,0.26,0.15,0.36c0.31,0.66,0.64,1.31,0.94,1.98c0.19,0.42,0.05,0.87-0.32,1.12
				c-0.34,0.23-0.82,0.2-1.11-0.09c-0.13-0.13-0.23-0.3-0.31-0.47c-0.69-1.44-1.37-2.88-2.06-4.32c-0.05-0.11-0.13-0.23-0.23-0.28
				c-1.43-0.84-2.87-1.67-4.31-2.5C-124.63-453.74-124.67-453.74-124.75-453.78z"/>
		</g>
	</g>
</g>
<g>
	<path class="st0" d="M74.95-358.18c-34.18,0-61.99-27.81-61.99-61.99s27.81-61.99,61.99-61.99s61.99,27.81,61.99,61.99
		S109.14-358.18,74.95-358.18z M74.95-477.61c-31.67,0-57.44,25.77-57.44,57.44s25.77,57.44,57.44,57.44s57.44-25.77,57.44-57.44
		S106.63-477.61,74.95-477.61z"/>
</g>
<g>
	<path class="st0" d="M261.5-358.18c-34.18,0-61.99-27.81-61.99-61.99s27.81-61.99,61.99-61.99s61.99,27.81,61.99,61.99
		S295.68-358.18,261.5-358.18z M261.5-477.61c-31.67,0-57.44,25.77-57.44,57.44s25.77,57.44,57.44,57.44s57.44-25.77,57.44-57.44
		S293.17-477.61,261.5-477.61z"/>
</g>
<g>
	<path class="st0" d="M124.51-428.91c-2.8-0.37-4.92-3.15-4.52-5.94c0.4-2.84,2.55-4.68,5.5-4.73c0.86-0.01,1.46-0.46,1.58-1.18
		c0.12-0.75-0.26-1.41-1.09-1.63c-1.18-0.32-2.38-0.66-3.59-0.78c-7.22-0.74-13.99,3.29-16.88,9.95c-1.64,3.78-6.63,6.24-10.29,3.59
		c-1.75-1.26-2.69-3.57-2.25-5.68s2.27-3.88,4.4-4.17c0.82-0.11,1.77-0.07,2.31-0.69c0.43-0.49,0.4-1.32-0.08-1.78
		c-0.26-0.25-0.61-0.38-0.96-0.49c-3.48-1.13-7.33-1.07-10.77,0.19c-3.43,1.26-6.42,3.71-8.29,6.85c-0.97,1.62-1.67,3.45-3,4.78
		c-1.62,1.61-4.87,2.83-6.99,1.63c-1.98-1.12-3.24-3.6-2.92-5.86c0.4-2.84,2.55-4.68,5.5-4.73c0.86-0.01,1.46-0.46,1.58-1.18
		c0.12-0.75-0.26-1.41-1.09-1.63c-1.18-0.32-2.38-0.66-3.59-0.78c-7.22-0.74-13.99,3.29-16.88,9.95c-1.64,3.78-6.63,6.24-10.29,3.59
		c-1.75-1.26-2.69-3.57-2.25-5.68s2.27-3.88,4.4-4.17c0.82-0.11,1.77-0.07,2.31-0.69c0.43-0.49,0.4-1.32-0.08-1.78
		c-0.26-0.25-0.61-0.38-0.96-0.49c-3.48-1.13-7.33-1.07-10.77,0.19c-3.43,1.26-6.42,3.71-8.29,6.85c-0.97,1.62-1.67,3.45-3,4.78
		c-1.05,1.05-2.47,1.73-3.94,1.93c-0.57,0.08-1.16,0.09-1.71,0.28c-0.55,0.19-1.06,0.63-1.13,1.2c-0.09,0.7,0.51,1.34,1.19,1.53
		s1.4,0.04,2.08-0.12c1.93-0.47,3.88-1.14,5.33-2.49c1.7-1.58,2.49-3.88,3.75-5.83c2.28-3.56,6.29-6.01,10.52-6.21
		c-0.38,0.02-1.1,1.24-1.29,1.53c-0.41,0.63-0.72,1.31-0.95,2.03c-0.45,1.43-0.54,2.97-0.22,4.44c0.65,2.93,3.06,5.45,5.89,6.38
		c3.45,1.14,7.63-0.42,10.02-3.03c0.86-0.93,1.53-2.02,2.06-3.18c1.39-3.08,3.58-5.37,6.6-6.86c1.55-0.76,3.19-1.2,5.04-1.33
		c-1.78,1.75-2.74,3.76-2.73,6.18c0.01,2.42,0.93,4.45,2.7,6.08c1.24,1.13,2.68,2.14,4.35,2.48c2.4,0.49,5.85-1.04,7.58-2.66
		c1.7-1.58,2.49-3.88,3.75-5.83c2.28-3.56,6.29-6.01,10.52-6.21c-0.38,0.02-1.1,1.24-1.29,1.53c-0.41,0.63-0.72,1.31-0.95,2.03
		c-0.45,1.43-0.54,2.97-0.22,4.44c0.65,2.93,3.06,5.45,5.89,6.38c3.45,1.14,7.63-0.42,10.02-3.03c0.86-0.93,1.53-2.02,2.06-3.18
		c1.39-3.08,3.58-5.37,6.6-6.86c1.55-0.76,3.19-1.2,5.04-1.33c-1.78,1.75-2.74,3.76-2.73,6.18c0.01,2.42,0.93,4.45,2.7,6.08
		c1.53,1.41,3.37,2.12,5.44,2.13c0.83,0,4.97-0.49,7.11-2.84c2.88-3.16,1.19-5.11-1.76-2.44
		C129.45-429.83,126.52-428.65,124.51-428.91z"/>
</g>
<g>
	<polygon class="st0" points="81.62,-400.18 81.62,-417.32 68.29,-417.32 68.29,-400.18 61.21,-400.18 74.95,-376.37 88.7,-400.18 	
		"/>
</g>
<g>
	<g>
		<circle class="st0" cx="298.1" cy="-440.36" r="8.59"/>
	</g>
	<g>
		<circle class="st0" cx="285.52" cy="-403.69" r="8.59"/>
	</g>
	<g>
		<circle class="st0" cx="258.1" cy="-438.84" r="8.59"/>
	</g>
	<g>
		<circle class="st0" cx="307.01" cy="-402.63" r="5.8"/>
	</g>
	<g>
		<circle class="st0" cx="266.08" cy="-415.85" r="5.8"/>
	</g>
	<g>
		<circle class="st0" cx="275.9" cy="-445.79" r="3.99"/>
	</g>
	<g>
		<circle class="st0" cx="292" cy="-419.78" r="3.99"/>
	</g>
	<g>
		<circle class="st0" cx="310.73" cy="-422.09" r="2.9"/>
	</g>
	<g>
		<circle class="st0" cx="276.99" cy="-430.25" r="2.9"/>
	</g>
	<g>
		<circle class="st0" cx="260.13" cy="-460.87" r="2.9"/>
	</g>
	<g>
		<circle class="st0" cx="250.64" cy="-415.52" r="2.9"/>
	</g>
	<g>
		<circle class="st0" cx="279.2" cy="-464.29" r="6.33"/>
	</g>
</g>
<g>
	<polygon class="st0" points="224.84,-416.27 218.99,-398.25 239.79,-398.25 	"/>
</g>
<g>
	<polygon class="st0" points="238.39,-381.21 228.79,-381.21 224.24,-401.49 233.84,-401.49 	"/>
</g>
<g>
	<polygon class="st0" points="237.97,-390.4 239.79,-381.21 261.17,-398.25 249.86,-401.49 	"/>
</g>
<g>
	<rect x="219.28" y="-380.43" class="st0" width="84.44" height="2.27"/>
</g>
<g>
	<path class="st0" d="M-233.19-32.73c-0.39,1.58-0.75,2.98-1.01,4.37h-0.04c-0.19-1.33-0.53-2.83-0.88-4.33l-1.54-6.41h-1.71
		l-1.69,6.38c-0.43,1.63-0.83,3.13-1.03,4.39h-0.04c-0.23-1.22-0.56-2.79-0.94-4.37l-1.5-6.4h-1.73l3.21,12.64h1.71l1.8-6.58
		c0.47-1.63,0.75-2.87,0.98-4.13h0.04c0.17,1.27,0.43,2.51,0.83,4.13l1.59,6.58h1.71l3.58-12.64h-1.67L-233.19-32.73z"/>
	<path class="st0" d="M-222.57-32.04c0-1.82-0.68-3.71-3.45-3.71c-1.14,0-2.23,0.32-2.98,0.81l0.37,1.09
		c0.64-0.41,1.52-0.68,2.36-0.68c1.86,0,2.06,1.35,2.06,2.1v0.19c-3.51-0.02-5.46,1.18-5.46,3.38c0,1.31,0.94,2.61,2.78,2.61
		c1.29,0,2.27-0.64,2.78-1.35h0.06l0.13,1.14h1.5c-0.11-0.62-0.15-1.39-0.15-2.18V-32.04z M-224.17-29.53
		c0,0.17-0.04,0.36-0.09,0.53c-0.26,0.77-1.01,1.52-2.19,1.52c-0.84,0-1.56-0.51-1.56-1.58c0-1.76,2.04-2.08,3.85-2.04v1.57H-224.17
		z"/>
	<path class="st0" d="M-218-38.15l-1.61,0.43v2.18h-1.41v1.26h1.41v4.95c0,1.07,0.17,1.88,0.64,2.36c0.39,0.45,1.01,0.69,1.78,0.69
		c0.64,0,1.14-0.09,1.46-0.22l-0.08-1.24c-0.21,0.06-0.53,0.11-0.96,0.11c-0.92,0-1.24-0.64-1.24-1.76v-4.9h2.36v-1.26H-218V-38.15z
		"/>
	<path class="st0" d="M-210.29-35.75c-2.64,0-4.26,2.16-4.26,4.9s1.67,4.58,4.46,4.58c1.44,0,2.44-0.3,3.02-0.56l-0.28-1.18
		c-0.62,0.26-1.33,0.47-2.51,0.47c-1.65,0-3.08-0.92-3.11-3.15h6.38c0.02-0.17,0.06-0.43,0.06-0.77
		C-206.53-33.15-207.32-35.75-210.29-35.75z M-212.95-31.89c0.13-1.14,0.86-2.68,2.53-2.68c1.86,0,2.31,1.63,2.29,2.68H-212.95z"/>
	<path class="st0" d="M-202.99-33.77h-0.08l-0.06-1.78h-1.44c0.06,0.84,0.08,1.76,0.08,2.83v6.25h1.63v-4.84
		c0-0.28,0.04-0.54,0.08-0.77c0.22-1.24,1.05-2.12,2.21-2.12c0.23,0,0.39,0.02,0.56,0.06v-1.56c-0.15-0.04-0.28-0.06-0.47-0.06
		C-201.58-35.75-202.57-34.98-202.99-33.77z"/>
	<path class="st0" d="M-193.53-35.75c-1.48,0-2.55,0.66-3.23,1.76h-0.04l-0.07-1.56h-1.48c0.04,0.86,0.08,1.8,0.08,2.96v9.83h1.63
		v-4.93h0.04c0.54,0.9,1.59,1.43,2.79,1.43c2.14,0,4.13-1.61,4.13-4.88C-189.69-33.9-191.34-35.75-193.53-35.75z M-194.1-27.56
		c-1.18,0-2.18-0.79-2.48-1.93c-0.04-0.21-0.08-0.43-0.08-0.68v-1.56c0-0.23,0.06-0.47,0.11-0.68c0.32-1.24,1.37-2.04,2.49-2.04
		c1.74,0,2.7,1.56,2.7,3.38C-191.34-28.98-192.35-27.56-194.1-27.56z"/>
	<path class="st0" d="M-186.1-33.77h-0.08l-0.06-1.78h-1.44c0.06,0.84,0.08,1.76,0.08,2.83v6.25h1.63v-4.84
		c0-0.28,0.04-0.54,0.08-0.77c0.22-1.24,1.05-2.12,2.21-2.12c0.23,0,0.39,0.02,0.56,0.06v-1.56c-0.15-0.04-0.28-0.06-0.47-0.06
		C-184.7-35.75-185.69-34.98-186.1-33.77z"/>
	<path class="st0" d="M-177.81-35.75c-2.51,0-4.5,1.78-4.5,4.82c0,2.87,1.89,4.67,4.35,4.67c2.19,0,4.52-1.46,4.52-4.82
		C-173.44-33.86-175.2-35.75-177.81-35.75z M-177.89-27.5c-1.61,0-2.76-1.5-2.76-3.49c0-1.73,0.84-3.53,2.79-3.53
		s2.72,1.95,2.72,3.49C-175.13-28.98-176.31-27.5-177.89-27.5z"/>
	<path class="st0" d="M-167.51-35.75c-2.51,0-4.5,1.78-4.5,4.82c0,2.87,1.89,4.67,4.35,4.67c2.19,0,4.52-1.46,4.52-4.82
		C-163.14-33.86-164.9-35.75-167.51-35.75z M-167.59-27.5c-1.61,0-2.76-1.5-2.76-3.49c0-1.73,0.84-3.53,2.79-3.53
		s2.72,1.95,2.72,3.49C-164.83-28.98-166.01-27.5-167.59-27.5z"/>
	<path class="st0" d="M-157.49-38.66c0.47,0,0.81,0.09,1.05,0.21l0.22-1.28c-0.32-0.13-0.83-0.26-1.41-0.26
		c-0.77,0-1.59,0.24-2.21,0.84c-0.77,0.73-1.05,1.89-1.05,3.17v0.43h-1.28v1.26h1.28v7.82h1.63v-7.82h2.19v-1.26h-2.19v-0.49
		C-159.26-37.42-158.9-38.66-157.49-38.66z"/>
	<path class="st0" d="M-213.29-60.23c32.27,0,0-43.41,0-43.41S-245.56-60.23-213.29-60.23z M-223.68-72.68
		c1.66,4.56,6.64,9.13,6.64,9.13C-224.93-64.8-223.68-72.68-223.68-72.68z"/>
	<path class="st0" d="M-183.97-73.1c22.7,0,0-30.54,0-30.54S-206.68-73.1-183.97-73.1z M-191.47-83.33
		c1.09,2.99,4.35,5.99,4.35,5.99C-192.29-78.16-191.47-83.33-191.47-83.33z"/>
	<path class="st0" d="M-198.77-102.97c18.08,0,0-24.32,0-24.32S-216.84-102.97-198.77-102.97z M-204.59-109.95
		c0.93,2.56,3.72,5.11,3.72,5.11C-205.29-105.53-204.59-109.95-204.59-109.95z"/>
	<path class="st0" d="M-200.76-48.75c22.86,0,41.46-18.6,41.46-41.46s-18.6-41.46-41.46-41.46s-41.46,18.6-41.46,41.46
		C-242.22-67.35-223.62-48.75-200.76-48.75z M-200.76-128.63c21.18,0,38.42,17.23,38.42,38.42s-17.23,38.42-38.42,38.42
		s-38.42-17.23-38.42-38.42S-221.94-128.63-200.76-128.63z"/>
</g>
<g>
	<g>
		<path class="st0" d="M-118.72-28.46c0.73,0.45,1.8,0.82,2.93,0.82c1.67,0,2.65-0.88,2.65-2.16c0-1.18-0.68-1.86-2.38-2.51
			c-2.06-0.73-3.34-1.8-3.34-3.58c0-1.97,1.63-3.43,4.09-3.43c1.29,0,2.23,0.3,2.79,0.62l-0.45,1.33c-0.41-0.22-1.26-0.6-2.4-0.6
			c-1.73,0-2.38,1.03-2.38,1.89c0,1.18,0.77,1.76,2.51,2.44c2.14,0.83,3.23,1.86,3.23,3.71c0,1.95-1.44,3.64-4.43,3.64
			c-1.22,0-2.55-0.36-3.23-0.81L-118.72-28.46z"/>
		<path class="st0" d="M-109.3-33.09c0-0.94-0.02-1.71-0.08-2.46h1.46l0.09,1.5h0.04c0.45-0.86,1.5-1.71,3-1.71
			c1.26,0,3.21,0.75,3.21,3.86v5.42h-1.65v-5.23c0-1.46-0.54-2.68-2.1-2.68c-1.09,0-1.93,0.77-2.21,1.69
			c-0.08,0.21-0.11,0.49-0.11,0.77v5.46h-1.65C-109.3-26.47-109.3-33.09-109.3-33.09z"/>
		<path class="st0" d="M-90.67-31.08c0,3.36-2.33,4.82-4.52,4.82c-2.46,0-4.35-1.8-4.35-4.67c0-3.04,1.99-4.82,4.5-4.82
			C-92.44-35.75-90.67-33.86-90.67-31.08z M-97.87-30.99c0,1.99,1.14,3.49,2.76,3.49c1.58,0,2.76-1.48,2.76-3.53
			c0-1.54-0.77-3.49-2.72-3.49C-97.03-34.52-97.87-32.71-97.87-30.99z"/>
		<path class="st0" d="M-88.06-35.55l1.2,4.61c0.26,1.01,0.51,1.95,0.68,2.89h0.06c0.21-0.92,0.51-1.89,0.81-2.87l1.48-4.63h1.39
			l1.41,4.54c0.34,1.09,0.6,2.04,0.81,2.96h0.06c0.15-0.92,0.39-1.88,0.69-2.95l1.29-4.56h1.63l-2.93,9.08h-1.5l-1.39-4.33
			c-0.32-1.01-0.58-1.91-0.81-2.98h-0.04c-0.23,1.09-0.51,2.03-0.83,3l-1.46,4.31h-1.5l-2.74-9.08h1.69V-35.55z"/>
		<path class="st0" d="M-74.91-32.58c0-1.16-0.04-2.1-0.08-2.96h1.48l0.07,1.56h0.04c0.68-1.11,1.74-1.76,3.23-1.76
			c2.19,0,3.85,1.86,3.85,4.61c0,3.26-1.99,4.88-4.13,4.88c-1.2,0-2.25-0.53-2.79-1.43h-0.04v4.93h-1.63
			C-74.91-22.75-74.91-32.58-74.91-32.58z M-73.28-30.16c0,0.24,0.04,0.47,0.08,0.68c0.3,1.14,1.29,1.93,2.48,1.93
			c1.74,0,2.76-1.43,2.76-3.51c0-1.82-0.96-3.38-2.7-3.38c-1.13,0-2.18,0.81-2.49,2.04c-0.06,0.21-0.11,0.45-0.11,0.68v1.56H-73.28z
			"/>
		<path class="st0" d="M-64.24-32.71c0-1.07-0.02-1.99-0.08-2.83h1.44l0.06,1.78h0.08c0.41-1.22,1.41-1.99,2.51-1.99
			c0.19,0,0.32,0.02,0.47,0.06v1.56c-0.17-0.04-0.34-0.06-0.56-0.06c-1.16,0-1.99,0.88-2.21,2.12c-0.04,0.23-0.08,0.49-0.08,0.77
			v4.84h-1.63V-32.71z"/>
		<path class="st0" d="M-50.07-31.08c0,3.36-2.33,4.82-4.52,4.82c-2.46,0-4.35-1.8-4.35-4.67c0-3.04,1.99-4.82,4.5-4.82
			C-51.84-35.75-50.07-33.86-50.07-31.08z M-57.28-30.99c0,1.99,1.14,3.49,2.76,3.49c1.58,0,2.76-1.48,2.76-3.53
			c0-1.54-0.77-3.49-2.72-3.49C-56.43-34.52-57.28-32.71-57.28-30.99z"/>
		<path class="st0" d="M-39.77-31.08c0,3.36-2.33,4.82-4.52,4.82c-2.46,0-4.35-1.8-4.35-4.67c0-3.04,1.99-4.82,4.5-4.82
			C-41.54-35.75-39.77-33.86-39.77-31.08z M-46.98-30.99c0,1.99,1.14,3.49,2.76,3.49c1.58,0,2.76-1.48,2.76-3.53
			c0-1.54-0.77-3.49-2.72-3.49C-46.13-34.52-46.98-32.71-46.98-30.99z"/>
		<path class="st0" d="M-37.52-26.47v-7.82h-1.28v-1.26h1.28v-0.43c0-1.28,0.28-2.44,1.05-3.17c0.62-0.6,1.44-0.84,2.21-0.84
			c0.58,0,1.09,0.13,1.41,0.26l-0.23,1.28c-0.24-0.11-0.58-0.21-1.05-0.21c-1.41,0-1.76,1.24-1.76,2.63v0.49h2.19v1.26h-2.19v7.82
			L-37.52-26.47L-37.52-26.47z"/>
	</g>
	<g>
		<g>
			<path class="st0" d="M-75.99-48.75c-22.86,0-41.46-18.6-41.46-41.46s18.6-41.46,41.46-41.46s41.46,18.6,41.46,41.46
				S-53.13-48.75-75.99-48.75z M-75.99-128.63c-21.18,0-38.42,17.23-38.42,38.42s17.23,38.42,38.42,38.42s38.42-17.23,38.42-38.42
				S-54.81-128.63-75.99-128.63z"/>
		</g>
	</g>
	<g id="KNwPzr.tif_3_">
		<g>
			<g>
				<g>
					<path class="st0" d="M-82.96-74.19c0.12,0.04,0.17,0.06,0.22,0.08c2.03,1.17,4.07,2.34,6.09,3.53c0.14,0.08,0.25,0.25,0.33,0.4
						c0.97,2.03,1.94,4.07,2.91,6.11c0.11,0.24,0.25,0.49,0.44,0.67c0.41,0.41,1.09,0.45,1.57,0.12c0.52-0.35,0.72-0.99,0.45-1.58
						c-0.42-0.94-0.88-1.86-1.32-2.8c-0.07-0.14-0.12-0.28-0.21-0.51c0.19,0.11,0.3,0.16,0.4,0.22c1.54,0.89,3.07,1.79,4.63,2.65
						c0.3,0.17,0.68,0.29,1,0.27c0.61-0.05,1-0.48,1.09-1.03c0.09-0.55-0.13-1.05-0.66-1.36c-1.33-0.78-2.66-1.54-4-2.31
						c-0.37-0.21-0.73-0.43-1.21-0.71c1.27-0.1,2.4-0.2,3.54-0.28c0.79-0.06,1.32-0.61,1.29-1.37c-0.04-0.75-0.63-1.26-1.44-1.19
						c-2.31,0.18-4.62,0.38-6.93,0.55c-0.23,0.02-0.51-0.06-0.71-0.17c-1.29-0.72-2.57-1.47-3.85-2.21
						c-0.75-0.44-1.51-0.88-2.29-1.33c0.1-0.07,0.14-0.11,0.19-0.14c1.78-1.03,3.58-2.04,5.35-3.11c0.61-0.37,1.21-0.53,1.93-0.46
						c2.08,0.2,4.17,0.36,6.26,0.5c0.33,0.02,0.72-0.09,1-0.26c0.45-0.27,0.6-0.85,0.45-1.35c-0.16-0.56-0.64-0.91-1.33-0.96
						c-0.54-0.04-1.08-0.06-1.61-0.1c-0.56-0.04-1.12-0.1-1.82-0.16c0.26-0.16,0.41-0.26,0.56-0.35c1.51-0.87,3.03-1.75,4.54-2.62
						c0.73-0.43,0.97-1.17,0.6-1.82c-0.38-0.65-1.15-0.82-1.88-0.4c-1.31,0.75-2.61,1.51-3.92,2.26c-0.36,0.21-0.73,0.41-1.21,0.68
						c0.55-1.17,1.06-2.22,1.54-3.28c0.32-0.72,0.05-1.44-0.61-1.74c-0.69-0.31-1.38-0.03-1.73,0.71c-0.99,2.08-1.98,4.16-2.98,6.22
						c-0.11,0.22-0.31,0.44-0.53,0.56c-1.48,0.88-2.97,1.73-4.46,2.59c-0.54,0.31-1.08,0.61-1.66,0.94
						c-0.01-0.16-0.02-0.25-0.02-0.33c0-2.23-0.01-4.46,0.01-6.69c0-0.29,0.11-0.62,0.27-0.86c1.26-1.86,2.54-3.69,3.81-5.54
						c0.5-0.73,0.4-1.52-0.22-1.94c-0.63-0.43-1.39-0.25-1.89,0.47c-0.54,0.77-1.07,1.55-1.61,2.33c-0.09,0.14-0.19,0.27-0.29,0.4
						c-0.03-0.01-0.06-0.03-0.08-0.04c0-0.15,0-0.29,0-0.44c0-1.78,0-3.56,0-5.35c0-0.83-0.51-1.36-1.27-1.37
						c-0.79,0-1.29,0.51-1.3,1.39c-0.01,1.78,0,3.56,0,5.35c0,0.15-0.01,0.3-0.02,0.56c-0.71-1.03-1.35-1.95-1.98-2.87
						c-0.23-0.34-0.51-0.58-0.93-0.63c-0.54-0.07-0.98,0.1-1.28,0.57c-0.33,0.51-0.26,1.03,0.08,1.51c1.3,1.88,2.61,3.76,3.89,5.65
						c0.14,0.21,0.24,0.49,0.24,0.74c0.02,2.22,0.01,4.43,0.01,6.65c0,0.13-0.01,0.26-0.02,0.44c-0.17-0.09-0.3-0.15-0.43-0.22
						c-1.9-1.1-3.81-2.19-5.7-3.3c-0.21-0.13-0.41-0.35-0.52-0.57c-1.02-2.1-2.01-4.21-3.02-6.3c-0.33-0.68-1.04-0.92-1.7-0.61
						c-0.63,0.29-0.89,0.99-0.62,1.67c0.08,0.21,0.19,0.41,0.28,0.61c0.41,0.87,0.82,1.74,1.28,2.71c-0.17-0.09-0.25-0.13-0.32-0.17
						c-1.59-0.92-3.18-1.84-4.78-2.75c-0.76-0.44-1.53-0.26-1.91,0.41c-0.36,0.66-0.12,1.38,0.63,1.81
						c1.02,0.59,2.05,1.18,3.07,1.77c0.64,0.37,1.27,0.74,1.91,1.11c-0.19,0.11-0.35,0.12-0.51,0.13c-1,0.07-2,0.11-3,0.23
						c-0.8,0.1-1.3,0.74-1.2,1.41c0.11,0.76,0.69,1.2,1.51,1.13c0.55-0.04,1.1-0.1,1.65-0.14c1.74-0.13,3.49-0.27,5.24-0.38
						c0.23-0.01,0.5,0.04,0.71,0.15c1.61,0.91,3.22,1.84,4.82,2.76c0.43,0.25,0.86,0.51,1.33,0.79c-2.15,1.24-4.23,2.45-6.32,3.64
						c-0.14,0.08-0.34,0.1-0.51,0.09c-2.3-0.18-4.59-0.37-6.89-0.56c-0.86-0.07-1.48,0.41-1.55,1.19c-0.07,0.74,0.53,1.32,1.39,1.38
						c1.1,0.08,2.19,0.17,3.41,0.27c-0.23,0.15-0.36,0.24-0.5,0.32c-1.53,0.88-3.05,1.76-4.58,2.64c-0.75,0.43-0.99,1.17-0.62,1.81
						c0.41,0.69,1.14,0.85,1.9,0.41c0.97-0.56,1.94-1.12,2.91-1.68c0.69-0.4,1.38-0.79,2.18-1.25c-0.11,0.25-0.16,0.38-0.22,0.51
						c-0.42,0.89-0.85,1.78-1.27,2.67c-0.36,0.76-0.11,1.5,0.58,1.82c0.68,0.31,1.38,0.03,1.74-0.72c0.99-2.07,1.97-4.15,2.97-6.23
						c0.1-0.2,0.27-0.4,0.46-0.52c1.95-1.14,3.9-2.26,5.86-3.39c0.09-0.05,0.2-0.09,0.35-0.15c0,1.69,0,3.32,0,4.95
						c0,0.84,0.16,1.73-0.08,2.5c-0.24,0.76-0.89,1.4-1.36,2.09c-0.91,1.33-1.84,2.65-2.74,3.99c-0.42,0.63-0.29,1.37,0.29,1.79
						c0.6,0.43,1.3,0.32,1.78-0.29c0.14-0.17,0.26-0.37,0.39-0.55c0.54-0.78,1.08-1.56,1.62-2.34c0.03,0.01,0.07,0.02,0.1,0.03
						c0,0.16,0,0.32,0,0.47c0,1.72-0.01,3.44,0.01,5.17c0,0.33,0.08,0.7,0.24,0.98c0.28,0.5,0.88,0.66,1.45,0.5
						c0.52-0.15,0.87-0.65,0.87-1.27c0.01-1.81,0-3.62,0-5.44c0-0.14,0.01-0.28,0.03-0.52c0.17,0.23,0.27,0.37,0.37,0.52
						c0.56,0.81,1.11,1.63,1.68,2.43c0.32,0.46,0.86,0.66,1.32,0.53c0.98-0.28,1.32-1.22,0.73-2.08c-1.31-1.91-2.63-3.82-3.94-5.73
						c-0.09-0.13-0.18-0.29-0.18-0.44C-82.97-69.3-82.96-71.71-82.96-74.19z"/>
				</g>
			</g>
			<g>
				<g>
					<path class="st0" d="M-82.96-74.19c0,2.48,0,4.89,0.01,7.3c0,0.15,0.09,0.31,0.18,0.44c1.31,1.91,2.63,3.82,3.94,5.73
						c0.59,0.86,0.26,1.8-0.73,2.08c-0.46,0.13-1-0.07-1.32-0.53c-0.57-0.81-1.12-1.62-1.68-2.43c-0.1-0.14-0.2-0.29-0.37-0.52
						c-0.01,0.24-0.03,0.38-0.03,0.52c0,1.81,0,3.62,0,5.44c0,0.63-0.36,1.12-0.87,1.27c-0.58,0.17-1.17,0-1.45-0.5
						c-0.16-0.28-0.23-0.65-0.24-0.98c-0.02-1.72-0.01-3.44-0.01-5.17c0-0.16,0-0.32,0-0.47c-0.03-0.01-0.07-0.02-0.1-0.03
						c-0.54,0.78-1.08,1.56-1.62,2.34c-0.13,0.18-0.25,0.38-0.39,0.55c-0.49,0.61-1.19,0.72-1.78,0.29
						c-0.58-0.41-0.71-1.16-0.29-1.79c0.9-1.34,1.83-2.66,2.74-3.99c0.47-0.69,1.12-1.33,1.36-2.09c0.24-0.77,0.07-1.66,0.08-2.5
						c0-1.63,0-3.26,0-4.95c-0.15,0.06-0.26,0.1-0.35,0.15c-1.96,1.13-3.91,2.25-5.86,3.39c-0.19,0.11-0.36,0.32-0.46,0.52
						c-1,2.07-1.98,4.15-2.97,6.23c-0.36,0.75-1.06,1.03-1.74,0.72c-0.69-0.32-0.94-1.06-0.58-1.82c0.42-0.89,0.85-1.78,1.27-2.67
						c0.06-0.13,0.11-0.26,0.22-0.51c-0.79,0.46-1.49,0.85-2.18,1.25c-0.97,0.56-1.94,1.12-2.91,1.68c-0.76,0.44-1.49,0.28-1.9-0.41
						c-0.38-0.64-0.13-1.38,0.62-1.81c1.53-0.88,3.05-1.76,4.58-2.64c0.14-0.08,0.26-0.17,0.5-0.32c-1.22-0.1-2.31-0.2-3.41-0.27
						c-0.86-0.06-1.46-0.64-1.39-1.38c0.07-0.78,0.69-1.26,1.55-1.19c2.3,0.19,4.59,0.38,6.89,0.56c0.17,0.01,0.37-0.01,0.51-0.09
						c2.09-1.19,4.17-2.4,6.32-3.64c-0.47-0.28-0.9-0.54-1.33-0.79c-1.61-0.93-3.21-1.86-4.82-2.76c-0.2-0.11-0.47-0.17-0.71-0.15
						c-1.75,0.11-3.49,0.25-5.24,0.38c-0.55,0.04-1.1,0.1-1.65,0.14c-0.82,0.06-1.4-0.37-1.51-1.13c-0.1-0.67,0.4-1.32,1.2-1.41
						c0.99-0.12,2-0.16,3-0.23c0.16-0.01,0.32-0.03,0.51-0.13c-0.64-0.37-1.27-0.74-1.91-1.11c-1.02-0.59-2.05-1.18-3.07-1.77
						c-0.74-0.43-0.99-1.16-0.63-1.81c0.37-0.68,1.14-0.85,1.91-0.41c1.6,0.91,3.19,1.83,4.78,2.75c0.07,0.04,0.15,0.08,0.32,0.17
						c-0.46-0.97-0.87-1.84-1.28-2.71c-0.1-0.2-0.2-0.4-0.28-0.61c-0.27-0.68-0.01-1.37,0.62-1.67c0.66-0.31,1.37-0.07,1.7,0.61
						c1.01,2.1,2,4.21,3.02,6.3c0.11,0.22,0.31,0.45,0.52,0.57c1.89,1.11,3.8,2.21,5.7,3.3c0.12,0.07,0.26,0.13,0.43,0.22
						c0.01-0.18,0.02-0.31,0.02-0.44c0-2.22,0.01-4.43-0.01-6.65c0-0.25-0.1-0.53-0.24-0.74c-1.29-1.89-2.59-3.77-3.89-5.65
						c-0.33-0.48-0.4-1-0.08-1.51c0.3-0.46,0.74-0.63,1.28-0.57c0.42,0.05,0.7,0.3,0.93,0.63c0.63,0.93,1.27,1.85,1.98,2.87
						c0.01-0.26,0.02-0.41,0.02-0.56c0-1.78-0.01-3.56,0-5.35c0-0.88,0.5-1.39,1.3-1.39c0.76,0,1.27,0.54,1.27,1.37
						c0.01,1.78,0,3.56,0,5.35c0,0.15,0,0.29,0,0.44c0.03,0.01,0.06,0.03,0.08,0.04c0.1-0.13,0.2-0.27,0.29-0.4
						c0.54-0.78,1.06-1.56,1.61-2.33c0.51-0.72,1.26-0.9,1.89-0.47c0.62,0.43,0.72,1.22,0.22,1.94c-1.27,1.85-2.56,3.68-3.81,5.54
						c-0.16,0.24-0.27,0.57-0.27,0.86c-0.02,2.23-0.01,4.46-0.01,6.69c0,0.09,0.01,0.17,0.02,0.33c0.58-0.33,1.12-0.63,1.66-0.94
						c1.49-0.86,2.98-1.71,4.46-2.59c0.21-0.13,0.42-0.34,0.53-0.56c1.01-2.07,1.99-4.15,2.98-6.22c0.35-0.74,1.04-1.03,1.73-0.71
						c0.66,0.3,0.93,1.02,0.61,1.74c-0.48,1.06-0.99,2.1-1.54,3.28c0.48-0.27,0.84-0.47,1.21-0.68c1.31-0.75,2.61-1.51,3.92-2.26
						c0.72-0.42,1.5-0.25,1.88,0.4s0.14,1.39-0.6,1.82c-1.51,0.88-3.03,1.75-4.54,2.62c-0.15,0.09-0.3,0.18-0.56,0.35
						c0.69,0.06,1.25,0.12,1.82,0.16c0.54,0.04,1.08,0.06,1.61,0.1c0.69,0.05,1.17,0.4,1.33,0.96c0.14,0.5,0,1.08-0.45,1.35
						c-0.29,0.17-0.67,0.28-1,0.26c-2.09-0.14-4.18-0.3-6.26-0.5c-0.72-0.07-1.32,0.09-1.93,0.46c-1.77,1.06-3.56,2.07-5.35,3.11
						c-0.05,0.03-0.09,0.07-0.19,0.14c0.79,0.46,1.54,0.9,2.29,1.33c1.28,0.74,2.56,1.49,3.85,2.21c0.21,0.12,0.48,0.19,0.71,0.17
						c2.31-0.17,4.62-0.37,6.93-0.55c0.81-0.06,1.41,0.44,1.44,1.19c0.04,0.76-0.5,1.31-1.29,1.37c-1.13,0.08-2.26,0.18-3.54,0.28
						c0.48,0.28,0.85,0.5,1.21,0.71c1.33,0.77,2.67,1.54,4,2.31c0.53,0.31,0.76,0.81,0.66,1.36c-0.09,0.55-0.48,0.98-1.09,1.03
						c-0.33,0.03-0.71-0.1-1-0.27c-1.55-0.87-3.09-1.77-4.63-2.65c-0.1-0.06-0.21-0.11-0.4-0.22c0.09,0.23,0.15,0.37,0.21,0.51
						c0.44,0.93,0.9,1.86,1.32,2.8c0.27,0.6,0.07,1.23-0.45,1.58c-0.48,0.32-1.16,0.29-1.57-0.12c-0.18-0.18-0.32-0.43-0.44-0.67
						c-0.97-2.03-1.94-4.07-2.91-6.11c-0.07-0.15-0.19-0.32-0.33-0.4c-2.03-1.18-4.06-2.35-6.09-3.53
						C-82.79-74.13-82.85-74.15-82.96-74.19z"/>
				</g>
			</g>
		</g>
	</g>
	<g id="KNwPzr.tif_2_">
		<g>
			<g>
				<g>
					<path class="st0" d="M-56.72-101.27c0.07,0.03,0.11,0.04,0.14,0.05c1.29,0.74,2.57,1.48,3.86,2.23
						c0.09,0.05,0.16,0.16,0.21,0.25c0.62,1.29,1.23,2.58,1.84,3.87c0.07,0.15,0.16,0.31,0.28,0.42c0.26,0.26,0.69,0.28,1,0.08
						c0.33-0.22,0.46-0.63,0.29-1c-0.27-0.59-0.56-1.18-0.84-1.77c-0.04-0.09-0.08-0.18-0.13-0.32c0.12,0.07,0.19,0.1,0.25,0.14
						c0.98,0.56,1.95,1.13,2.93,1.68c0.19,0.1,0.43,0.19,0.64,0.17c0.39-0.03,0.63-0.31,0.69-0.65c0.06-0.35-0.08-0.66-0.42-0.86
						c-0.84-0.49-1.69-0.98-2.53-1.47c-0.23-0.13-0.46-0.27-0.77-0.45c0.81-0.06,1.52-0.12,2.24-0.18c0.5-0.04,0.84-0.39,0.82-0.87
						s-0.4-0.8-0.91-0.76c-1.46,0.12-2.93,0.24-4.39,0.35c-0.15,0.01-0.32-0.04-0.45-0.11c-0.82-0.46-1.63-0.93-2.44-1.4
						c-0.48-0.28-0.95-0.55-1.45-0.84c0.06-0.05,0.09-0.07,0.12-0.09c1.13-0.65,2.27-1.29,3.39-1.97c0.39-0.23,0.77-0.34,1.22-0.29
						c1.32,0.13,2.64,0.23,3.97,0.32c0.21,0.01,0.45-0.06,0.64-0.16c0.28-0.17,0.38-0.54,0.29-0.86c-0.1-0.35-0.4-0.57-0.84-0.61
						c-0.34-0.02-0.68-0.04-1.02-0.06c-0.36-0.03-0.71-0.06-1.15-0.1c0.17-0.1,0.26-0.16,0.35-0.22c0.96-0.55,1.92-1.11,2.88-1.66
						c0.46-0.27,0.62-0.74,0.38-1.15c-0.24-0.41-0.73-0.52-1.19-0.25c-0.83,0.48-1.66,0.96-2.48,1.43
						c-0.23,0.13-0.46,0.26-0.76,0.43c0.35-0.74,0.67-1.4,0.98-2.07c0.21-0.46,0.03-0.91-0.39-1.1c-0.44-0.2-0.87-0.02-1.1,0.45
						c-0.63,1.32-1.25,2.63-1.89,3.94c-0.07,0.14-0.2,0.28-0.33,0.36c-0.94,0.56-1.88,1.1-2.82,1.64c-0.34,0.2-0.68,0.39-1.05,0.6
						c-0.01-0.1-0.01-0.16-0.01-0.21c0-1.41-0.01-2.83,0.01-4.24c0-0.18,0.07-0.39,0.17-0.54c0.8-1.18,1.61-2.34,2.42-3.51
						c0.32-0.46,0.25-0.96-0.14-1.23c-0.4-0.27-0.88-0.16-1.2,0.3c-0.34,0.49-0.68,0.98-1.02,1.47c-0.06,0.09-0.12,0.17-0.19,0.25
						c-0.02-0.01-0.04-0.02-0.05-0.03c0-0.09,0-0.18,0-0.28c0-1.13,0-2.26,0-3.39c0-0.52-0.32-0.86-0.81-0.87
						c-0.5,0-0.82,0.33-0.82,0.88c-0.01,1.13,0,2.26,0,3.39c0,0.1-0.01,0.19-0.02,0.35c-0.45-0.65-0.85-1.23-1.25-1.82
						c-0.15-0.21-0.33-0.37-0.59-0.4c-0.34-0.04-0.62,0.07-0.81,0.36c-0.21,0.32-0.16,0.65,0.05,0.96c0.82,1.19,1.65,2.38,2.47,3.58
						c0.09,0.13,0.15,0.31,0.15,0.47c0.01,1.4,0.01,2.81,0.01,4.21c0,0.08-0.01,0.16-0.01,0.28c-0.11-0.06-0.19-0.09-0.27-0.14
						c-1.21-0.7-2.41-1.39-3.61-2.09c-0.14-0.08-0.26-0.22-0.33-0.36c-0.64-1.33-1.27-2.66-1.91-3.99
						c-0.21-0.43-0.66-0.58-1.08-0.38c-0.4,0.19-0.56,0.63-0.39,1.05c0.05,0.13,0.12,0.26,0.18,0.39c0.26,0.55,0.52,1.1,0.81,1.72
						c-0.11-0.06-0.16-0.08-0.2-0.11c-1.01-0.58-2.02-1.16-3.03-1.74c-0.48-0.28-0.97-0.17-1.21,0.26c-0.23,0.42-0.07,0.88,0.4,1.15
						c0.65,0.38,1.3,0.75,1.94,1.12c0.4,0.23,0.81,0.47,1.21,0.7c-0.12,0.07-0.22,0.08-0.32,0.08c-0.63,0.05-1.27,0.07-1.9,0.15
						c-0.5,0.06-0.82,0.47-0.76,0.89c0.07,0.48,0.44,0.76,0.96,0.72c0.35-0.03,0.7-0.06,1.05-0.09c1.11-0.08,2.21-0.17,3.32-0.24
						c0.15-0.01,0.32,0.03,0.45,0.1c1.02,0.58,2.04,1.16,3.05,1.75c0.27,0.16,0.54,0.32,0.84,0.5c-1.36,0.79-2.68,1.55-4,2.31
						c-0.09,0.05-0.22,0.07-0.33,0.06c-1.45-0.11-2.91-0.23-4.36-0.35c-0.54-0.04-0.94,0.26-0.98,0.75
						c-0.04,0.47,0.34,0.83,0.88,0.87c0.7,0.05,1.39,0.11,2.16,0.17c-0.15,0.1-0.23,0.15-0.32,0.2c-0.97,0.56-1.93,1.11-2.9,1.67
						c-0.47,0.27-0.63,0.74-0.39,1.15c0.26,0.44,0.72,0.54,1.2,0.26c0.62-0.35,1.23-0.71,1.84-1.07c0.44-0.25,0.88-0.5,1.38-0.79
						c-0.07,0.16-0.1,0.24-0.14,0.32c-0.27,0.56-0.54,1.13-0.8,1.69c-0.22,0.48-0.07,0.95,0.37,1.15c0.43,0.2,0.87,0.02,1.1-0.46
						c0.63-1.31,1.25-2.63,1.88-3.94c0.06-0.13,0.17-0.26,0.29-0.33c1.23-0.72,2.47-1.43,3.71-2.15c0.06-0.03,0.13-0.05,0.22-0.09
						c0,1.07,0,2.1,0,3.14c0,0.53,0.1,1.1-0.05,1.58c-0.15,0.48-0.56,0.89-0.86,1.32c-0.58,0.84-1.16,1.68-1.74,2.53
						c-0.27,0.4-0.18,0.87,0.18,1.13c0.38,0.27,0.82,0.2,1.13-0.18c0.09-0.11,0.16-0.23,0.24-0.35c0.34-0.49,0.68-0.99,1.03-1.48
						c0.02,0.01,0.04,0.01,0.06,0.02c0,0.1,0,0.2,0,0.3c0,1.09-0.01,2.18,0.01,3.27c0,0.21,0.05,0.44,0.15,0.62
						c0.18,0.32,0.56,0.42,0.92,0.31c0.33-0.09,0.55-0.41,0.55-0.81c0-1.15,0-2.3,0-3.44c0-0.09,0.01-0.18,0.02-0.33
						c0.1,0.15,0.17,0.24,0.23,0.33c0.35,0.51,0.7,1.03,1.06,1.54c0.21,0.29,0.55,0.42,0.84,0.34c0.62-0.18,0.83-0.77,0.46-1.32
						c-0.83-1.21-1.66-2.42-2.49-3.63c-0.06-0.08-0.12-0.18-0.12-0.28C-56.72-98.17-56.72-99.7-56.72-101.27z"/>
				</g>
			</g>
			<g>
				<g>
					<path class="st0" d="M-56.72-101.27c0,1.57,0,3.09,0.01,4.62c0,0.09,0.06,0.2,0.12,0.28c0.83,1.21,1.66,2.42,2.49,3.63
						c0.37,0.54,0.16,1.14-0.46,1.32c-0.29,0.08-0.63-0.05-0.84-0.34c-0.36-0.51-0.71-1.03-1.06-1.54
						c-0.06-0.09-0.13-0.18-0.23-0.33c-0.01,0.15-0.02,0.24-0.02,0.33c0,1.15,0,2.3,0,3.44c0,0.4-0.22,0.71-0.55,0.81
						c-0.37,0.11-0.74,0-0.92-0.31c-0.1-0.18-0.15-0.41-0.15-0.62c-0.01-1.09-0.01-2.18-0.01-3.27c0-0.1,0-0.2,0-0.3
						c-0.02-0.01-0.04-0.01-0.06-0.02c-0.34,0.49-0.68,0.99-1.03,1.48c-0.08,0.12-0.16,0.24-0.24,0.35
						c-0.31,0.38-0.75,0.45-1.13,0.18c-0.36-0.26-0.45-0.73-0.18-1.13c0.57-0.85,1.16-1.69,1.74-2.53c0.3-0.44,0.71-0.84,0.86-1.32
						c0.15-0.49,0.05-1.05,0.05-1.58c0-1.03,0-2.07,0-3.14c-0.1,0.04-0.16,0.06-0.22,0.09c-1.24,0.71-2.48,1.42-3.71,2.15
						c-0.12,0.07-0.23,0.2-0.29,0.33c-0.63,1.31-1.25,2.63-1.88,3.94c-0.23,0.47-0.67,0.65-1.1,0.46c-0.44-0.2-0.59-0.67-0.37-1.15
						c0.26-0.57,0.54-1.13,0.8-1.69c0.04-0.08,0.07-0.17,0.14-0.32c-0.5,0.29-0.94,0.54-1.38,0.79c-0.62,0.35-1.23,0.71-1.84,1.07
						c-0.48,0.28-0.94,0.18-1.2-0.26c-0.24-0.4-0.08-0.87,0.39-1.15c0.97-0.56,1.93-1.12,2.9-1.67c0.09-0.05,0.17-0.11,0.32-0.2
						c-0.77-0.06-1.47-0.12-2.16-0.17c-0.54-0.04-0.92-0.4-0.88-0.87c0.04-0.49,0.44-0.8,0.98-0.75c1.45,0.12,2.91,0.24,4.36,0.35
						c0.11,0.01,0.24-0.01,0.33-0.06c1.32-0.76,2.64-1.52,4-2.31c-0.3-0.18-0.57-0.34-0.84-0.5c-1.02-0.59-2.03-1.18-3.05-1.75
						c-0.13-0.07-0.3-0.11-0.45-0.1c-1.11,0.07-2.21,0.16-3.32,0.24c-0.35,0.03-0.7,0.06-1.05,0.09c-0.52,0.04-0.89-0.24-0.96-0.72
						c-0.06-0.43,0.25-0.83,0.76-0.89c0.63-0.08,1.26-0.1,1.9-0.15c0.1-0.01,0.2-0.02,0.32-0.08c-0.4-0.23-0.8-0.47-1.21-0.7
						c-0.65-0.37-1.3-0.75-1.94-1.12c-0.47-0.27-0.63-0.73-0.4-1.15c0.24-0.43,0.72-0.54,1.21-0.26c1.01,0.58,2.02,1.16,3.03,1.74
						c0.05,0.03,0.09,0.05,0.2,0.11c-0.29-0.61-0.55-1.17-0.81-1.72c-0.06-0.13-0.13-0.25-0.18-0.39c-0.17-0.43,0-0.87,0.39-1.05
						c0.42-0.2,0.87-0.05,1.08,0.38c0.64,1.33,1.27,2.67,1.91,3.99c0.07,0.14,0.19,0.28,0.33,0.36c1.2,0.71,2.41,1.4,3.61,2.09
						c0.08,0.05,0.16,0.08,0.27,0.14c0.01-0.11,0.01-0.2,0.01-0.28c0-1.4,0.01-2.81-0.01-4.21c0-0.16-0.06-0.34-0.15-0.47
						c-0.82-1.2-1.64-2.39-2.47-3.58c-0.21-0.31-0.26-0.63-0.05-0.96c0.19-0.29,0.47-0.4,0.81-0.36c0.27,0.03,0.45,0.19,0.59,0.4
						c0.4,0.59,0.81,1.17,1.25,1.82c0.01-0.16,0.02-0.26,0.02-0.35c0-1.13,0-2.26,0-3.39c0-0.55,0.32-0.88,0.82-0.88
						c0.48,0,0.81,0.34,0.81,0.87c0,1.13,0,2.26,0,3.39c0,0.09,0,0.18,0,0.28c0.02,0.01,0.04,0.02,0.05,0.03
						c0.06-0.08,0.13-0.17,0.19-0.25c0.34-0.49,0.67-0.99,1.02-1.47c0.32-0.46,0.8-0.57,1.2-0.3s0.46,0.77,0.14,1.23
						c-0.8,1.17-1.62,2.33-2.42,3.51c-0.1,0.15-0.17,0.36-0.17,0.54c-0.01,1.41-0.01,2.83-0.01,4.24c0,0.06,0.01,0.11,0.01,0.21
						c0.37-0.21,0.71-0.4,1.05-0.6c0.94-0.54,1.89-1.08,2.82-1.64c0.14-0.08,0.26-0.22,0.33-0.36c0.64-1.31,1.26-2.63,1.89-3.94
						c0.22-0.47,0.66-0.65,1.1-0.45c0.42,0.19,0.59,0.65,0.39,1.1c-0.3,0.67-0.62,1.33-0.98,2.07c0.3-0.17,0.53-0.3,0.76-0.43
						c0.83-0.48,1.66-0.95,2.48-1.43c0.46-0.26,0.95-0.16,1.19,0.25c0.24,0.41,0.09,0.88-0.38,1.15c-0.96,0.56-1.92,1.11-2.88,1.66
						c-0.1,0.06-0.19,0.12-0.35,0.22c0.44,0.04,0.79,0.07,1.15,0.1c0.34,0.03,0.68,0.04,1.02,0.06c0.44,0.03,0.74,0.25,0.84,0.61
						c0.09,0.32,0,0.69-0.29,0.86c-0.18,0.11-0.43,0.18-0.64,0.16c-1.32-0.09-2.65-0.19-3.97-0.32c-0.46-0.04-0.83,0.06-1.22,0.29
						c-1.12,0.67-2.26,1.31-3.39,1.97c-0.03,0.02-0.06,0.04-0.12,0.09c0.5,0.29,0.97,0.57,1.45,0.84c0.81,0.47,1.62,0.94,2.44,1.4
						c0.13,0.07,0.3,0.12,0.45,0.11c1.46-0.11,2.93-0.24,4.39-0.35c0.51-0.04,0.89,0.28,0.91,0.76s-0.32,0.83-0.82,0.87
						c-0.72,0.05-1.43,0.11-2.24,0.18c0.31,0.18,0.54,0.31,0.77,0.45c0.84,0.49,1.69,0.97,2.53,1.47c0.34,0.2,0.48,0.51,0.42,0.86
						s-0.3,0.62-0.69,0.65c-0.21,0.02-0.45-0.06-0.64-0.17c-0.98-0.55-1.95-1.12-2.93-1.68c-0.06-0.04-0.13-0.07-0.25-0.14
						c0.06,0.14,0.09,0.24,0.13,0.32c0.28,0.59,0.57,1.18,0.84,1.77c0.17,0.38,0.04,0.78-0.29,1c-0.3,0.2-0.73,0.18-1-0.08
						c-0.12-0.12-0.2-0.27-0.28-0.42c-0.62-1.29-1.23-2.58-1.84-3.87c-0.05-0.1-0.12-0.2-0.21-0.25c-1.28-0.75-2.57-1.49-3.86-2.23
						C-56.61-101.23-56.65-101.24-56.72-101.27z"/>
				</g>
			</g>
		</g>
	</g>
	<g id="KNwPzr.tif_1_">
		<g>
			<g>
				<g>
					<path class="st0" d="M-84.79-112.69c0.05,0.02,0.08,0.03,0.1,0.04c0.96,0.56,1.93,1.11,2.88,1.67
						c0.07,0.04,0.12,0.12,0.15,0.19c0.46,0.96,0.92,1.93,1.38,2.89c0.05,0.11,0.12,0.23,0.21,0.32c0.2,0.2,0.52,0.21,0.74,0.06
						c0.25-0.17,0.34-0.47,0.22-0.75c-0.2-0.44-0.42-0.88-0.63-1.32c-0.03-0.07-0.06-0.13-0.1-0.24c0.09,0.05,0.14,0.08,0.19,0.1
						c0.73,0.42,1.46,0.85,2.19,1.26c0.14,0.08,0.32,0.14,0.48,0.13c0.29-0.02,0.47-0.23,0.52-0.49c0.04-0.26-0.06-0.49-0.31-0.64
						c-0.63-0.37-1.26-0.73-1.89-1.1c-0.17-0.1-0.35-0.2-0.58-0.34c0.6-0.05,1.14-0.09,1.67-0.13c0.37-0.03,0.63-0.29,0.61-0.65
						s-0.3-0.6-0.68-0.57c-1.09,0.09-2.19,0.18-3.28,0.26c-0.11,0.01-0.24-0.03-0.34-0.08c-0.61-0.34-1.22-0.7-1.82-1.05
						c-0.36-0.21-0.71-0.41-1.09-0.63c0.05-0.04,0.07-0.05,0.09-0.07c0.85-0.49,1.7-0.97,2.53-1.47c0.29-0.17,0.57-0.25,0.91-0.22
						c0.99,0.1,1.98,0.17,2.97,0.24c0.16,0.01,0.34-0.04,0.48-0.12c0.21-0.13,0.28-0.4,0.21-0.64c-0.08-0.26-0.3-0.43-0.63-0.45
						c-0.25-0.02-0.51-0.03-0.76-0.05c-0.27-0.02-0.53-0.05-0.86-0.07c0.12-0.08,0.19-0.12,0.27-0.16c0.72-0.41,1.43-0.83,2.15-1.24
						c0.35-0.2,0.46-0.56,0.28-0.86c-0.18-0.31-0.55-0.39-0.89-0.19c-0.62,0.36-1.24,0.71-1.86,1.07c-0.17,0.1-0.35,0.2-0.57,0.32
						c0.26-0.56,0.5-1.05,0.73-1.55c0.15-0.34,0.02-0.68-0.29-0.82c-0.33-0.15-0.65-0.01-0.82,0.34c-0.47,0.98-0.94,1.97-1.41,2.95
						c-0.05,0.11-0.15,0.21-0.25,0.27c-0.7,0.42-1.41,0.82-2.11,1.23c-0.25,0.15-0.51,0.29-0.78,0.45c0-0.08-0.01-0.12-0.01-0.16
						c0-1.06,0-2.11,0.01-3.17c0-0.14,0.05-0.29,0.13-0.41c0.6-0.88,1.2-1.75,1.81-2.62c0.24-0.34,0.19-0.72-0.11-0.92
						s-0.66-0.12-0.9,0.22c-0.26,0.37-0.51,0.73-0.76,1.1c-0.04,0.06-0.09,0.13-0.14,0.19c-0.01-0.01-0.03-0.01-0.04-0.02
						c0-0.07,0-0.14,0-0.21c0-0.84,0-1.69,0-2.53c0-0.39-0.24-0.65-0.6-0.65c-0.38,0-0.61,0.24-0.61,0.66c0,0.84,0,1.69,0,2.53
						c0,0.07-0.01,0.14-0.01,0.26c-0.34-0.49-0.64-0.92-0.94-1.36c-0.11-0.16-0.24-0.28-0.44-0.3c-0.25-0.03-0.47,0.05-0.61,0.27
						c-0.16,0.24-0.12,0.49,0.04,0.72c0.61,0.89,1.23,1.78,1.84,2.68c0.07,0.1,0.11,0.23,0.11,0.35c0.01,1.05,0.01,2.1,0,3.15
						c0,0.06-0.01,0.12-0.01,0.21c-0.08-0.04-0.14-0.07-0.2-0.1c-0.9-0.52-1.8-1.04-2.7-1.56c-0.1-0.06-0.19-0.16-0.25-0.27
						c-0.48-0.99-0.95-1.99-1.43-2.98c-0.16-0.32-0.49-0.43-0.81-0.29c-0.3,0.14-0.42,0.47-0.29,0.79c0.04,0.1,0.09,0.19,0.13,0.29
						c0.19,0.41,0.39,0.83,0.61,1.28c-0.08-0.04-0.12-0.06-0.15-0.08c-0.75-0.43-1.51-0.87-2.26-1.3c-0.36-0.21-0.72-0.12-0.9,0.2
						c-0.17,0.31-0.05,0.65,0.3,0.86c0.48,0.28,0.97,0.56,1.45,0.84c0.3,0.17,0.6,0.35,0.9,0.52c-0.09,0.05-0.16,0.06-0.24,0.06
						c-0.47,0.04-0.95,0.05-1.42,0.11c-0.38,0.05-0.61,0.35-0.57,0.67c0.05,0.36,0.33,0.57,0.72,0.54c0.26-0.02,0.52-0.05,0.78-0.07
						c0.83-0.06,1.65-0.13,2.48-0.18c0.11-0.01,0.24,0.02,0.33,0.07c0.76,0.43,1.52,0.87,2.28,1.31c0.2,0.12,0.41,0.24,0.63,0.37
						c-1.02,0.59-2,1.16-2.99,1.73c-0.07,0.04-0.16,0.05-0.24,0.04c-1.09-0.08-2.17-0.17-3.26-0.26c-0.41-0.03-0.7,0.19-0.73,0.56
						c-0.03,0.35,0.25,0.62,0.66,0.65c0.52,0.04,1.04,0.08,1.62,0.13c-0.11,0.07-0.17,0.11-0.24,0.15
						c-0.72,0.42-1.45,0.83-2.17,1.25c-0.35,0.2-0.47,0.56-0.29,0.86c0.19,0.33,0.54,0.4,0.9,0.19c0.46-0.26,0.92-0.53,1.38-0.8
						c0.33-0.19,0.66-0.38,1.03-0.59c-0.05,0.12-0.07,0.18-0.1,0.24c-0.2,0.42-0.4,0.84-0.6,1.27c-0.17,0.36-0.05,0.71,0.28,0.86
						c0.32,0.15,0.65,0.01,0.82-0.34c0.47-0.98,0.93-1.97,1.41-2.95c0.05-0.1,0.13-0.19,0.22-0.24c0.92-0.54,1.85-1.07,2.77-1.61
						c0.04-0.03,0.09-0.04,0.17-0.07c0,0.8,0,1.57,0,2.35c0,0.4,0.08,0.82-0.04,1.18c-0.11,0.36-0.42,0.66-0.64,0.99
						c-0.43,0.63-0.87,1.26-1.3,1.89c-0.2,0.3-0.14,0.65,0.14,0.85s0.61,0.15,0.84-0.14c0.07-0.08,0.12-0.17,0.18-0.26
						c0.26-0.37,0.51-0.74,0.77-1.11c0.02,0,0.03,0.01,0.05,0.01c0,0.07,0,0.15,0,0.22c0,0.82-0.01,1.63,0,2.45
						c0,0.16,0.04,0.33,0.11,0.46c0.13,0.24,0.42,0.31,0.69,0.23c0.24-0.07,0.41-0.31,0.41-0.6c0-0.86,0-1.72,0-2.57
						c0-0.07,0.01-0.13,0.01-0.25c0.08,0.11,0.13,0.18,0.17,0.24c0.27,0.38,0.53,0.77,0.8,1.15c0.15,0.22,0.41,0.31,0.63,0.25
						c0.47-0.13,0.62-0.58,0.34-0.99c-0.62-0.9-1.24-1.81-1.86-2.71c-0.04-0.06-0.09-0.14-0.09-0.21
						C-84.79-110.38-84.79-111.52-84.79-112.69z"/>
				</g>
			</g>
			<g>
				<g>
					<path class="st0" d="M-84.79-112.69c0,1.17,0,2.31,0,3.45c0,0.07,0.04,0.15,0.09,0.21c0.62,0.91,1.24,1.81,1.86,2.71
						c0.28,0.41,0.12,0.85-0.34,0.99c-0.22,0.06-0.47-0.04-0.63-0.25c-0.27-0.38-0.53-0.77-0.8-1.15c-0.05-0.07-0.1-0.14-0.17-0.24
						c-0.01,0.11-0.01,0.18-0.01,0.25c0,0.86,0,1.72,0,2.57c0,0.3-0.17,0.53-0.41,0.6c-0.27,0.08-0.56,0-0.69-0.23
						c-0.08-0.13-0.11-0.31-0.11-0.46c-0.01-0.82,0-1.63,0-2.45c0-0.07,0-0.15,0-0.22c-0.02,0-0.03-0.01-0.05-0.01
						c-0.26,0.37-0.51,0.74-0.77,1.11c-0.06,0.09-0.12,0.18-0.18,0.26c-0.23,0.29-0.56,0.34-0.84,0.14
						c-0.27-0.2-0.34-0.55-0.14-0.85c0.43-0.63,0.87-1.26,1.3-1.89c0.22-0.33,0.53-0.63,0.64-0.99s0.03-0.79,0.04-1.18
						c0-0.77,0-1.54,0-2.35c-0.07,0.03-0.12,0.05-0.17,0.07c-0.93,0.53-1.85,1.06-2.77,1.61c-0.09,0.05-0.17,0.15-0.22,0.24
						c-0.47,0.98-0.94,1.97-1.41,2.95c-0.17,0.35-0.5,0.49-0.82,0.34c-0.33-0.15-0.44-0.5-0.28-0.86c0.2-0.42,0.4-0.84,0.6-1.27
						c0.03-0.06,0.05-0.13,0.1-0.24c-0.38,0.22-0.7,0.4-1.03,0.59c-0.46,0.27-0.92,0.53-1.38,0.8c-0.36,0.21-0.7,0.13-0.9-0.19
						c-0.18-0.3-0.06-0.65,0.29-0.86c0.72-0.42,1.45-0.83,2.17-1.25c0.06-0.04,0.13-0.08,0.24-0.15c-0.58-0.05-1.1-0.09-1.62-0.13
						c-0.41-0.03-0.69-0.3-0.66-0.65c0.03-0.37,0.33-0.6,0.73-0.56c1.09,0.09,2.17,0.18,3.26,0.26c0.08,0.01,0.18,0,0.24-0.04
						c0.99-0.57,1.97-1.14,2.99-1.73c-0.22-0.13-0.43-0.25-0.63-0.37c-0.76-0.44-1.52-0.88-2.28-1.31c-0.1-0.05-0.22-0.08-0.33-0.07
						c-0.83,0.05-1.65,0.12-2.48,0.18c-0.26,0.02-0.52,0.05-0.78,0.07c-0.39,0.03-0.66-0.18-0.72-0.54
						c-0.05-0.32,0.19-0.62,0.57-0.67c0.47-0.06,0.95-0.08,1.42-0.11c0.08-0.01,0.15-0.01,0.24-0.06c-0.3-0.17-0.6-0.35-0.9-0.52
						c-0.48-0.28-0.97-0.56-1.45-0.84c-0.35-0.2-0.47-0.55-0.3-0.86c0.18-0.32,0.54-0.4,0.9-0.2c0.76,0.43,1.51,0.87,2.26,1.3
						c0.03,0.02,0.07,0.04,0.15,0.08c-0.22-0.46-0.41-0.87-0.61-1.28c-0.05-0.1-0.09-0.19-0.13-0.29c-0.13-0.32,0-0.65,0.29-0.79
						c0.31-0.15,0.65-0.03,0.81,0.29c0.48,0.99,0.95,1.99,1.43,2.98c0.05,0.11,0.15,0.21,0.25,0.27c0.9,0.53,1.8,1.05,2.7,1.56
						c0.06,0.03,0.12,0.06,0.2,0.1c0-0.08,0.01-0.15,0.01-0.21c0-1.05,0-2.1,0-3.15c0-0.12-0.05-0.25-0.11-0.35
						c-0.61-0.9-1.23-1.78-1.84-2.68c-0.16-0.23-0.19-0.47-0.04-0.72c0.14-0.22,0.35-0.3,0.61-0.27c0.2,0.02,0.33,0.14,0.44,0.3
						c0.3,0.44,0.6,0.87,0.94,1.36c0.01-0.12,0.01-0.19,0.01-0.26c0-0.84,0-1.69,0-2.53c0-0.41,0.24-0.66,0.61-0.66
						c0.36,0,0.6,0.26,0.6,0.65c0,0.84,0,1.69,0,2.53c0,0.07,0,0.14,0,0.21c0.01,0.01,0.03,0.01,0.04,0.02
						c0.05-0.06,0.09-0.13,0.14-0.19c0.25-0.37,0.5-0.74,0.76-1.1c0.24-0.34,0.6-0.43,0.9-0.22c0.3,0.2,0.34,0.58,0.11,0.92
						c-0.6,0.87-1.21,1.74-1.81,2.62c-0.08,0.11-0.13,0.27-0.13,0.41c-0.01,1.06-0.01,2.11-0.01,3.17c0,0.04,0,0.08,0.01,0.16
						c0.27-0.16,0.53-0.3,0.78-0.45c0.71-0.41,1.41-0.81,2.11-1.23c0.1-0.06,0.2-0.16,0.25-0.27c0.48-0.98,0.94-1.96,1.41-2.95
						c0.17-0.35,0.49-0.49,0.82-0.34c0.31,0.14,0.44,0.48,0.29,0.82c-0.23,0.5-0.47,0.99-0.73,1.55c0.23-0.13,0.4-0.22,0.57-0.32
						c0.62-0.36,1.24-0.71,1.86-1.07c0.34-0.2,0.71-0.12,0.89,0.19c0.18,0.31,0.06,0.66-0.28,0.86c-0.72,0.42-1.43,0.83-2.15,1.24
						c-0.07,0.04-0.14,0.09-0.27,0.16c0.33,0.03,0.59,0.05,0.86,0.07c0.25,0.02,0.51,0.03,0.76,0.05c0.33,0.02,0.55,0.19,0.63,0.45
						c0.07,0.24,0,0.51-0.21,0.64c-0.14,0.08-0.32,0.13-0.48,0.12c-0.99-0.07-1.98-0.14-2.97-0.24c-0.34-0.03-0.62,0.04-0.91,0.22
						c-0.84,0.5-1.69,0.98-2.53,1.47c-0.02,0.01-0.04,0.03-0.09,0.07c0.37,0.22,0.73,0.42,1.09,0.63c0.61,0.35,1.21,0.7,1.82,1.05
						c0.1,0.06,0.23,0.09,0.34,0.08c1.09-0.08,2.19-0.18,3.28-0.26c0.38-0.03,0.67,0.21,0.68,0.57c0.02,0.36-0.24,0.62-0.61,0.65
						c-0.54,0.04-1.07,0.08-1.67,0.13c0.23,0.13,0.4,0.24,0.58,0.34c0.63,0.37,1.26,0.73,1.89,1.1c0.25,0.15,0.36,0.38,0.31,0.64
						c-0.04,0.26-0.23,0.46-0.52,0.49c-0.15,0.01-0.34-0.05-0.48-0.13c-0.74-0.41-1.46-0.84-2.19-1.26c-0.05-0.03-0.1-0.05-0.19-0.1
						c0.04,0.11,0.07,0.18,0.1,0.24c0.21,0.44,0.43,0.88,0.63,1.32c0.13,0.28,0.03,0.58-0.22,0.75c-0.23,0.15-0.55,0.14-0.74-0.06
						c-0.09-0.09-0.15-0.2-0.21-0.32c-0.46-0.96-0.92-1.93-1.38-2.89c-0.03-0.07-0.09-0.15-0.15-0.19
						c-0.96-0.56-1.92-1.12-2.88-1.67C-84.71-112.66-84.74-112.67-84.79-112.69z"/>
				</g>
			</g>
		</g>
	</g>
</g>
<g>
	<g>
		<path class="st0" d="M1.04-28.46c0.73,0.45,1.8,0.82,2.93,0.82c1.67,0,2.64-0.88,2.64-2.16c0-1.18-0.68-1.86-2.38-2.51
			c-2.06-0.73-3.34-1.8-3.34-3.58c0-1.97,1.63-3.43,4.09-3.43c1.29,0,2.23,0.3,2.79,0.62l-0.45,1.33c-0.41-0.22-1.26-0.6-2.4-0.6
			c-1.73,0-2.38,1.03-2.38,1.89c0,1.18,0.77,1.76,2.51,2.44c2.14,0.83,3.23,1.86,3.23,3.71c0,1.95-1.44,3.64-4.43,3.64
			c-1.22,0-2.55-0.36-3.23-0.81L1.04-28.46z"/>
		<path class="st0" d="M18.05-28.94c0,0.94,0.02,1.76,0.08,2.48h-1.46l-0.09-1.48h-0.04c-0.43,0.73-1.39,1.69-3,1.69
			c-1.43,0-3.13-0.79-3.13-3.98v-5.31h1.65v5.03c0,1.73,0.53,2.89,2.03,2.89c1.11,0,1.88-0.77,2.18-1.5
			c0.09-0.24,0.15-0.54,0.15-0.84v-5.57h1.65v6.59H18.05z"/>
		<path class="st0" d="M20.72-26.47c0.04-0.62,0.08-1.54,0.08-2.34v-10.97h1.63v5.7h0.04c0.58-1.01,1.63-1.67,3.09-1.67
			c2.25,0,3.85,1.88,3.83,4.63c0,3.24-2.04,4.86-4.07,4.86c-1.31,0-2.36-0.51-3.04-1.71h-0.06l-0.08,1.5
			C22.14-26.47,20.72-26.47,20.72-26.47z M22.43-30.11c0,0.21,0.04,0.41,0.08,0.6c0.32,1.14,1.28,1.93,2.48,1.93
			c1.73,0,2.76-1.41,2.76-3.49c0-1.82-0.94-3.38-2.7-3.38c-1.13,0-2.18,0.77-2.51,2.03c-0.04,0.19-0.09,0.41-0.09,0.68v1.63H22.43z"
			/>
		<path class="st0" d="M31.47-33.09c0-0.94-0.02-1.71-0.08-2.46h1.44l0.08,1.46h0.06c0.51-0.86,1.35-1.67,2.85-1.67
			c1.24,0,2.18,0.75,2.57,1.82h0.04c0.28-0.51,0.64-0.9,1.01-1.18c0.54-0.41,1.14-0.64,2.01-0.64c1.2,0,2.98,0.79,2.98,3.94v5.35
			h-1.61v-5.14c0-1.74-0.64-2.79-1.97-2.79c-0.94,0-1.67,0.69-1.95,1.5c-0.08,0.23-0.13,0.53-0.13,0.83v5.61h-1.61v-5.44
			c0-1.44-0.64-2.5-1.9-2.5c-1.03,0-1.78,0.83-2.04,1.65c-0.09,0.24-0.13,0.53-0.13,0.81v5.48h-1.61L31.47-33.09L31.47-33.09z"/>
		<path class="st0" d="M48.03-30.71c0.04,2.23,1.46,3.15,3.11,3.15c1.18,0,1.89-0.21,2.51-0.47l0.28,1.18
			c-0.58,0.26-1.58,0.56-3.02,0.56c-2.8,0-4.46-1.84-4.46-4.58s1.61-4.9,4.26-4.9c2.96,0,3.75,2.61,3.75,4.28
			c0,0.34-0.04,0.6-0.06,0.77h-6.37V-30.71z M52.87-31.89c0.02-1.05-0.43-2.68-2.29-2.68c-1.67,0-2.4,1.54-2.53,2.68H52.87z"/>
		<path class="st0" d="M56.51-32.71c0-1.07-0.02-1.99-0.08-2.83h1.44l0.06,1.78h0.08c0.41-1.22,1.41-1.99,2.51-1.99
			c0.19,0,0.32,0.02,0.47,0.06v1.56c-0.17-0.04-0.34-0.06-0.56-0.06c-1.16,0-1.99,0.88-2.21,2.12c-0.04,0.23-0.08,0.49-0.08,0.77
			v4.84h-1.63C56.51-26.46,56.51-32.71,56.51-32.71z"/>
		<path class="st0" d="M62.42-28.16c0.49,0.32,1.35,0.66,2.17,0.66c1.2,0,1.76-0.6,1.76-1.35c0-0.79-0.47-1.22-1.69-1.67
			c-1.63-0.58-2.4-1.48-2.4-2.57c0-1.46,1.18-2.66,3.13-2.66c0.92,0,1.73,0.26,2.23,0.56l-0.41,1.2c-0.36-0.23-1.01-0.53-1.86-0.53
			c-0.98,0-1.52,0.56-1.52,1.24c0,0.75,0.54,1.09,1.73,1.54c1.58,0.6,2.38,1.39,2.38,2.74c0,1.59-1.24,2.72-3.4,2.72
			c-0.99,0-1.91-0.24-2.55-0.62L62.42-28.16z"/>
		<path class="st0" d="M71.92-38.1c0.02,0.56-0.39,1.01-1.05,1.01c-0.58,0-0.99-0.45-0.99-1.01c0-0.58,0.43-1.03,1.03-1.03
			C71.52-39.13,71.92-38.68,71.92-38.1z M70.08-26.47v-9.08h1.65v9.08H70.08z"/>
		<path class="st0" d="M74.39-26.47c0.04-0.62,0.08-1.54,0.08-2.34v-10.97h1.63v5.7h0.04c0.58-1.01,1.63-1.67,3.09-1.67
			c2.25,0,3.85,1.88,3.83,4.63c0,3.24-2.04,4.86-4.07,4.86c-1.31,0-2.36-0.51-3.04-1.71h-0.06l-0.07,1.5
			C75.82-26.47,74.39-26.47,74.39-26.47z M76.1-30.11c0,0.21,0.04,0.41,0.08,0.6c0.32,1.14,1.27,1.93,2.48,1.93
			c1.73,0,2.76-1.41,2.76-3.49c0-1.82-0.94-3.38-2.7-3.38c-1.12,0-2.18,0.77-2.51,2.03c-0.04,0.19-0.09,0.41-0.09,0.68v1.63H76.1z"
			/>
		<path class="st0" d="M85.14-39.79h1.65v13.32h-1.65V-39.79z"/>
		<path class="st0" d="M90.49-30.71c0.04,2.23,1.46,3.15,3.11,3.15c1.18,0,1.89-0.21,2.51-0.47l0.28,1.18
			c-0.58,0.26-1.58,0.56-3.02,0.56c-2.79,0-4.46-1.84-4.46-4.58s1.61-4.9,4.26-4.9c2.96,0,3.75,2.61,3.75,4.28
			c0,0.34-0.04,0.6-0.06,0.77h-6.37V-30.71z M95.33-31.89c0.02-1.05-0.43-2.68-2.29-2.68c-1.67,0-2.4,1.54-2.53,2.68H95.33z"/>
	</g>
	<g>
		<g>
			<path class="st0" d="M48.77-48.75c-22.86,0-41.46-18.6-41.46-41.46s18.6-41.46,41.46-41.46s41.46,18.6,41.46,41.46
				S71.64-48.75,48.77-48.75z M48.77-128.63c-21.18,0-38.42,17.23-38.42,38.42s17.23,38.42,38.42,38.42s38.42-17.23,38.42-38.42
				S69.96-128.63,48.77-128.63z"/>
		</g>
	</g>
	<g>
		<g>
			<path class="st0" d="M81.92-96.06c-1.88-0.25-3.29-2.1-3.02-3.97c0.27-1.9,1.71-3.13,3.68-3.16c0.58-0.01,0.98-0.31,1.06-0.79
				c0.08-0.5-0.17-0.94-0.73-1.09c-0.79-0.21-1.59-0.44-2.4-0.52c-4.83-0.5-9.36,2.2-11.29,6.66c-1.1,2.53-4.43,4.17-6.88,2.4
				c-1.17-0.84-1.8-2.39-1.51-3.8s1.52-2.59,2.95-2.79c0.55-0.07,1.18-0.05,1.55-0.46c0.29-0.33,0.26-0.89-0.05-1.19
				c-0.17-0.17-0.41-0.25-0.64-0.33c-2.33-0.75-4.9-0.72-7.2,0.13c-2.3,0.84-4.29,2.48-5.55,4.58c-0.65,1.08-1.11,2.31-2.01,3.2
				c-1.08,1.08-3.26,1.89-4.68,1.09c-1.32-0.75-2.17-2.41-1.96-3.92c0.27-1.9,1.71-3.13,3.68-3.16c0.58-0.01,0.98-0.31,1.06-0.79
				c0.08-0.5-0.17-0.94-0.73-1.09c-0.79-0.21-1.59-0.44-2.4-0.52c-4.83-0.5-9.36,2.2-11.29,6.66c-1.1,2.53-4.43,4.17-6.88,2.4
				c-1.17-0.84-1.8-2.39-1.51-3.8c0.29-1.41,1.52-2.59,2.95-2.79c0.55-0.07,1.18-0.05,1.55-0.46c0.29-0.33,0.26-0.89-0.05-1.19
				c-0.17-0.17-0.41-0.25-0.64-0.33c-2.33-0.75-4.9-0.72-7.2,0.13c-2.3,0.84-4.29,2.48-5.55,4.58c-0.65,1.08-1.11,2.31-2.01,3.2
				c-0.7,0.7-1.65,1.16-2.64,1.29c-0.38,0.05-0.78,0.06-1.14,0.19c-0.36,0.13-0.71,0.42-0.76,0.8c-0.06,0.47,0.34,0.89,0.8,1.02
				c0.45,0.13,0.94,0.03,1.39-0.08c1.29-0.32,2.59-0.76,3.57-1.66c1.14-1.06,1.67-2.59,2.5-3.9c1.53-2.38,4.21-4.02,7.04-4.16
				c-0.25,0.01-0.74,0.83-0.86,1.02c-0.27,0.42-0.48,0.88-0.64,1.35c-0.3,0.95-0.36,1.99-0.14,2.97c0.44,1.96,2.04,3.64,3.94,4.27
				c2.3,0.76,5.1-0.28,6.7-2.03c0.57-0.63,1.03-1.35,1.38-2.13c0.93-2.06,2.39-3.59,4.42-4.59c1.04-0.51,2.13-0.8,3.37-0.89
				c-1.19,1.17-1.83,2.52-1.82,4.13c0.01,1.62,0.62,2.98,1.81,4.06c0.83,0.76,1.79,1.43,2.91,1.66c1.6,0.33,3.91-0.7,5.07-1.78
				c1.14-1.06,1.67-2.59,2.5-3.9c1.53-2.38,4.21-4.02,7.04-4.16c-0.25,0.01-0.74,0.83-0.86,1.02c-0.27,0.42-0.48,0.88-0.64,1.35
				c-0.3,0.95-0.36,1.99-0.14,2.97c0.44,1.96,2.04,3.64,3.94,4.27c2.3,0.76,5.1-0.28,6.7-2.03c0.57-0.63,1.03-1.35,1.38-2.13
				c0.93-2.06,2.39-3.59,4.42-4.59c1.04-0.51,2.13-0.8,3.37-0.89c-1.19,1.17-1.83,2.52-1.82,4.13c0.01,1.62,0.62,2.98,1.81,4.06
				c1.03,0.94,2.25,1.42,3.64,1.42c0.55,0,3.32-0.33,4.75-1.9c1.93-2.12,0.8-3.42-1.18-1.63C85.22-96.68,83.26-95.88,81.92-96.06z"
				/>
		</g>
	</g>
	<g>
		<g>
			<polygon class="st0" points="53.23,-76.85 53.23,-88.31 44.32,-88.31 44.32,-76.85 39.58,-76.85 48.77,-60.92 57.97,-76.85 			
				"/>
		</g>
	</g>
</g>
<g>
	<g>
		<path class="st0" d="M132.78-38.94c0.99-0.15,2.18-0.26,3.47-0.26c2.34,0,4.01,0.54,5.12,1.58c1.13,1.03,1.78,2.49,1.78,4.54
			c0,2.06-0.64,3.75-1.82,4.91c-1.18,1.18-3.13,1.82-5.59,1.82c-1.16,0-2.14-0.06-2.96-0.15L132.78-38.94L132.78-38.94z
			 M134.41-27.76c0.41,0.08,1.01,0.09,1.65,0.09c3.49,0,5.38-1.95,5.38-5.36c0.02-2.98-1.67-4.88-5.12-4.88
			c-0.84,0-1.48,0.07-1.91,0.17V-27.76z"/>
		<path class="st0" d="M152.87-28.94c0,0.94,0.02,1.76,0.07,2.48h-1.46l-0.09-1.48h-0.04c-0.43,0.73-1.39,1.69-3,1.69
			c-1.43,0-3.13-0.79-3.13-3.98v-5.31h1.65v5.03c0,1.73,0.53,2.89,2.03,2.89c1.11,0,1.88-0.77,2.18-1.5
			c0.09-0.24,0.15-0.54,0.15-0.84v-5.57h1.65L152.87-28.94L152.87-28.94z"/>
		<path class="st0" d="M155.39-28.16c0.49,0.32,1.35,0.66,2.18,0.66c1.2,0,1.76-0.6,1.76-1.35c0-0.79-0.47-1.22-1.69-1.67
			c-1.63-0.58-2.4-1.48-2.4-2.57c0-1.46,1.18-2.66,3.13-2.66c0.92,0,1.73,0.26,2.23,0.56l-0.41,1.2c-0.36-0.23-1.01-0.53-1.86-0.53
			c-0.98,0-1.52,0.56-1.52,1.24c0,0.75,0.54,1.09,1.73,1.54c1.58,0.6,2.38,1.39,2.38,2.74c0,1.59-1.24,2.72-3.4,2.72
			c-0.99,0-1.91-0.24-2.55-0.62L155.39-28.16z"/>
		<path class="st0" d="M165.03-38.15v2.61h2.36v1.26h-2.36v4.9c0,1.13,0.32,1.76,1.24,1.76c0.43,0,0.75-0.06,0.96-0.11l0.07,1.24
			c-0.32,0.13-0.82,0.22-1.46,0.22c-0.77,0-1.39-0.24-1.78-0.69c-0.47-0.49-0.64-1.29-0.64-2.36v-4.95h-1.41v-1.26h1.41v-2.18
			L165.03-38.15z"/>
		<path class="st0" d="M173.29-38.96c0.79-0.13,1.82-0.24,3.13-0.24c1.61,0,2.8,0.37,3.55,1.05c0.69,0.6,1.11,1.52,1.11,2.65
			c0,1.14-0.34,2.04-0.98,2.7c-0.86,0.92-2.27,1.39-3.86,1.39c-0.49,0-0.94-0.02-1.31-0.11v5.06h-1.63v-12.5H173.29z M174.92-32.86
			c0.36,0.09,0.81,0.13,1.35,0.13c1.97,0,3.17-0.96,3.17-2.7c0-1.67-1.18-2.48-2.98-2.48c-0.71,0-1.26,0.06-1.54,0.13L174.92-32.86
			L174.92-32.86z"/>
		<path class="st0" d="M182.91-32.71c0-1.07-0.02-1.99-0.08-2.83h1.44l0.06,1.78h0.08c0.41-1.22,1.41-1.99,2.51-1.99
			c0.19,0,0.32,0.02,0.47,0.06v1.56c-0.17-0.04-0.34-0.06-0.56-0.06c-1.16,0-1.99,0.88-2.21,2.12c-0.04,0.23-0.08,0.49-0.08,0.77
			v4.84h-1.63L182.91-32.71L182.91-32.71z"/>
		<path class="st0" d="M197.07-31.08c0,3.36-2.33,4.82-4.52,4.82c-2.46,0-4.35-1.8-4.35-4.67c0-3.04,1.99-4.82,4.5-4.82
			C195.31-35.75,197.07-33.86,197.07-31.08z M189.87-30.99c0,1.99,1.14,3.49,2.76,3.49c1.58,0,2.76-1.48,2.76-3.53
			c0-1.54-0.77-3.49-2.72-3.49C190.71-34.52,189.87-32.71,189.87-30.99z"/>
		<path class="st0" d="M207.37-31.08c0,3.36-2.33,4.82-4.52,4.82c-2.46,0-4.35-1.8-4.35-4.67c0-3.04,1.99-4.82,4.5-4.82
			C205.61-35.75,207.37-33.86,207.37-31.08z M200.17-30.99c0,1.99,1.14,3.49,2.76,3.49c1.58,0,2.76-1.48,2.76-3.53
			c0-1.54-0.77-3.49-2.72-3.49C201.01-34.52,200.17-32.71,200.17-30.99z"/>
		<path class="st0" d="M209.62-26.47v-7.82h-1.28v-1.26h1.28v-0.43c0-1.28,0.28-2.44,1.05-3.17c0.62-0.6,1.44-0.84,2.21-0.84
			c0.58,0,1.09,0.13,1.41,0.26l-0.23,1.28c-0.24-0.11-0.58-0.21-1.05-0.21c-1.41,0-1.76,1.24-1.76,2.63v0.49h2.19v1.26h-2.19v7.82
			L209.62-26.47L209.62-26.47z"/>
	</g>
	<g>
		<g>
			<path class="st0" d="M173.54-48.75c-22.86,0-41.46-18.6-41.46-41.46s18.6-41.46,41.46-41.46S215-113.07,215-90.21
				S196.4-48.75,173.54-48.75z M173.54-128.63c-21.18,0-38.42,17.23-38.42,38.42s17.23,38.42,38.42,38.42s38.42-17.23,38.42-38.42
				S194.72-128.63,173.54-128.63z"/>
		</g>
	</g>
	<g>
		<g>
			<g>
				<circle class="st0" cx="198.02" cy="-103.72" r="5.74"/>
			</g>
		</g>
		<g>
			<g>
				<circle class="st0" cx="189.61" cy="-79.19" r="5.74"/>
			</g>
		</g>
		<g>
			<g>
				<circle class="st0" cx="171.26" cy="-102.7" r="5.74"/>
			</g>
		</g>
		<g>
			<g>
				<circle class="st0" cx="203.98" cy="-78.48" r="3.88"/>
			</g>
		</g>
		<g>
			<g>
				<circle class="st0" cx="176.6" cy="-87.33" r="3.88"/>
			</g>
		</g>
		<g>
			<g>
				<circle class="st0" cx="183.17" cy="-107.35" r="2.67"/>
			</g>
		</g>
		<g>
			<g>
				<circle class="st0" cx="193.94" cy="-89.95" r="2.67"/>
			</g>
		</g>
		<g>
			<g>
				<circle class="st0" cx="206.46" cy="-91.5" r="1.94"/>
			</g>
		</g>
		<g>
			<g>
				<circle class="st0" cx="183.9" cy="-96.96" r="1.94"/>
			</g>
		</g>
		<g>
			<g>
				<circle class="st0" cx="172.62" cy="-117.43" r="1.94"/>
			</g>
		</g>
		<g>
			<g>
				<circle class="st0" cx="166.28" cy="-87.11" r="1.94"/>
			</g>
		</g>
		<g>
			<g>
				<circle class="st0" cx="185.38" cy="-119.72" r="4.23"/>
			</g>
		</g>
	</g>
	<g>
		<g>
			<polygon class="st0" points="149.02,-87.6 145.1,-75.56 159.02,-75.56 			"/>
		</g>
	</g>
	<g>
		<g>
			<polygon class="st0" points="158.08,-64.16 151.66,-64.16 148.62,-77.72 155.04,-77.72 			"/>
		</g>
	</g>
	<g>
		<g>
			<polygon class="st0" points="157.8,-70.31 159.02,-64.16 173.32,-75.56 165.75,-77.72 			"/>
		</g>
	</g>
	<g>
		<g>
			<rect x="145.3" y="-63.63" class="st0" width="56.48" height="1.52"/>
		</g>
	</g>
</g>
<g>
	<g>
		<path class="st10" d="M9.24,105.03c0.99-0.15,2.18-0.26,3.47-0.26c2.34,0,4.01,0.54,5.12,1.58c1.13,1.03,1.78,2.5,1.78,4.54
			c0,2.06-0.64,3.75-1.82,4.91c-1.18,1.18-3.13,1.82-5.59,1.82c-1.16,0-2.14-0.06-2.96-0.15C9.24,117.47,9.24,105.03,9.24,105.03z
			 M10.88,116.2c0.41,0.08,1.01,0.09,1.65,0.09c3.49,0,5.38-1.95,5.38-5.36c0.02-2.98-1.67-4.88-5.12-4.88
			c-0.84,0-1.48,0.07-1.91,0.17V116.2z"/>
		<path class="st10" d="M29.33,115.02c0,0.94,0.02,1.76,0.07,2.48h-1.46l-0.09-1.48h-0.04c-0.43,0.73-1.39,1.69-3,1.69
			c-1.43,0-3.13-0.79-3.13-3.98v-5.31h1.65v5.03c0,1.73,0.53,2.89,2.03,2.89c1.11,0,1.88-0.77,2.18-1.5
			c0.09-0.24,0.15-0.54,0.15-0.84v-5.57h1.65L29.33,115.02L29.33,115.02z"/>
		<path class="st10" d="M31.85,115.81c0.49,0.32,1.35,0.66,2.18,0.66c1.2,0,1.76-0.6,1.76-1.35c0-0.79-0.47-1.22-1.69-1.67
			c-1.63-0.58-2.4-1.48-2.4-2.57c0-1.46,1.18-2.66,3.13-2.66c0.92,0,1.73,0.26,2.23,0.56l-0.41,1.2c-0.36-0.23-1.01-0.53-1.86-0.53
			c-0.98,0-1.52,0.56-1.52,1.24c0,0.75,0.54,1.09,1.73,1.54c1.58,0.6,2.38,1.39,2.38,2.74c0,1.59-1.24,2.72-3.4,2.72
			c-0.99,0-1.91-0.24-2.55-0.62L31.85,115.81z"/>
		<path class="st10" d="M41.49,105.81v2.61h2.36v1.26h-2.36v4.9c0,1.13,0.32,1.76,1.24,1.76c0.43,0,0.75-0.06,0.96-0.11l0.07,1.24
			c-0.32,0.13-0.82,0.22-1.46,0.22c-0.77,0-1.39-0.24-1.78-0.69c-0.47-0.49-0.64-1.29-0.64-2.36v-4.95h-1.41v-1.26h1.41v-2.18
			L41.49,105.81z"/>
		<path class="st10" d="M49.75,105.01c0.79-0.13,1.82-0.24,3.13-0.24c1.61,0,2.8,0.37,3.55,1.05c0.69,0.6,1.11,1.52,1.11,2.65
			c0,1.14-0.34,2.04-0.98,2.7c-0.86,0.92-2.27,1.39-3.86,1.39c-0.49,0-0.94-0.02-1.31-0.11v5.06h-1.63L49.75,105.01L49.75,105.01z
			 M51.38,111.1c0.36,0.09,0.81,0.13,1.35,0.13c1.97,0,3.17-0.96,3.17-2.7c0-1.67-1.18-2.48-2.98-2.48c-0.71,0-1.26,0.06-1.54,0.13
			V111.1z"/>
		<path class="st10" d="M59.37,111.25c0-1.07-0.02-1.99-0.08-2.83h1.44l0.06,1.78h0.08c0.41-1.22,1.41-1.99,2.51-1.99
			c0.19,0,0.32,0.02,0.47,0.06v1.56c-0.17-0.04-0.34-0.06-0.56-0.06c-1.16,0-1.99,0.88-2.21,2.12c-0.04,0.23-0.08,0.49-0.08,0.77
			v4.84h-1.63C59.37,117.5,59.37,111.25,59.37,111.25z"/>
		<path class="st10" d="M73.53,112.88c0,3.36-2.33,4.82-4.52,4.82c-2.46,0-4.35-1.8-4.35-4.67c0-3.04,1.99-4.82,4.5-4.82
			C71.77,108.21,73.53,110.11,73.53,112.88z M66.33,112.98c0,1.99,1.14,3.49,2.76,3.49c1.58,0,2.76-1.48,2.76-3.53
			c0-1.54-0.77-3.49-2.72-3.49C67.18,109.45,66.33,111.25,66.33,112.98z"/>
		<path class="st10" d="M83.83,112.88c0,3.36-2.33,4.82-4.52,4.82c-2.46,0-4.35-1.8-4.35-4.67c0-3.04,1.99-4.82,4.5-4.82
			C82.07,108.21,83.83,110.11,83.83,112.88z M76.63,112.98c0,1.99,1.14,3.49,2.76,3.49c1.58,0,2.76-1.48,2.76-3.53
			c0-1.54-0.77-3.49-2.72-3.49C77.48,109.45,76.63,111.25,76.63,112.98z"/>
		<path class="st10" d="M86.09,117.5v-7.82h-1.28v-1.26h1.28v-0.43c0-1.28,0.28-2.44,1.05-3.17c0.62-0.6,1.44-0.84,2.21-0.84
			c0.58,0,1.09,0.13,1.41,0.26l-0.23,1.28c-0.24-0.11-0.58-0.21-1.05-0.21c-1.41,0-1.76,1.24-1.76,2.63v0.49h2.19v1.26h-2.19v7.82
			h-1.63V117.5z"/>
	</g>
	<g>
		<g>
			<path class="st10" d="M50,95.22c-22.86,0-41.46-18.6-41.46-41.46S27.14,12.29,50,12.29s41.46,18.6,41.46,41.46
				S72.86,95.22,50,95.22z M50,15.34c-21.18,0-38.42,17.23-38.42,38.42S28.82,92.17,50,92.17s38.42-17.23,38.42-38.42
				S71.18,15.34,50,15.34z"/>
		</g>
	</g>
	<g>
		<g>
			<g>
				<circle class="st10" cx="74.48" cy="40.25" r="5.74"/>
			</g>
		</g>
		<g>
			<g>
				<circle class="st10" cx="66.07" cy="64.78" r="5.74"/>
			</g>
		</g>
		<g>
			<g>
				<circle class="st10" cx="47.73" cy="41.27" r="5.74"/>
			</g>
		</g>
		<g>
			<g>
				<circle class="st10" cx="80.44" cy="65.48" r="3.88"/>
			</g>
		</g>
		<g>
			<g>
				<circle class="st10" cx="53.06" cy="56.64" r="3.88"/>
			</g>
		</g>
		<g>
			<g>
				<circle class="st10" cx="59.63" cy="36.62" r="2.67"/>
			</g>
		</g>
		<g>
			<g>
				<circle class="st10" cx="70.4" cy="54.01" r="2.67"/>
			</g>
		</g>
		<g>
			<g>
				<circle class="st10" cx="82.92" cy="52.47" r="1.94"/>
			</g>
		</g>
		<g>
			<g>
				<circle class="st10" cx="60.36" cy="47.01" r="1.94"/>
			</g>
		</g>
		<g>
			<g>
				<circle class="st10" cx="49.09" cy="26.53" r="1.94"/>
			</g>
		</g>
		<g>
			<g>
				<circle class="st10" cx="42.74" cy="56.86" r="1.94"/>
			</g>
		</g>
		<g>
			<g>
				<circle class="st10" cx="61.84" cy="24.24" r="4.23"/>
			</g>
		</g>
	</g>
	<g>
		<g>
			<polygon class="st10" points="25.48,56.36 21.57,68.41 35.48,68.41 			"/>
		</g>
	</g>
	<g>
		<g>
			<polygon class="st10" points="34.55,79.81 28.12,79.81 25.08,66.24 31.5,66.24 			"/>
		</g>
	</g>
	<g>
		<g>
			<polygon class="st10" points="34.26,73.66 35.48,79.81 49.78,68.41 42.21,66.24 			"/>
		</g>
	</g>
	<g>
		<g>
			<rect x="21.76" y="80.33" class="st10" width="56.48" height="1.52"/>
		</g>
	</g>
</g>
</svg>
