<?xml version="1.0" encoding="utf-8"?>
<!-- Generator: Adobe Illustrator 24.2.1, SVG Export Plug-In . SVG Version: 6.00 Build 0)  -->
<svg version="1.1" id="Layer_1" xmlns="http://www.w3.org/2000/svg" xmlns:xlink="http://www.w3.org/1999/xlink" x="0px" y="0px"
	 viewBox="0 0 100 130" style="enable-background:new 0 0 100 130;" xml:space="preserve">
<style type="text/css">
	.st0{fill:#FFFFFF;}
</style>
<g>
	<g>
		<path class="st0" d="M9.2,105c1-0.2,2.2-0.3,3.5-0.3c2.3,0,4,0.5,5.1,1.6c1.1,1,1.8,2.5,1.8,4.5c0,2.1-0.6,3.8-1.8,4.9
			c-1.2,1.2-3.1,1.8-5.6,1.8c-1.2,0-2.1-0.1-3-0.2C9.2,117.5,9.2,105,9.2,105z M10.9,116.2c0.4,0.1,1,0.1,1.6,0.1
			c3.5,0,5.4-1.9,5.4-5.4c0-3-1.7-4.9-5.1-4.9c-0.8,0-1.5,0.1-1.9,0.2V116.2z"/>
		<path class="st0" d="M29.3,115c0,0.9,0,1.8,0.1,2.5h-1.5l-0.1-1.5h0c-0.4,0.7-1.4,1.7-3,1.7c-1.4,0-3.1-0.8-3.1-4v-5.3h1.6v5
			c0,1.7,0.5,2.9,2,2.9c1.1,0,1.9-0.8,2.2-1.5c0.1-0.2,0.1-0.5,0.1-0.8v-5.6h1.6L29.3,115L29.3,115z"/>
		<path class="st0" d="M31.9,115.8c0.5,0.3,1.4,0.7,2.2,0.7c1.2,0,1.8-0.6,1.8-1.3c0-0.8-0.5-1.2-1.7-1.7c-1.6-0.6-2.4-1.5-2.4-2.6
			c0-1.5,1.2-2.7,3.1-2.7c0.9,0,1.7,0.3,2.2,0.6l-0.4,1.2c-0.4-0.2-1-0.5-1.9-0.5c-1,0-1.5,0.6-1.5,1.2c0,0.8,0.5,1.1,1.7,1.5
			c1.6,0.6,2.4,1.4,2.4,2.7c0,1.6-1.2,2.7-3.4,2.7c-1,0-1.9-0.2-2.5-0.6L31.9,115.8z"/>
		<path class="st0" d="M41.5,105.8v2.6h2.4v1.3h-2.4v4.9c0,1.1,0.3,1.8,1.2,1.8c0.4,0,0.8-0.1,1-0.1l0.1,1.2
			c-0.3,0.1-0.8,0.2-1.5,0.2c-0.8,0-1.4-0.2-1.8-0.7c-0.5-0.5-0.6-1.3-0.6-2.4v-4.9h-1.4v-1.3h1.4v-2.2L41.5,105.8z"/>
		<path class="st0" d="M49.8,105c0.8-0.1,1.8-0.2,3.1-0.2c1.6,0,2.8,0.4,3.5,1.1c0.7,0.6,1.1,1.5,1.1,2.7c0,1.1-0.3,2-1,2.7
			c-0.9,0.9-2.3,1.4-3.9,1.4c-0.5,0-0.9,0-1.3-0.1v5.1h-1.6L49.8,105L49.8,105z M51.4,111.1c0.4,0.1,0.8,0.1,1.3,0.1
			c2,0,3.2-1,3.2-2.7c0-1.7-1.2-2.5-3-2.5c-0.7,0-1.3,0.1-1.5,0.1V111.1z"/>
		<path class="st0" d="M59.4,111.2c0-1.1,0-2-0.1-2.8h1.4l0.1,1.8h0.1c0.4-1.2,1.4-2,2.5-2c0.2,0,0.3,0,0.5,0.1v1.6
			c-0.2,0-0.3-0.1-0.6-0.1c-1.2,0-2,0.9-2.2,2.1c0,0.2-0.1,0.5-0.1,0.8v4.8h-1.6C59.4,117.5,59.4,111.2,59.4,111.2z"/>
		<path class="st0" d="M73.5,112.9c0,3.4-2.3,4.8-4.5,4.8c-2.5,0-4.3-1.8-4.3-4.7c0-3,2-4.8,4.5-4.8
			C71.8,108.2,73.5,110.1,73.5,112.9z M66.3,113c0,2,1.1,3.5,2.8,3.5c1.6,0,2.8-1.5,2.8-3.5c0-1.5-0.8-3.5-2.7-3.5
			C67.2,109.4,66.3,111.2,66.3,113z"/>
		<path class="st0" d="M83.8,112.9c0,3.4-2.3,4.8-4.5,4.8c-2.5,0-4.3-1.8-4.3-4.7c0-3,2-4.8,4.5-4.8
			C82.1,108.2,83.8,110.1,83.8,112.9z M76.6,113c0,2,1.1,3.5,2.8,3.5c1.6,0,2.8-1.5,2.8-3.5c0-1.5-0.8-3.5-2.7-3.5
			C77.5,109.4,76.6,111.2,76.6,113z"/>
		<path class="st0" d="M86.1,117.5v-7.8h-1.3v-1.3h1.3V108c0-1.3,0.3-2.4,1.1-3.2c0.6-0.6,1.4-0.8,2.2-0.8c0.6,0,1.1,0.1,1.4,0.3
			l-0.2,1.3c-0.2-0.1-0.6-0.2-1.1-0.2c-1.4,0-1.8,1.2-1.8,2.6v0.5h2.2v1.3h-2.2v7.8L86.1,117.5L86.1,117.5z"/>
	</g>
	<g>
		<g>
			<path class="st0" d="M50,95.2c-22.9,0-41.5-18.6-41.5-41.5S27.1,12.3,50,12.3s41.5,18.6,41.5,41.5S72.9,95.2,50,95.2z M50,15.3
				c-21.2,0-38.4,17.2-38.4,38.4S28.8,92.2,50,92.2s38.4-17.2,38.4-38.4S71.2,15.3,50,15.3z"/>
		</g>
	</g>
	<g>
		<g>
			<g>
				<circle class="st0" cx="74.5" cy="40.2" r="5.7"/>
			</g>
		</g>
		<g>
			<g>
				<circle class="st0" cx="66.1" cy="64.8" r="5.7"/>
			</g>
		</g>
		<g>
			<g>
				<circle class="st0" cx="47.7" cy="41.3" r="5.7"/>
			</g>
		</g>
		<g>
			<g>
				<circle class="st0" cx="80.4" cy="65.5" r="3.9"/>
			</g>
		</g>
		<g>
			<g>
				<circle class="st0" cx="53.1" cy="56.6" r="3.9"/>
			</g>
		</g>
		<g>
			<g>
				<circle class="st0" cx="59.6" cy="36.6" r="2.7"/>
			</g>
		</g>
		<g>
			<g>
				<circle class="st0" cx="70.4" cy="54" r="2.7"/>
			</g>
		</g>
		<g>
			<g>
				<circle class="st0" cx="82.9" cy="52.5" r="1.9"/>
			</g>
		</g>
		<g>
			<g>
				<circle class="st0" cx="60.4" cy="47" r="1.9"/>
			</g>
		</g>
		<g>
			<g>
				<circle class="st0" cx="49.1" cy="26.5" r="1.9"/>
			</g>
		</g>
		<g>
			<g>
				<circle class="st0" cx="42.7" cy="56.9" r="1.9"/>
			</g>
		</g>
		<g>
			<g>
				<circle class="st0" cx="61.8" cy="24.2" r="4.2"/>
			</g>
		</g>
	</g>
	<g>
		<g>
			<polygon class="st0" points="25.5,56.4 21.6,68.4 35.5,68.4 			"/>
		</g>
	</g>
	<g>
		<g>
			<polygon class="st0" points="34.5,79.8 28.1,79.8 25.1,66.2 31.5,66.2 			"/>
		</g>
	</g>
	<g>
		<g>
			<polygon class="st0" points="34.3,73.7 35.5,79.8 49.8,68.4 42.2,66.2 			"/>
		</g>
	</g>
	<g>
		<g>
			<rect x="21.8" y="80.3" class="st0" width="56.5" height="1.5"/>
		</g>
	</g>
</g>
</svg>
