<?xml version="1.0" encoding="utf-8"?>
<!-- Generator: Adobe Illustrator 24.2.1, SVG Export Plug-In . SVG Version: 6.00 Build 0)  -->
<svg version="1.1" id="Layer_1" xmlns="http://www.w3.org/2000/svg" xmlns:xlink="http://www.w3.org/1999/xlink" x="0px" y="0px"
	 viewBox="0 0 100 120" style="enable-background:new 0 0 100 120;" xml:space="preserve">
<style type="text/css">
	.st0{fill:#383838;}
	.st1{opacity:0.5;}
</style>
<g>
	<g>
		<g>
			<g>
				<path class="st0" d="M10.74,88.1c0.97-0.15,2.12-0.26,3.39-0.26c2.29,0,3.92,0.53,5,1.54c1.1,1.01,1.74,2.44,1.74,4.43
					c0,2.01-0.62,3.66-1.78,4.8c-1.15,1.15-3.06,1.78-5.46,1.78c-1.14,0-2.09-0.05-2.89-0.15V88.1z M12.34,99.01
					c0.4,0.07,0.99,0.09,1.61,0.09c3.41,0,5.26-1.9,5.26-5.24c0.02-2.91-1.63-4.76-5-4.76c-0.82,0-1.45,0.07-1.87,0.16V99.01z"/>
			</g>
			<g>
				<path class="st0" d="M30.36,97.86c0,0.92,0.02,1.72,0.07,2.42h-1.43l-0.09-1.45h-0.04c-0.42,0.71-1.36,1.65-2.93,1.65
					c-1.39,0-3.06-0.77-3.06-3.88v-5.18h1.61v4.91c0,1.68,0.51,2.82,1.98,2.82c1.08,0,1.83-0.75,2.12-1.46
					c0.09-0.24,0.15-0.53,0.15-0.82v-5.44h1.61V97.86z"/>
			</g>
			<g>
				<path class="st0" d="M32.82,98.63c0.48,0.31,1.32,0.64,2.12,0.64c1.17,0,1.72-0.59,1.72-1.32c0-0.77-0.46-1.19-1.65-1.63
					c-1.59-0.57-2.34-1.45-2.34-2.51c0-1.43,1.15-2.6,3.06-2.6c0.9,0,1.68,0.26,2.18,0.55l-0.4,1.17c-0.35-0.22-0.99-0.51-1.81-0.51
					c-0.95,0-1.48,0.55-1.48,1.21c0,0.73,0.53,1.06,1.68,1.5c1.54,0.59,2.33,1.36,2.33,2.67c0,1.56-1.21,2.66-3.31,2.66
					c-0.97,0-1.87-0.24-2.49-0.6L32.82,98.63z"/>
			</g>
			<g>
				<path class="st0" d="M42.23,88.86v2.55h2.31v1.23h-2.31v4.78c0,1.1,0.31,1.72,1.21,1.72c0.42,0,0.73-0.05,0.93-0.11l0.07,1.21
					c-0.31,0.13-0.81,0.22-1.43,0.22c-0.75,0-1.36-0.24-1.74-0.68c-0.46-0.48-0.62-1.26-0.62-2.31v-4.84h-1.37v-1.23h1.37v-2.12
					L42.23,88.86z"/>
			</g>
			<g>
				<path class="st0" d="M50.29,88.08c0.77-0.13,1.78-0.24,3.06-0.24c1.58,0,2.73,0.37,3.46,1.03c0.68,0.59,1.08,1.48,1.08,2.58
					c0,1.12-0.33,2-0.95,2.64c-0.84,0.9-2.22,1.36-3.77,1.36c-0.48,0-0.92-0.02-1.28-0.11v4.95h-1.59V88.08z M51.89,94.03
					c0.35,0.09,0.79,0.13,1.32,0.13c1.92,0,3.09-0.93,3.09-2.64c0-1.63-1.15-2.42-2.91-2.42c-0.7,0-1.23,0.05-1.5,0.13V94.03z"/>
			</g>
			<g>
				<path class="st0" d="M59.69,94.18c0-1.04-0.02-1.94-0.07-2.77h1.41l0.05,1.74h0.07c0.4-1.19,1.37-1.94,2.45-1.94
					c0.18,0,0.31,0.02,0.46,0.05v1.52c-0.16-0.04-0.33-0.05-0.55-0.05c-1.14,0-1.94,0.86-2.16,2.07c-0.04,0.22-0.07,0.48-0.07,0.75
					v4.73h-1.59V94.18z"/>
			</g>
			<g>
				<path class="st0" d="M73.52,95.77c0,3.28-2.27,4.71-4.41,4.71c-2.4,0-4.25-1.76-4.25-4.56c0-2.97,1.94-4.71,4.4-4.71
					C71.8,91.21,73.52,93.06,73.52,95.77z M66.49,95.86c0,1.94,1.12,3.41,2.69,3.41c1.54,0,2.69-1.45,2.69-3.44
					c0-1.5-0.75-3.41-2.66-3.41C67.31,92.42,66.49,94.18,66.49,95.86z"/>
			</g>
			<g>
				<path class="st0" d="M83.58,95.77c0,3.28-2.27,4.71-4.41,4.71c-2.4,0-4.25-1.76-4.25-4.56c0-2.97,1.94-4.71,4.4-4.71
					C81.85,91.21,83.58,93.06,83.58,95.77z M76.54,95.86c0,1.94,1.12,3.41,2.69,3.41c1.54,0,2.69-1.45,2.69-3.44
					c0-1.5-0.75-3.41-2.66-3.41C77.37,92.42,76.54,94.18,76.54,95.86z"/>
			</g>
			<g>
				<path class="st0" d="M85.78,100.27v-7.64h-1.25v-1.23h1.25v-0.42c0-1.25,0.27-2.38,1.03-3.1c0.6-0.59,1.41-0.82,2.16-0.82
					c0.57,0,1.06,0.13,1.37,0.26l-0.22,1.25c-0.24-0.11-0.57-0.2-1.03-0.2c-1.37,0-1.72,1.21-1.72,2.56v0.48h2.14v1.23h-2.14v7.64
					H85.78z"/>
			</g>
		</g>
		<g>
			<g>
				<g>
					<path class="st0" d="M26.95,42.27c-5.54,0-10.18-4.16-10.83-9.6c-3.87-1.48-6.51-5.27-6.51-9.44c0-5.57,4.53-10.1,10.1-10.1
						c1.45,0,2.88,0.32,4.2,0.92c1.9-1.95,4.5-3.06,7.24-3.06c5.57,0,10.1,4.53,10.1,10.1c0,3.01-1.36,5.88-3.68,7.79
						c0.19,0.81,0.29,1.65,0.29,2.48C37.86,37.38,32.96,42.27,26.95,42.27z M19.71,15.11c-4.48,0-8.12,3.64-8.12,8.12
						c0,3.54,2.36,6.73,5.75,7.77l0.66,0.2l0.04,0.69c0.28,4.71,4.19,8.4,8.91,8.4c4.92,0,8.93-4,8.93-8.93
						c0-0.88-0.13-1.74-0.38-2.58l-0.21-0.68l0.58-0.41c2.13-1.53,3.41-4,3.41-6.61c0-4.48-3.64-8.12-8.12-8.12
						c-2.42,0-4.7,1.07-6.25,2.94l-0.53,0.63l-0.72-0.4C22.45,15.47,21.09,15.11,19.71,15.11z"/>
				</g>
				<g>
					<path class="st0" d="M40.71,80.7c-4.02,0-7.72-2.24-9.61-5.76c-5.56,0.51-10.23-3.9-10.23-9.35c0-3.29,1.7-6.3,4.49-8
						c-0.01-0.22-0.02-0.44-0.02-0.66c0-6.01,4.89-10.91,10.91-10.91c3.82,0,7.33,1.99,9.31,5.23c0.32-0.03,0.65-0.05,0.97-0.05
						c5.28,0,9.57,4.29,9.57,9.57c0,3.32-1.71,6.37-4.51,8.12c0.03,0.31,0.04,0.61,0.04,0.91C51.62,75.8,46.72,80.7,40.71,80.7z
						 M32.26,72.76l0.31,0.7c1.45,3.19,4.64,5.26,8.14,5.26c4.92,0,8.93-4,8.93-8.93c0-0.43-0.03-0.86-0.1-1.3l-0.1-0.69l0.62-0.33
						c2.5-1.32,4.05-3.89,4.05-6.71c0-4.18-3.4-7.59-7.59-7.59c-0.44,0-0.88,0.04-1.32,0.12l-0.71,0.13l-0.34-0.64
						c-1.55-2.95-4.58-4.79-7.91-4.79c-4.92,0-8.93,4-8.93,8.93c0,0.35,0.02,0.71,0.07,1.09l0.08,0.68l-0.61,0.32
						c-2.47,1.28-4.01,3.8-4.01,6.58c0,4.49,4.03,8.09,8.66,7.3L32.26,72.76z"/>
				</g>
				<g>
					<path class="st0" d="M77.52,48.17c-4.27,0-8.23-2.12-10.62-5.6c-2.03,1.98-4.74,3.1-7.61,3.1c-6.01,0-10.91-4.89-10.91-10.91
						c0-5.09,3.55-9.48,8.42-10.62c-0.13-0.68-0.2-1.37-0.2-2.07c0-6.01,4.89-10.91,10.91-10.91c2.8,0,5.5,1.09,7.52,3.02
						c1.28-0.69,2.71-1.05,4.18-1.05c4.88,0,8.85,3.97,8.85,8.85c0,1.58-0.42,3.11-1.21,4.46c2.26,2.38,3.54,5.56,3.54,8.85
						C90.39,42.4,84.62,48.17,77.52,48.17z M67.21,39.14l0.71,1.32c1.91,3.54,5.59,5.74,9.59,5.74c6.01,0,10.89-4.89,10.89-10.89
						c0-3.02-1.27-5.93-3.5-7.99l-0.64-0.6L84.79,26c0.85-1.18,1.3-2.57,1.3-4.02c0-3.79-3.08-6.87-6.87-6.87
						c-1.35,0-2.67,0.4-3.8,1.15l-0.71,0.47l-0.57-0.63c-1.69-1.88-4.11-2.95-6.63-2.95c-4.92,0-8.93,4-8.93,8.93
						c0,0.87,0.13,1.73,0.38,2.57l0.34,1.12l-1.16,0.15c-4.43,0.57-7.78,4.38-7.78,8.85c0,4.92,4,8.93,8.93,8.93
						c2.73,0,5.28-1.23,6.99-3.38L67.21,39.14z"/>
				</g>
			</g>
			<g>
				<circle class="st0" cx="62.78" cy="31.99" r="2.23"/>
			</g>
			<g>
				<circle class="st0" cx="72.07" cy="21.81" r="2.23"/>
			</g>
			<g>
				<circle class="st0" cx="76.54" cy="35.21" r="2.23"/>
			</g>
			<g>
				<circle class="st0" cx="70.82" cy="56.65" r="2.23"/>
			</g>
			<g>
				<circle class="st0" cx="50.8" cy="9.65" r="2.23"/>
			</g>
			<g>
				<circle class="st0" cx="12.56" cy="47.9" r="2.23"/>
			</g>
			<g>
				<circle class="st0" cx="34.36" cy="61.12" r="2.23"/>
			</g>
			<g>
				<circle class="st0" cx="44.91" cy="66.12" r="2.23"/>
			</g>
			<g>
				<circle class="st0" cx="27.93" cy="22.34" r="2.23"/>
			</g>
			<g>
				<circle class="st0" cx="25.96" cy="32.35" r="2.23"/>
			</g>
		</g>
	</g>
	<g class="st1">
		<rect x="49" y="76.25" transform="matrix(9.438268e-03 -1 1 9.438268e-03 -61.7162 160.197)" class="st0" width="2" height="70"/>
	</g>
</g>
</svg>
