<?xml version="1.0" encoding="utf-8"?>
<!-- Generator: Adobe Illustrator 24.2.1, SVG Export Plug-In . SVG Version: 6.00 Build 0)  -->
<svg version="1.1" id="Layer_1" xmlns="http://www.w3.org/2000/svg" xmlns:xlink="http://www.w3.org/1999/xlink" x="0px" y="0px"
	 viewBox="0 0 100 120" style="enable-background:new 0 0 100 120;" xml:space="preserve">
<style type="text/css">
	.st0{fill:#383838;}
</style>
<g>
	<g>
		<g>
			<path class="st0" d="M9.35,96.68c1.01-0.15,2.2-0.27,3.51-0.27c2.37,0,4.06,0.55,5.18,1.59c1.14,1.04,1.8,2.52,1.8,4.59
				c0,2.09-0.65,3.79-1.84,4.97c-1.19,1.19-3.17,1.84-5.65,1.84c-1.18,0-2.16-0.06-3-0.15V96.68z M11,107.99
				c0.42,0.08,1.02,0.1,1.67,0.1c3.53,0,5.44-1.97,5.44-5.42c0.02-3.02-1.69-4.93-5.18-4.93c-0.85,0-1.5,0.08-1.93,0.17V107.99z"/>
		</g>
		<g>
			<path class="st0" d="M29.67,106.79c0,0.95,0.02,1.78,0.08,2.5h-1.48l-0.1-1.5h-0.04c-0.44,0.74-1.4,1.71-3.03,1.71
				c-1.44,0-3.17-0.8-3.17-4.02v-5.37h1.67v5.08c0,1.74,0.53,2.92,2.05,2.92c1.12,0,1.9-0.78,2.2-1.52
				c0.09-0.25,0.15-0.55,0.15-0.85v-5.63h1.67V106.79z"/>
		</g>
		<g>
			<path class="st0" d="M32.21,107.59c0.49,0.32,1.36,0.66,2.2,0.66c1.21,0,1.78-0.61,1.78-1.36c0-0.8-0.47-1.23-1.71-1.69
				c-1.65-0.59-2.43-1.5-2.43-2.6c0-1.48,1.19-2.69,3.17-2.69c0.93,0,1.74,0.27,2.26,0.57l-0.42,1.21
				c-0.36-0.23-1.02-0.53-1.88-0.53c-0.99,0-1.54,0.57-1.54,1.25c0,0.76,0.55,1.1,1.74,1.56c1.59,0.61,2.41,1.4,2.41,2.77
				c0,1.61-1.25,2.75-3.43,2.75c-1.01,0-1.93-0.25-2.58-0.63L32.21,107.59z"/>
		</g>
		<g>
			<path class="st0" d="M41.96,97.48v2.64h2.39v1.27h-2.39v4.95c0,1.14,0.32,1.78,1.25,1.78c0.44,0,0.76-0.06,0.97-0.11l0.08,1.25
				c-0.32,0.13-0.83,0.23-1.48,0.23c-0.78,0-1.4-0.25-1.8-0.7c-0.47-0.49-0.65-1.31-0.65-2.39v-5.01H38.9v-1.27h1.42v-2.2
				L41.96,97.48z"/>
		</g>
		<g>
			<path class="st0" d="M50.3,96.66c0.8-0.13,1.84-0.25,3.17-0.25c1.63,0,2.83,0.38,3.58,1.06c0.7,0.61,1.12,1.54,1.12,2.67
				c0,1.16-0.34,2.07-0.99,2.73c-0.87,0.93-2.29,1.4-3.91,1.4c-0.49,0-0.95-0.02-1.33-0.11v5.12H50.3V96.66z M51.95,102.83
				c0.36,0.09,0.82,0.13,1.37,0.13c1.99,0,3.2-0.97,3.2-2.73c0-1.69-1.19-2.5-3.02-2.5c-0.72,0-1.27,0.06-1.56,0.13V102.83z"/>
		</g>
		<g>
			<path class="st0" d="M60.03,102.98c0-1.08-0.02-2.01-0.08-2.86h1.46l0.06,1.8h0.08c0.42-1.23,1.42-2.01,2.54-2.01
				c0.19,0,0.32,0.02,0.47,0.06v1.57c-0.17-0.04-0.34-0.06-0.57-0.06c-1.18,0-2.01,0.89-2.24,2.14c-0.04,0.23-0.08,0.49-0.08,0.78
				v4.89h-1.65V102.98z"/>
		</g>
		<g>
			<path class="st0" d="M74.35,104.63c0,3.39-2.35,4.87-4.57,4.87c-2.48,0-4.4-1.82-4.4-4.72c0-3.07,2.01-4.87,4.55-4.87
				C72.57,99.91,74.35,101.82,74.35,104.63z M67.07,104.72c0,2.01,1.16,3.53,2.79,3.53c1.59,0,2.79-1.5,2.79-3.57
				c0-1.56-0.78-3.53-2.75-3.53C67.92,101.16,67.07,102.98,67.07,104.72z"/>
		</g>
		<g>
			<path class="st0" d="M84.77,104.63c0,3.39-2.35,4.87-4.57,4.87c-2.48,0-4.4-1.82-4.4-4.72c0-3.07,2.01-4.87,4.55-4.87
				C82.98,99.91,84.77,101.82,84.77,104.63z M77.48,104.72c0,2.01,1.16,3.53,2.79,3.53c1.59,0,2.79-1.5,2.79-3.57
				c0-1.56-0.78-3.53-2.75-3.53C78.34,101.16,77.48,102.98,77.48,104.72z"/>
		</g>
		<g>
			<path class="st0" d="M87.04,109.29v-7.91h-1.29v-1.27h1.29v-0.44c0-1.29,0.28-2.47,1.06-3.21c0.63-0.61,1.46-0.85,2.24-0.85
				c0.59,0,1.1,0.13,1.42,0.27l-0.23,1.29c-0.25-0.11-0.59-0.21-1.06-0.21c-1.42,0-1.78,1.25-1.78,2.65v0.49h2.22v1.27h-2.22v7.91
				H87.04z"/>
		</g>
	</g>
	<g>
		<g>
			<g>
				<path class="st0" d="M24.32,49.33c-6.17,0-11.34-4.64-12.06-10.69C7.95,36.99,5,32.77,5,28.12c0-6.21,5.05-11.26,11.26-11.26
					c1.61,0,3.21,0.35,4.68,1.02c2.12-2.18,5.01-3.41,8.06-3.41c6.21,0,11.26,5.05,11.26,11.26c0,3.36-1.52,6.55-4.1,8.68
					c0.21,0.91,0.32,1.83,0.32,2.77C36.47,43.87,31.02,49.33,24.32,49.33z M16.26,19.06c-4.99,0-9.05,4.06-9.05,9.05
					c0,3.94,2.63,7.5,6.41,8.66L14.35,37l0.04,0.77c0.31,5.25,4.67,9.36,9.93,9.36c5.48,0,9.95-4.46,9.95-9.95
					c0-0.98-0.14-1.94-0.42-2.87l-0.23-0.76l0.64-0.46c2.38-1.7,3.79-4.45,3.79-7.36c0-4.99-4.06-9.05-9.05-9.05
					c-2.69,0-5.23,1.19-6.96,3.27l-0.59,0.7l-0.8-0.45C19.31,19.46,17.79,19.06,16.26,19.06z"/>
			</g>
			<g>
				<path class="st0" d="M39.65,92.13c-4.48,0-8.6-2.49-10.71-6.41c-6.2,0.57-11.4-4.34-11.4-10.42c0-3.67,1.9-7.02,5-8.92
					c-0.02-0.25-0.02-0.5-0.02-0.74c0-6.7,5.45-12.15,12.15-12.15c4.26,0,8.17,2.21,10.37,5.83c0.36-0.04,0.72-0.06,1.08-0.06
					c5.88,0,10.66,4.78,10.66,10.66c0,3.7-1.91,7.1-5.02,9.04c0.03,0.34,0.04,0.68,0.04,1.01C51.8,86.68,46.35,92.13,39.65,92.13z
					 M30.23,83.29l0.35,0.77c1.61,3.56,5.17,5.86,9.06,5.86c5.48,0,9.95-4.46,9.95-9.95c0-0.47-0.04-0.96-0.11-1.45l-0.11-0.77
					l0.69-0.36c2.78-1.47,4.51-4.34,4.51-7.47c0-4.66-3.79-8.45-8.45-8.45c-0.49,0-0.98,0.04-1.47,0.13l-0.79,0.14l-0.38-0.71
					c-1.73-3.29-5.11-5.33-8.81-5.33c-5.48,0-9.95,4.46-9.95,9.95c0,0.39,0.02,0.79,0.08,1.21l0.09,0.76l-0.68,0.35
					c-2.76,1.43-4.47,4.24-4.47,7.33c0,5.01,4.49,9.01,9.65,8.13L30.23,83.29z"/>
			</g>
			<g>
				<path class="st0" d="M80.66,55.9c-4.76,0-9.17-2.36-11.83-6.24c-2.26,2.21-5.28,3.45-8.48,3.45c-6.7,0-12.15-5.45-12.15-12.15
					c0-5.67,3.95-10.56,9.38-11.83c-0.15-0.76-0.22-1.53-0.22-2.31c0-6.7,5.45-12.15,12.15-12.15c3.12,0,6.13,1.22,8.38,3.36
					c1.43-0.77,3.02-1.17,4.66-1.17c5.44,0,9.86,4.42,9.86,9.86c0,1.77-0.46,3.47-1.35,4.97c2.51,2.65,3.94,6.2,3.94,9.86
					C95,49.46,88.57,55.9,80.66,55.9z M69.18,45.83l0.79,1.47c2.13,3.94,6.22,6.39,10.69,6.39c6.69,0,12.14-5.44,12.14-12.14
					c0-3.36-1.42-6.6-3.9-8.9l-0.72-0.66l0.57-0.79c0.95-1.31,1.45-2.86,1.45-4.48c0-4.22-3.44-7.66-7.66-7.66
					c-1.51,0-2.97,0.44-4.23,1.28l-0.79,0.53l-0.64-0.71c-1.89-2.09-4.58-3.29-7.38-3.29c-5.48,0-9.95,4.46-9.95,9.95
					c0,0.97,0.14,1.93,0.42,2.86l0.38,1.24l-1.29,0.17c-4.94,0.64-8.66,4.88-8.66,9.86c0,5.48,4.46,9.95,9.95,9.95
					c3.04,0,5.88-1.37,7.79-3.77L69.18,45.83z"/>
			</g>
		</g>
		<g>
			<circle class="st0" cx="64.23" cy="37.87" r="2.49"/>
		</g>
		<g>
			<circle class="st0" cx="74.59" cy="26.52" r="2.49"/>
		</g>
		<g>
			<circle class="st0" cx="79.56" cy="41.45" r="2.49"/>
		</g>
		<g>
			<circle class="st0" cx="73.19" cy="65.34" r="2.49"/>
		</g>
		<g>
			<circle class="st0" cx="50.9" cy="12.99" r="2.49"/>
		</g>
		<g>
			<circle class="st0" cx="8.29" cy="55.59" r="2.49"/>
		</g>
		<g>
			<circle class="st0" cx="32.58" cy="70.32" r="2.49"/>
		</g>
		<g>
			<circle class="st0" cx="44.33" cy="75.89" r="2.49"/>
		</g>
		<g>
			<circle class="st0" cx="25.41" cy="27.12" r="2.49"/>
		</g>
		<g>
			<circle class="st0" cx="23.22" cy="38.27" r="2.49"/>
		</g>
	</g>
</g>
</svg>
