<?xml version="1.0" encoding="utf-8"?>
<!-- Generator: Adobe Illustrator 24.2.1, SVG Export Plug-In . SVG Version: 6.00 Build 0)  -->
<svg version="1.1" id="Layer_1" xmlns="http://www.w3.org/2000/svg" xmlns:xlink="http://www.w3.org/1999/xlink" x="0px" y="0px"
	 viewBox="0 0 100 130" style="enable-background:new 0 0 100 130;" xml:space="preserve">
<style type="text/css">
	.st0{fill:#FFFFFF;}
</style>
<g>
	<g>
		<g>
			<path class="st0" d="M5.2,107.9c0.7,0.4,1.7,0.8,2.7,0.8c1.6,0,2.5-0.8,2.5-2c0-1.1-0.6-1.7-2.2-2.4c-1.9-0.7-3.1-1.7-3.1-3.4
				c0-1.8,1.5-3.2,3.8-3.2c1.2,0,2.1,0.3,2.6,0.6l-0.4,1.3C10.7,99.4,9.9,99,8.8,99c-1.6,0-2.2,1-2.2,1.8c0,1.1,0.7,1.7,2.4,2.3
				c2,0.8,3,1.7,3,3.5c0,1.8-1.4,3.4-4.2,3.4c-1.1,0-2.4-0.3-3-0.8L5.2,107.9z"/>
		</g>
		<g>
			<path class="st0" d="M21.2,107.5c0,0.9,0,1.7,0.1,2.3h-1.4l-0.1-1.4h0c-0.4,0.7-1.3,1.6-2.8,1.6c-1.3,0-2.9-0.7-2.9-3.7v-5h1.5
				v4.7c0,1.6,0.5,2.7,1.9,2.7c1,0,1.8-0.7,2-1.4c0.1-0.2,0.1-0.5,0.1-0.8v-5.2h1.5V107.5z"/>
		</g>
		<g>
			<path class="st0" d="M23.7,109.8c0-0.6,0.1-1.4,0.1-2.2V97.3h1.5v5.4h0c0.5-1,1.5-1.6,2.9-1.6c2.1,0,3.6,1.8,3.6,4.3
				c0,3-1.9,4.6-3.8,4.6c-1.2,0-2.2-0.5-2.9-1.6h-0.1l-0.1,1.4H23.7z M25.3,106.4c0,0.2,0,0.4,0.1,0.6c0.3,1.1,1.2,1.8,2.3,1.8
				c1.6,0,2.6-1.3,2.6-3.3c0-1.7-0.9-3.2-2.5-3.2c-1.1,0-2,0.7-2.4,1.9c0,0.2-0.1,0.4-0.1,0.6V106.4z"/>
		</g>
		<g>
			<path class="st0" d="M33.8,103.6c0-0.9,0-1.6-0.1-2.3H35l0.1,1.4h0.1c0.5-0.8,1.3-1.6,2.7-1.6c1.2,0,2,0.7,2.4,1.7h0
				c0.3-0.5,0.6-0.8,1-1.1c0.5-0.4,1.1-0.6,1.9-0.6c1.1,0,2.8,0.7,2.8,3.7v5h-1.5V105c0-1.6-0.6-2.6-1.8-2.6c-0.9,0-1.6,0.7-1.8,1.4
				c-0.1,0.2-0.1,0.5-0.1,0.8v5.3h-1.5v-5.1c0-1.4-0.6-2.3-1.8-2.3c-1,0-1.7,0.8-1.9,1.5c-0.1,0.2-0.1,0.5-0.1,0.8v5.1h-1.5V103.6z"
				/>
		</g>
		<g>
			<path class="st0" d="M49.3,105.8c0,2.1,1.4,3,2.9,3c1.1,0,1.8-0.2,2.4-0.4l0.3,1.1c-0.5,0.2-1.5,0.5-2.8,0.5
				c-2.6,0-4.2-1.7-4.2-4.3c0-2.6,1.5-4.6,4-4.6c2.8,0,3.5,2.4,3.5,4c0,0.3,0,0.6-0.1,0.7H49.3z M53.8,104.7c0-1-0.4-2.5-2.1-2.5
				c-1.6,0-2.3,1.4-2.4,2.5H53.8z"/>
		</g>
		<g>
			<path class="st0" d="M57.3,103.9c0-1,0-1.9-0.1-2.7h1.4l0.1,1.7h0.1c0.4-1.1,1.3-1.9,2.4-1.9c0.2,0,0.3,0,0.4,0.1v1.5
				c-0.2,0-0.3-0.1-0.5-0.1c-1.1,0-1.9,0.8-2.1,2c0,0.2-0.1,0.5-0.1,0.7v4.5h-1.5V103.9z"/>
		</g>
		<g>
			<path class="st0" d="M62.8,108.2c0.5,0.3,1.3,0.6,2,0.6c1.1,0,1.7-0.6,1.7-1.3c0-0.7-0.4-1.1-1.6-1.6c-1.5-0.5-2.3-1.4-2.3-2.4
				c0-1.4,1.1-2.5,2.9-2.5c0.9,0,1.6,0.2,2.1,0.5l-0.4,1.1c-0.3-0.2-1-0.5-1.7-0.5c-0.9,0-1.4,0.5-1.4,1.2c0,0.7,0.5,1,1.6,1.4
				c1.5,0.6,2.2,1.3,2.2,2.6c0,1.5-1.2,2.6-3.2,2.6c-0.9,0-1.8-0.2-2.4-0.6L62.8,108.2z"/>
		</g>
		<g>
			<path class="st0" d="M71.7,98.9c0,0.5-0.4,1-1,1c-0.5,0-0.9-0.4-0.9-1c0-0.5,0.4-1,1-1C71.4,97.9,71.7,98.3,71.7,98.9z M70,109.8
				v-8.5h1.5v8.5H70z"/>
		</g>
		<g>
			<path class="st0" d="M74,109.8c0-0.6,0.1-1.4,0.1-2.2V97.3h1.5v5.4h0c0.5-1,1.5-1.6,2.9-1.6c2.1,0,3.6,1.8,3.6,4.3
				c0,3-1.9,4.6-3.8,4.6c-1.2,0-2.2-0.5-2.9-1.6h-0.1l-0.1,1.4H74z M75.6,106.4c0,0.2,0,0.4,0.1,0.6c0.3,1.1,1.2,1.8,2.3,1.8
				c1.6,0,2.6-1.3,2.6-3.3c0-1.7-0.9-3.2-2.5-3.2c-1.1,0-2,0.7-2.4,1.9c0,0.2-0.1,0.4-0.1,0.6V106.4z"/>
		</g>
		<g>
			<path class="st0" d="M84.1,97.3h1.5v12.5h-1.5V97.3z"/>
		</g>
		<g>
			<path class="st0" d="M89.2,105.8c0,2.1,1.4,3,2.9,3c1.1,0,1.8-0.2,2.4-0.4l0.3,1.1c-0.5,0.2-1.5,0.5-2.8,0.5
				c-2.6,0-4.2-1.7-4.2-4.3c0-2.6,1.5-4.6,4-4.6c2.8,0,3.5,2.4,3.5,4c0,0.3,0,0.6-0.1,0.7H89.2z M93.7,104.7c0-1-0.4-2.5-2.1-2.5
				c-1.6,0-2.3,1.4-2.4,2.5H93.7z"/>
		</g>
	</g>
	<g>
		<g>
			<g>
				<path class="st0" d="M85.4,30.7c-2-0.3-3.5-2.3-3.2-4.3c0.3-2,1.8-3.3,4-3.4c0.6,0,1-0.3,1.1-0.8c0.1-0.5-0.2-1-0.8-1.2
					c-0.8-0.2-1.7-0.5-2.6-0.6c-5.2-0.6-10,2.3-12.1,7c-1.2,2.7-4.8,4.4-7.4,2.5c-1.2-0.9-1.9-2.6-1.6-4.1c0.3-1.5,1.6-2.8,3.2-3
					c0.6-0.1,1.3,0,1.7-0.5c0.3-0.4,0.3-0.9,0-1.3c-0.2-0.2-0.4-0.3-0.7-0.4c-2.5-0.8-5.2-0.8-7.7,0.1c-2.5,0.9-4.6,2.6-6,4.9
					c-0.7,1.2-1.2,2.5-2.2,3.4c-1.2,1.1-3.5,2-5,1.1c-1.4-0.8-2.3-2.6-2.1-4.2c0.3-2,1.8-3.3,4-3.4c0.6,0,1-0.3,1.1-0.8
					c0.1-0.5-0.2-1-0.8-1.2c-0.8-0.2-1.7-0.5-2.6-0.6c-5.2-0.6-10,2.3-12.1,7c-1.2,2.7-4.8,4.4-7.4,2.5c-1.2-0.9-1.9-2.6-1.6-4.1
					c0.3-1.5,1.6-2.8,3.2-3c0.6-0.1,1.3,0,1.7-0.5c0.3-0.4,0.3-0.9,0-1.3c-0.2-0.2-0.4-0.3-0.7-0.4c-2.5-0.8-5.2-0.8-7.7,0.1
					c-2.5,0.9-4.6,2.6-6,4.9c-0.7,1.2-1.2,2.5-2.2,3.4c-0.8,0.7-1.8,1.2-2.8,1.4c-0.4,0.1-0.8,0.1-1.2,0.2C8.5,30.6,8.1,31,8,31.4
					c-0.1,0.5,0.4,1,0.8,1.1c0.5,0.1,1,0,1.5-0.1c1.4-0.3,2.8-0.8,3.8-1.8c1.2-1.1,1.8-2.8,2.7-4.2c1.6-2.5,4.5-4.3,7.6-4.4
					c-0.3,0-0.8,0.9-0.9,1.1c-0.3,0.4-0.5,0.9-0.7,1.4c-0.3,1-0.4,2.1-0.2,3.2c0.5,2.1,2.2,3.9,4.2,4.6c2.5,0.8,5.5-0.3,7.2-2.1
					c0.6-0.7,1.1-1.4,1.5-2.3c1-2.2,2.6-3.8,4.8-4.9c1.1-0.5,2.3-0.8,3.6-0.9c-1.3,1.2-2,2.7-2,4.4c0,1.7,0.6,3.2,1.9,4.4
					c0.9,0.8,1.9,1.5,3.1,1.8c1.7,0.4,4.2-0.7,5.4-1.9c1.2-1.1,1.8-2.8,2.7-4.2c1.6-2.5,4.5-4.3,7.6-4.4c-0.3,0-0.8,0.9-0.9,1.1
					c-0.3,0.4-0.5,0.9-0.7,1.4c-0.3,1-0.4,2.1-0.2,3.2c0.5,2.1,2.2,3.9,4.2,4.6c2.5,0.8,5.5-0.3,7.2-2.1c0.6-0.7,1.1-1.4,1.5-2.3
					c1-2.2,2.6-3.8,4.8-4.9c1.1-0.5,2.3-0.8,3.6-0.9c-1.3,1.2-2,2.7-2,4.4c0,1.7,0.6,3.2,1.9,4.4c1.1,1,2.4,1.5,3.9,1.5
					c0.6,0,3.6-0.3,5.1-2c2.1-2.3,0.9-3.7-1.2-1.8C88.9,30,86.8,30.9,85.4,30.7z"/>
			</g>
		</g>
		<g>
			<g>
				<polygon class="st0" points="54.9,60 55,46.5 44.6,46.5 44.5,59.9 38.9,59.9 49.6,78.6 60.5,60 				"/>
			</g>
		</g>
	</g>
</g>
</svg>
