<?xml version="1.0" encoding="utf-8"?>
<!-- Generator: Adobe Illustrator 24.2.1, SVG Export Plug-In . SVG Version: 6.00 Build 0)  -->
<svg version="1.1" id="Layer_1" xmlns="http://www.w3.org/2000/svg" xmlns:xlink="http://www.w3.org/1999/xlink" x="0px" y="0px"
	 viewBox="0 0 100 120" style="enable-background:new 0 0 100 120;" xml:space="preserve">
<style type="text/css">
	.st0{fill:#383838;}
	.st1{opacity:0.5;}
</style>
<g>
	<g>
		<g>
			<g>
				<path class="st0" d="M11.62,86.9c0.77-0.13,1.78-0.23,3.06-0.22c1.58,0.01,2.73,0.38,3.46,1.04c0.68,0.59,1.07,1.49,1.07,2.59
					c-0.01,1.12-0.34,2-0.97,2.64c-0.85,0.89-2.22,1.35-3.78,1.34c-0.48,0-0.92-0.02-1.28-0.12l-0.02,4.95l-1.59-0.01L11.62,86.9z
					 M13.18,92.87C13.53,92.96,13.97,93,14.5,93c1.92,0.01,3.1-0.92,3.11-2.63c0.01-1.63-1.14-2.42-2.9-2.43
					c-0.7,0-1.23,0.05-1.5,0.12L13.18,92.87z"/>
			</g>
			<g>
				<path class="st0" d="M20.99,93.05c0-1.04-0.01-1.94-0.06-2.77l1.41,0.01l0.05,1.74h0.07c0.41-1.19,1.38-1.94,2.47-1.93
					c0.18,0,0.31,0.02,0.46,0.06l-0.01,1.52c-0.16-0.04-0.33-0.06-0.55-0.06c-1.14-0.01-1.95,0.85-2.17,2.06
					c-0.04,0.22-0.08,0.48-0.08,0.75l-0.02,4.73l-1.59-0.01L20.99,93.05z"/>
			</g>
			<g>
				<path class="st0" d="M34.83,94.71c-0.02,3.28-2.3,4.7-4.44,4.69c-2.4-0.01-4.24-1.78-4.23-4.59c0.01-2.97,1.97-4.7,4.42-4.69
					C33.13,90.14,34.84,92,34.83,94.71z M27.79,94.77c-0.01,1.94,1.1,3.41,2.68,3.42c1.54,0.01,2.7-1.43,2.71-3.43
					c0.01-1.5-0.74-3.41-2.64-3.42C28.63,91.33,27.8,93.09,27.79,94.77z"/>
			</g>
			<g>
				<path class="st0" d="M38.84,87.82l-0.01,2.55l2.31,0.01l-0.01,1.23l-2.31-0.01l-0.02,4.78c-0.01,1.1,0.3,1.72,1.2,1.73
					c0.42,0,0.73-0.05,0.94-0.11L41,99.22c-0.31,0.13-0.81,0.22-1.43,0.21c-0.75,0-1.36-0.24-1.74-0.69
					c-0.46-0.48-0.62-1.27-0.61-2.31l0.02-4.84l-1.37-0.01l0.01-1.23l1.37,0.01l0.01-2.13L38.84,87.82z"/>
			</g>
			<g>
				<path class="st0" d="M43.72,95.12c0.03,2.18,1.42,3.09,3.03,3.09c1.16,0.01,1.85-0.19,2.46-0.45l0.27,1.16
					c-0.57,0.25-1.54,0.54-2.95,0.54c-2.73-0.01-4.35-1.82-4.34-4.49c0.01-2.68,1.6-4.78,4.18-4.77c2.9,0.01,3.65,2.57,3.65,4.2
					c0,0.33-0.04,0.59-0.06,0.75L43.72,95.12z M48.45,93.99c0.02-1.03-0.41-2.62-2.22-2.63c-1.63-0.01-2.35,1.49-2.49,2.61
					L48.45,93.99z"/>
			</g>
			<g>
				<path class="st0" d="M58.31,99.01c-0.42,0.22-1.36,0.51-2.55,0.5c-2.68-0.01-4.41-1.84-4.4-4.55c0.01-2.73,1.89-4.7,4.79-4.69
					c0.95,0,1.79,0.25,2.23,0.47l-0.37,1.25c-0.38-0.22-0.99-0.43-1.87-0.43c-2.03-0.01-3.14,1.49-3.15,3.34
					c-0.01,2.05,1.3,3.32,3.06,3.33c0.92,0,1.52-0.23,1.98-0.43L58.31,99.01z"/>
			</g>
			<g>
				<path class="st0" d="M62.44,87.93l-0.01,2.55l2.31,0.01l-0.01,1.23l-2.31-0.01l-0.02,4.78c-0.01,1.1,0.3,1.72,1.2,1.73
					c0.42,0,0.73-0.05,0.94-0.11l0.07,1.21c-0.31,0.13-0.81,0.22-1.43,0.21c-0.75,0-1.36-0.24-1.74-0.69
					c-0.46-0.48-0.62-1.27-0.61-2.31l0.02-4.84l-1.37-0.01l0.01-1.23l1.37,0.01l0.01-2.13L62.44,87.93z"/>
			</g>
			<g>
				<path class="st0" d="M68.36,88.02c0.02,0.55-0.39,0.99-1.03,0.99c-0.57,0-0.97-0.44-0.97-1c0-0.57,0.43-1.01,1.01-1
					C67.98,87.01,68.36,87.45,68.36,88.02z M66.51,99.37l0.04-8.87l1.61,0.01l-0.04,8.87L66.51,99.37z"/>
			</g>
			<g>
				<path class="st0" d="M78.85,94.92c-0.02,3.28-2.3,4.7-4.44,4.69c-2.4-0.01-4.24-1.78-4.23-4.59c0.01-2.97,1.97-4.7,4.42-4.69
					C77.15,90.35,78.86,92.21,78.85,94.92z M71.81,94.98c-0.01,1.94,1.1,3.41,2.68,3.42c1.54,0.01,2.7-1.43,2.71-3.43
					c0.01-1.5-0.74-3.41-2.64-3.42C72.65,91.54,71.82,93.29,71.81,94.98z"/>
			</g>
			<g>
				<path class="st0" d="M80.89,92.97c0-0.92-0.01-1.67-0.06-2.4l1.43,0.01l0.08,1.47l0.04,0c0.44-0.84,1.47-1.66,2.94-1.66
					c1.23,0.01,3.13,0.75,3.12,3.79l-0.03,5.3l-1.61-0.01l0.02-5.11c0.01-1.43-0.52-2.62-2.04-2.63c-1.06,0-1.89,0.74-2.17,1.64
					c-0.07,0.2-0.11,0.48-0.11,0.75l-0.03,5.33l-1.61-0.01L80.89,92.97z"/>
			</g>
		</g>
		<g>
			<g>
				<path class="st0" d="M49.79,82.01c-0.44,0-0.89-0.11-1.35-0.32c-3.72-1.71-7.28-3.67-10.59-5.81c-3.89-2.53-7.04-5.06-9.6-7.74
					c-3.24-3.38-5.2-6.57-6.2-10.04c-0.38-1.34-0.57-2.68-0.57-3.99c0.02-4.6,0.04-9.21,0.06-13.81c0.02-5.34,0.05-10.69,0.07-16.03
					c0.01-1.45,0.93-1.88,1.7-1.99c4.67-0.65,9.11-2.01,13.2-4.02c4.31-2.12,8.23-4.96,11.68-8.42l0.36-0.36
					c0.45-0.45,0.87-0.87,1.56-0.87c0.01,0,0.01,0,0.02,0c0.7,0.01,1.13,0.45,1.54,0.88c3.6,3.75,7.69,6.78,12.17,9
					c3.96,1.96,8.14,3.29,12.44,3.95c1.72,0.26,2.18,0.8,2.17,2.52l-0.07,14.73c-0.01,1.38-0.02,2.76-0.03,4.14
					c-0.03,3.14-0.05,6.39-0.02,9.57c0.04,3.63-0.98,6.99-3.12,10.25c-1.93,2.96-4.45,5.62-7.93,8.39
					c-3.98,3.17-8.45,5.94-13.66,8.46c-0.35,0.17-0.7,0.33-1.06,0.49c-0.47,0.22-0.95,0.43-1.41,0.67
					C50.7,81.89,50.25,82.01,49.79,82.01z M24.14,24.73c-0.02,5.2-0.04,10.39-0.07,15.59c-0.02,4.6-0.04,9.21-0.06,13.81
					c0,1.07,0.15,2.18,0.47,3.29c0.87,3.06,2.65,5.91,5.59,8.98c2.46,2.57,5.37,4.92,9.15,7.37c3.2,2.08,6.66,3.97,10.27,5.63
					c0.28,0.13,0.34,0.1,0.49,0.02c0.5-0.26,1.01-0.49,1.52-0.72c0.34-0.15,0.67-0.31,1-0.47c5.04-2.43,9.35-5.1,13.18-8.16
					c3.26-2.59,5.61-5.07,7.39-7.79c1.85-2.83,2.73-5.72,2.7-8.84c-0.03-3.21-0.01-6.47,0.02-9.62c0.01-1.38,0.02-2.75,0.03-4.13
					l0.07-14.72c-4.57-0.7-9-2.11-13.2-4.19c-4.64-2.3-8.88-5.41-12.62-9.25l-0.1,0.1c-3.64,3.66-7.8,6.66-12.36,8.91
					C33.44,22.6,28.91,24.01,24.14,24.73z"/>
			</g>
			<g>
				<path class="st0" d="M65.53,45.43c0.07,8.26-6.77,15.56-15.68,15.52c-8.92-0.04-15.68-7.47-15.56-15.91
					c0.13-8.37,7.24-15.48,15.86-15.37C58.57,29.78,65.74,36.89,65.53,45.43z M49.83,58.13c7.04,0.01,12.84-5.55,12.91-12.71
					c0.07-7.09-5.59-12.89-12.74-12.92c-7.15-0.04-12.8,5.67-12.88,12.67C37.03,52.26,42.79,58.09,49.83,58.13z"/>
			</g>
			<g>
				<path class="st0" d="M38.27,64.31c0.13-1.66,0.27-3.41,0.4-5.16c0.02-0.27,0.07-0.38,0.34-0.17c1.18,0.97,2.49,1.74,3.89,2.35
					c0.32,0.14,0.3,0.25,0.03,0.42c-1.44,0.94-2.87,1.88-4.31,2.82c-0.1,0.06-0.2,0.16-0.32,0.09
					C38.21,64.61,38.25,64.49,38.27,64.31z"/>
			</g>
			<g>
				<path class="st0" d="M31.5,33.68c1.48,0.12,3,0.25,4.51,0.36c0.45,0.03,0.39,0.14,0.17,0.44c-0.9,1.16-1.68,2.39-2.24,3.75
					c-0.19,0.45-0.32,0.31-0.52,0c-0.88-1.36-1.78-2.71-2.66-4.06c-0.08-0.12-0.26-0.25-0.18-0.41c0.1-0.2,0.32-0.05,0.48-0.07
					C31.19,33.67,31.33,33.68,31.5,33.68z"/>
			</g>
			<g>
				<path class="st0" d="M46.93,62.57c1.31,0.21,2.49,0.23,3.67,0.21c0.39-0.01,0.79,0.01,1.18-0.08c0.13-0.03,0.29-0.09,0.38,0.05
					c0.09,0.13-0.04,0.26-0.1,0.38c-0.75,1.48-1.5,2.96-2.25,4.44c-0.06,0.11-0.09,0.3-0.26,0.26c-0.09-0.02-0.17-0.16-0.21-0.26
					C48.56,65.97,47.78,64.35,46.93,62.57z"/>
			</g>
			<g>
				<path class="st0" d="M61.15,31.86c-1.45-1.16-2.9-2.04-4.59-2.77c0.79-0.52,1.47-0.97,2.16-1.42c0.83-0.54,1.65-1.08,2.48-1.62
					c0.09-0.06,0.17-0.18,0.31-0.12c0.11,0.05,0.1,0.15,0.09,0.26C61.45,28.03,61.31,29.88,61.15,31.86z"/>
			</g>
			<g>
				<path class="st0" d="M32.66,42.31c-0.23,1.71-0.33,3.3-0.12,4.9c0.05,0.35-0.07,0.42-0.39,0.25c-1.49-0.76-2.99-1.51-4.49-2.26
					c-0.25-0.13-0.46-0.27-0.06-0.46C29.24,43.94,30.9,43.16,32.66,42.31z"/>
			</g>
			<g>
				<path class="st0" d="M63.38,56.52c1.17-1.43,2.03-2.9,2.77-4.58c0.72,1.09,1.37,2.08,2.02,3.06c0.36,0.55,0.72,1.09,1.08,1.64
					c0.16,0.25,0.12,0.37-0.19,0.34C67.21,56.83,65.38,56.68,63.38,56.52z"/>
			</g>
			<g>
				<path class="st0" d="M67.21,48.17c0.25-1.69,0.3-3.4,0.07-5.22c0.64,0.32,1.19,0.59,1.73,0.86c1.08,0.54,2.15,1.09,3.23,1.63
					c0.24,0.12,0.4,0.24,0.04,0.41c-1.64,0.79-3.28,1.57-4.92,2.35C67.34,48.22,67.29,48.19,67.21,48.17z"/>
			</g>
			<g>
				<path class="st0" d="M52.92,28.04c-1.69-0.22-3.24-0.36-4.79-0.13c-0.41,0.06-0.54-0.03-0.32-0.46c0.76-1.47,1.5-2.96,2.25-4.43
					c0.09-0.18,0.21-0.49,0.41-0.08C51.28,24.6,52.07,26.27,52.92,28.04z"/>
			</g>
			<g>
				<path class="st0" d="M30.6,56.34c-0.11-0.03-0.31,0.11-0.39-0.08c-0.06-0.14,0.08-0.25,0.16-0.36c0.92-1.36,1.84-2.71,2.77-4.06
					c0.08-0.12,0.14-0.33,0.32-0.32c0.19,0.01,0.19,0.23,0.25,0.36c0.55,1.3,1.2,2.53,2.04,3.66c0.22,0.3,0.33,0.49-0.21,0.51
					C33.9,56.13,32.27,56.24,30.6,56.34z"/>
			</g>
			<g>
				<path class="st0" d="M55.98,61.77c1.61-0.68,3.04-1.41,4.35-2.38c0.25-0.19,0.33-0.07,0.34,0.2c0.09,1.71,0.2,3.43,0.3,5.14
					c0.01,0.11,0.05,0.26-0.1,0.3c-0.07,0.02-0.18-0.04-0.26-0.09C59.1,63.9,57.59,62.87,55.98,61.77z"/>
			</g>
			<g>
				<path class="st0" d="M43.76,28.9c-1.49,0.59-2.91,1.35-4.21,2.32c-0.24,0.18-0.34,0.11-0.36-0.19c-0.1-1.74-0.2-3.47-0.31-5.21
					c-0.01-0.24,0.05-0.36,0.3-0.19c1.53,1.05,3.06,2.11,4.58,3.17C43.77,28.81,43.76,28.84,43.76,28.9z"/>
			</g>
			<g>
				<path class="st0" d="M66.38,39.28c-0.64-1.64-1.4-3.04-2.36-4.34c-0.13-0.17-0.25-0.37,0.13-0.39c1.83-0.1,3.66-0.19,5.65-0.3
					C68.63,35.97,67.54,37.57,66.38,39.28z"/>
			</g>
			<g>
				<path class="st0" d="M41.12,44.54c0.01-1.11,0.02-2.22,0.01-3.33c-0.01-0.38,0.11-0.53,0.51-0.51c0.63,0.04,1.44-0.19,1.84,0.12
					c0.43,0.34,0.12,1.19,0.13,1.81c0.02,1.54-0.01,3.09-0.01,4.63c0,0.88,0.5,1.41,1.32,1.42c0.84,0.01,1.41-0.54,1.42-1.4
					c0.02-1.98,0.04-3.96,0.02-5.94c-0.01-0.5,0.15-0.67,0.64-0.61c0.6,0.07,1.38-0.26,1.76,0.15c0.34,0.37,0.09,1.14,0.09,1.73
					c0,1.6-0.01,3.21-0.02,4.81c-0.01,1.88-1.08,3.16-2.96,3.39c-1.25,0.16-2.5,0.11-3.57-0.72c-0.75-0.58-1.17-1.34-1.18-2.29
					C41.11,46.72,41.13,45.63,41.12,44.54C41.13,44.54,41.13,44.54,41.12,44.54z"/>
			</g>
			<g>
				<path class="st0" d="M54.64,47.48c0.46-1.23,0.89-2.37,1.32-3.52c0.34-0.91,0.69-1.81,1.01-2.73c0.12-0.36,0.32-0.48,0.69-0.46
					c0.49,0.04,0.99,0.02,1.48,0.01c0.34-0.01,0.48,0.06,0.33,0.44c-1.17,3.07-2.32,6.14-3.47,9.22c-0.12,0.32-0.3,0.44-0.61,0.42
					c-0.04,0-0.08,0-0.12,0c-1.9,0.02-1.88,0.01-2.53-1.77c-0.94-2.59-1.88-5.17-2.86-7.74c-0.21-0.55-0.06-0.65,0.45-0.6
					c0.29,0.03,0.59,0.01,0.89,0.01c0.98,0.01,0.97,0.01,1.3,0.95c0.63,1.79,1.28,3.58,1.92,5.36
					C54.49,47.18,54.55,47.28,54.64,47.48z"/>
			</g>
		</g>
	</g>
	<g class="st1">
		<rect x="15" y="109.39" class="st0" width="70" height="2"/>
	</g>
</g>
</svg>
