<?xml version="1.0" encoding="utf-8"?>
<!-- Generator: Adobe Illustrator 24.2.1, SVG Export Plug-In . SVG Version: 6.00 Build 0)  -->
<svg version="1.1" id="Layer_1" xmlns="http://www.w3.org/2000/svg" xmlns:xlink="http://www.w3.org/1999/xlink" x="0px" y="0px"
	 viewBox="0 0 100 120" style="enable-background:new 0 0 100 120;" xml:space="preserve">
<style type="text/css">
	.st0{fill:#383838;}
</style>
<g>
	<g>
		<g>
			<path class="st0" d="M5.07,101.53c0.9-0.15,2.08-0.27,3.59-0.26c1.85,0.01,3.2,0.44,4.05,1.22c0.79,0.69,1.26,1.74,1.25,3.03
				c-0.01,1.31-0.4,2.34-1.13,3.08c-0.99,1.05-2.6,1.58-4.43,1.57c-0.56,0-1.07-0.03-1.5-0.14l-0.03,5.79L5,115.82L5.07,101.53z
				 M6.9,108.51c0.41,0.11,0.92,0.15,1.54,0.16c2.25,0.01,3.63-1.08,3.64-3.07c0.01-1.91-1.34-2.84-3.4-2.85
				c-0.82,0-1.44,0.06-1.76,0.14L6.9,108.51z"/>
		</g>
		<g>
			<path class="st0" d="M16.04,108.73c0.01-1.22-0.01-2.28-0.07-3.24l1.65,0.01l0.05,2.04h0.09c0.48-1.39,1.62-2.27,2.89-2.26
				c0.21,0,0.36,0.02,0.54,0.07l-0.01,1.78c-0.19-0.04-0.39-0.07-0.64-0.07c-1.33-0.01-2.28,1-2.54,2.41
				c-0.04,0.26-0.09,0.56-0.09,0.88l-0.03,5.54l-1.87-0.01L16.04,108.73z"/>
		</g>
		<g>
			<path class="st0" d="M32.24,110.67c-0.02,3.84-2.69,5.5-5.2,5.49c-2.81-0.01-4.97-2.08-4.95-5.37c0.02-3.48,2.3-5.5,5.18-5.49
				C30.25,105.32,32.25,107.5,32.24,110.67z M24,110.74c-0.01,2.27,1.29,4,3.13,4.01c1.8,0.01,3.16-1.68,3.17-4.02
				c0.01-1.76-0.86-3.99-3.09-4.01C24.98,106.71,24.01,108.77,24,110.74z"/>
		</g>
		<g>
			<path class="st0" d="M36.94,102.6l-0.01,2.98l2.7,0.01l-0.01,1.44l-2.7-0.01l-0.03,5.6c-0.01,1.29,0.36,2.02,1.41,2.02
				c0.49,0,0.86-0.06,1.1-0.12l0.08,1.42c-0.37,0.15-0.95,0.25-1.68,0.25c-0.88,0-1.59-0.29-2.03-0.8
				c-0.53-0.56-0.72-1.48-0.72-2.71l0.03-5.67l-1.61-0.01l0.01-1.44l1.61,0.01l0.01-2.49L36.94,102.6z"/>
		</g>
		<g>
			<path class="st0" d="M42.65,111.15c0.03,2.55,1.66,3.61,3.55,3.62c1.35,0.01,2.17-0.23,2.88-0.52l0.31,1.35
				c-0.67,0.3-1.81,0.64-3.46,0.63c-3.2-0.01-5.1-2.13-5.08-5.26c0.01-3.13,1.87-5.59,4.9-5.58c3.39,0.02,4.28,3,4.27,4.91
				c0,0.39-0.05,0.69-0.07,0.88L42.65,111.15z M48.19,109.83c0.03-1.2-0.48-3.07-2.6-3.08c-1.91-0.01-2.76,1.75-2.91,3.05
				L48.19,109.83z"/>
		</g>
		<g>
			<path class="st0" d="M59.73,115.7c-0.49,0.26-1.59,0.59-2.99,0.59c-3.13-0.01-5.16-2.15-5.15-5.32c0.01-3.2,2.21-5.5,5.61-5.49
				c1.12,0.01,2.1,0.29,2.62,0.55l-0.44,1.46c-0.45-0.26-1.16-0.5-2.19-0.5c-2.38-0.01-3.68,1.74-3.69,3.91
				c-0.01,2.4,1.53,3.89,3.59,3.9c1.07,0.01,1.78-0.27,2.32-0.5L59.73,115.7z"/>
		</g>
		<g>
			<path class="st0" d="M64.56,102.73l-0.01,2.98l2.7,0.01l-0.01,1.44l-2.7-0.01l-0.03,5.6c-0.01,1.29,0.36,2.02,1.41,2.02
				c0.49,0,0.86-0.06,1.1-0.12l0.08,1.42c-0.37,0.15-0.95,0.25-1.68,0.25c-0.88,0-1.59-0.29-2.03-0.8
				c-0.53-0.56-0.72-1.48-0.72-2.71l0.03-5.67l-1.61-0.01l0.01-1.44l1.61,0.01l0.01-2.49L64.56,102.73z"/>
		</g>
		<g>
			<path class="st0" d="M71.49,102.83c0.02,0.64-0.46,1.16-1.21,1.15c-0.67,0-1.13-0.52-1.13-1.16c0-0.67,0.5-1.18,1.19-1.17
				C71.05,101.65,71.49,102.17,71.49,102.83z M69.32,116.13l0.05-10.39l1.89,0.01l-0.05,10.39L69.32,116.13z"/>
		</g>
		<g>
			<path class="st0" d="M83.77,110.92c-0.02,3.84-2.69,5.5-5.2,5.49c-2.81-0.01-4.97-2.08-4.95-5.37c0.02-3.48,2.3-5.5,5.18-5.49
				C81.78,105.56,83.79,107.74,83.77,110.92z M75.53,110.98c-0.01,2.27,1.29,4,3.14,4.01c1.8,0.01,3.16-1.68,3.17-4.02
				c0.01-1.76-0.86-3.99-3.09-4.01C76.51,106.95,75.54,109.01,75.53,110.98z"/>
		</g>
		<g>
			<path class="st0" d="M86.17,108.63c0.01-1.07-0.01-1.95-0.07-2.81l1.67,0.01l0.1,1.72l0.04,0c0.52-0.98,1.73-1.95,3.44-1.94
				c1.44,0.01,3.67,0.88,3.65,4.44l-0.03,6.2l-1.89-0.01l0.03-5.99c0.01-1.67-0.61-3.07-2.39-3.08c-1.24-0.01-2.21,0.87-2.54,1.92
				c-0.09,0.24-0.13,0.56-0.13,0.88l-0.03,6.24l-1.89-0.01L86.17,108.63z"/>
		</g>
	</g>
	<g>
		<g>
			<path class="st0" d="M49.73,95.8c-0.56,0-1.14-0.14-1.73-0.41c-4.76-2.19-9.32-4.69-13.55-7.44c-4.99-3.24-9.01-6.48-12.3-9.91
				c-4.14-4.33-6.66-8.41-7.93-12.85c-0.49-1.71-0.74-3.44-0.73-5.11c0.02-5.89,0.05-11.79,0.08-17.68
				c0.03-6.84,0.06-13.68,0.09-20.52c0.01-1.85,1.19-2.41,2.18-2.55c5.98-0.84,11.67-2.57,16.9-5.15
				c5.51-2.72,10.54-6.35,14.95-10.78l0.46-0.46c0.57-0.57,1.11-1.11,1.99-1.11c0.01,0,0.02,0,0.02,0c0.89,0.01,1.44,0.58,1.97,1.13
				c4.61,4.8,9.85,8.68,15.59,11.52c5.07,2.51,10.43,4.22,15.92,5.06c2.2,0.34,2.79,1.03,2.78,3.22l-0.09,18.86
				c-0.01,1.77-0.02,3.53-0.04,5.3c-0.03,4.02-0.07,8.18-0.02,12.26c0.05,4.65-1.26,8.95-3.99,13.13c-2.47,3.78-5.7,7.2-10.15,10.74
				c-5.1,4.06-10.82,7.6-17.49,10.83c-0.45,0.22-0.9,0.42-1.35,0.63c-0.61,0.28-1.21,0.55-1.8,0.85
				C50.9,95.65,50.32,95.8,49.73,95.8z M16.9,22.46c-0.02,6.65-0.05,13.3-0.09,19.96c-0.03,5.89-0.05,11.79-0.08,17.68
				c-0.01,1.37,0.2,2.79,0.6,4.21c1.12,3.91,3.39,7.56,7.15,11.49c3.16,3.3,6.88,6.29,11.72,9.43c4.1,2.66,8.52,5.09,13.14,7.21
				c0.36,0.17,0.44,0.12,0.63,0.03c0.64-0.33,1.29-0.62,1.94-0.92c0.43-0.2,0.86-0.39,1.28-0.6c6.45-3.12,11.97-6.53,16.88-10.44
				c4.17-3.32,7.18-6.49,9.46-9.98c2.37-3.63,3.5-7.33,3.46-11.31c-0.04-4.11-0.01-8.28,0.02-12.32c0.01-1.76,0.03-3.53,0.04-5.29
				l0.09-18.85c-5.85-0.9-11.52-2.7-16.9-5.36c-5.94-2.94-11.37-6.92-16.15-11.84l-0.13,0.13c-4.66,4.69-9.98,8.53-15.82,11.4
				C28.81,19.74,23,21.54,16.9,22.46z"/>
		</g>
		<g>
			<path class="st0" d="M69.89,48.96c0.09,10.57-8.67,19.92-20.07,19.86c-11.42-0.05-20.08-9.56-19.92-20.37
				c0.16-10.72,9.26-19.83,20.3-19.68C60.97,28.93,70.16,38.04,69.89,48.96z M49.79,65.22c9.01,0.01,16.44-7.1,16.53-16.27
				C66.4,39.87,59.15,32.45,50,32.4c-9.15-0.05-16.38,7.26-16.49,16.22C33.4,57.71,40.77,65.17,49.79,65.22z"/>
		</g>
		<g>
			<path class="st0" d="M34.99,73.13c0.17-2.12,0.35-4.36,0.52-6.61c0.03-0.35,0.09-0.49,0.43-0.21c1.52,1.24,3.19,2.23,4.99,3.01
				c0.41,0.18,0.38,0.32,0.04,0.54c-1.84,1.2-3.68,2.41-5.52,3.62c-0.12,0.08-0.25,0.21-0.41,0.12
				C34.91,73.52,34.96,73.37,34.99,73.13z"/>
		</g>
		<g>
			<path class="st0" d="M26.32,33.93c1.9,0.15,3.84,0.32,5.77,0.46c0.57,0.04,0.5,0.18,0.21,0.56c-1.15,1.48-2.15,3.06-2.87,4.8
				c-0.24,0.57-0.41,0.4-0.66,0.01c-1.13-1.74-2.27-3.46-3.4-5.2c-0.1-0.16-0.34-0.32-0.24-0.52c0.13-0.26,0.41-0.07,0.62-0.09
				C25.92,33.91,26.1,33.93,26.32,33.93z"/>
		</g>
		<g>
			<path class="st0" d="M46.07,70.92c1.68,0.27,3.19,0.3,4.7,0.27c0.51-0.01,1.01,0.02,1.51-0.11c0.16-0.04,0.37-0.11,0.49,0.06
				c0.11,0.17-0.05,0.34-0.12,0.49c-0.96,1.9-1.91,3.79-2.88,5.69c-0.07,0.15-0.12,0.39-0.34,0.34c-0.11-0.03-0.21-0.2-0.27-0.33
				C48.16,75.26,47.17,73.19,46.07,70.92z"/>
		</g>
		<g>
			<path class="st0" d="M64.28,31.59c-1.85-1.48-3.72-2.61-5.87-3.54c1.01-0.67,1.89-1.25,2.76-1.82c1.06-0.69,2.12-1.38,3.17-2.07
				c0.12-0.08,0.22-0.23,0.39-0.15c0.14,0.06,0.13,0.2,0.12,0.33C64.67,26.69,64.48,29.05,64.28,31.59z"/>
		</g>
		<g>
			<path class="st0" d="M27.8,44.97c-0.3,2.19-0.42,4.23-0.15,6.27c0.06,0.45-0.08,0.53-0.5,0.32c-1.91-0.98-3.83-1.93-5.75-2.89
				c-0.33-0.16-0.58-0.34-0.08-0.59C23.43,47.06,25.55,46.05,27.8,44.97z"/>
		</g>
		<g>
			<path class="st0" d="M67.13,63.16c1.49-1.83,2.6-3.71,3.54-5.86c0.92,1.4,1.75,2.66,2.58,3.92c0.46,0.7,0.92,1.4,1.38,2.1
				c0.21,0.32,0.15,0.47-0.25,0.44C72.04,63.56,69.69,63.37,67.13,63.16z"/>
		</g>
		<g>
			<path class="st0" d="M72.04,52.48c0.32-2.17,0.38-4.35,0.09-6.68c0.82,0.41,1.52,0.75,2.21,1.1c1.38,0.69,2.75,1.39,4.13,2.09
				c0.31,0.16,0.51,0.31,0.06,0.53c-2.1,1.01-4.2,2.01-6.3,3.01C72.2,52.54,72.14,52.5,72.04,52.48z"/>
		</g>
		<g>
			<path class="st0" d="M53.75,26.71c-2.16-0.28-4.15-0.46-6.14-0.17c-0.53,0.08-0.69-0.04-0.41-0.59c0.98-1.88,1.92-3.78,2.88-5.68
				c0.12-0.23,0.27-0.63,0.53-0.11C51.64,22.29,52.66,24.43,53.75,26.71z"/>
		</g>
		<g>
			<path class="st0" d="M25.17,62.94c-0.14-0.04-0.39,0.14-0.51-0.1c-0.08-0.18,0.11-0.32,0.2-0.46c1.18-1.74,2.36-3.47,3.55-5.2
				c0.11-0.16,0.18-0.42,0.41-0.41c0.24,0.01,0.25,0.29,0.32,0.47c0.7,1.66,1.54,3.24,2.62,4.69c0.28,0.38,0.42,0.63-0.27,0.66
				C29.39,62.67,27.3,62.81,25.17,62.94z"/>
		</g>
		<g>
			<path class="st0" d="M57.66,69.88c2.06-0.87,3.9-1.81,5.57-3.05c0.32-0.24,0.42-0.09,0.44,0.26c0.12,2.19,0.26,4.39,0.39,6.58
				c0.01,0.14,0.07,0.34-0.12,0.39c-0.09,0.03-0.24-0.05-0.33-0.12C61.66,72.62,59.72,71.29,57.66,69.88z"/>
		</g>
		<g>
			<path class="st0" d="M42.02,27.81c-1.91,0.75-3.73,1.73-5.4,2.97c-0.3,0.23-0.44,0.14-0.46-0.24c-0.12-2.22-0.26-4.45-0.39-6.67
				c-0.02-0.31,0.07-0.46,0.38-0.25c1.96,1.35,3.91,2.7,5.87,4.06C42.03,27.69,42.02,27.72,42.02,27.81z"/>
		</g>
		<g>
			<path class="st0" d="M70.97,41.09c-0.82-2.1-1.79-3.9-3.02-5.55c-0.16-0.22-0.31-0.47,0.16-0.5c2.35-0.12,4.69-0.25,7.23-0.38
				C73.86,36.85,72.46,38.91,70.97,41.09z"/>
		</g>
		<g>
			<path class="st0" d="M38.64,47.83c0.01-1.42,0.03-2.84,0.01-4.26c-0.01-0.49,0.14-0.68,0.65-0.65c0.81,0.05,1.85-0.24,2.36,0.16
				c0.55,0.43,0.16,1.52,0.17,2.32c0.02,1.98-0.01,3.95-0.01,5.93c0,1.13,0.64,1.81,1.69,1.81c1.07,0.01,1.81-0.69,1.82-1.8
				c0.03-2.54,0.05-5.07,0.02-7.61c-0.01-0.65,0.19-0.86,0.81-0.79c0.77,0.09,1.77-0.33,2.26,0.2c0.44,0.48,0.11,1.45,0.11,2.21
				c0.01,2.05-0.01,4.11-0.03,6.16c-0.01,2.41-1.38,4.04-3.79,4.35c-1.6,0.2-3.2,0.14-4.57-0.93c-0.96-0.74-1.49-1.71-1.51-2.93
				c-0.02-1.39,0.01-2.79,0.01-4.18C38.65,47.83,38.64,47.83,38.64,47.83z"/>
		</g>
		<g>
			<path class="st0" d="M55.95,51.6c0.59-1.57,1.14-3.04,1.69-4.5c0.44-1.16,0.89-2.32,1.29-3.49c0.16-0.47,0.4-0.62,0.89-0.58
				c0.63,0.05,1.27,0.03,1.9,0.01c0.43-0.01,0.61,0.08,0.43,0.56c-1.49,3.93-2.98,7.86-4.44,11.8c-0.15,0.41-0.38,0.57-0.78,0.53
				c-0.05,0-0.1,0-0.15,0c-2.43,0.02-2.41,0.01-3.24-2.27c-1.2-3.31-2.41-6.62-3.66-9.91c-0.27-0.71-0.08-0.84,0.57-0.77
				c0.38,0.04,0.76,0.01,1.14,0.01c1.25,0.01,1.24,0.01,1.67,1.22c0.81,2.29,1.63,4.58,2.45,6.87
				C55.75,51.21,55.82,51.34,55.95,51.6z"/>
		</g>
	</g>
</g>
</svg>
