<?xml version="1.0" encoding="utf-8"?>
<!-- Generator: Adobe Illustrator 24.2.1, SVG Export Plug-In . SVG Version: 6.00 Build 0)  -->
<svg version="1.1" id="Layer_1" xmlns="http://www.w3.org/2000/svg" xmlns:xlink="http://www.w3.org/1999/xlink" x="0px" y="0px"
	 viewBox="0 0 100 130" style="enable-background:new 0 0 100 130;" xml:space="preserve">
<style type="text/css">
	.st0{fill:#FFFFFF;}
</style>
<g>
	<path class="st0" d="M17.6,109.5c-0.4,1.6-0.8,3-1,4.4h0c-0.2-1.3-0.5-2.8-0.9-4.3l-1.5-6.4h-1.7l-1.7,6.4c-0.4,1.6-0.8,3.1-1,4.4
		h0c-0.2-1.2-0.6-2.8-0.9-4.4l-1.5-6.4H5.5l3.2,12.6h1.7l1.8-6.6c0.5-1.6,0.8-2.9,1-4.1h0c0.2,1.3,0.4,2.5,0.8,4.1l1.6,6.6h1.7
		l3.6-12.6h-1.7L17.6,109.5z"/>
	<path class="st0" d="M28.2,110.2c0-1.8-0.7-3.7-3.5-3.7c-1.1,0-2.2,0.3-3,0.8l0.4,1.1c0.6-0.4,1.5-0.7,2.4-0.7
		c1.9,0,2.1,1.3,2.1,2.1v0.2c-3.5,0-5.5,1.2-5.5,3.4c0,1.3,0.9,2.6,2.8,2.6c1.3,0,2.3-0.6,2.8-1.3h0.1l0.1,1.1h1.5
		c-0.1-0.6-0.1-1.4-0.1-2.2C28.2,113.6,28.2,110.2,28.2,110.2z M26.6,112.7c0,0.2,0,0.4-0.1,0.5c-0.3,0.8-1,1.5-2.2,1.5
		c-0.8,0-1.6-0.5-1.6-1.6c0-1.8,2-2.1,3.9-2L26.6,112.7L26.6,112.7z"/>
	<path class="st0" d="M32.8,104.1l-1.6,0.4v2.2h-1.4v1.3h1.4v4.9c0,1.1,0.2,1.9,0.6,2.4c0.4,0.4,1,0.7,1.8,0.7
		c0.6,0,1.1-0.1,1.5-0.2l-0.1-1.2c-0.2,0.1-0.5,0.1-1,0.1c-0.9,0-1.2-0.6-1.2-1.8v-4.9h2.4v-1.3h-2.4L32.8,104.1L32.8,104.1z"/>
	<path class="st0" d="M40.5,106.5c-2.6,0-4.3,2.2-4.3,4.9s1.7,4.6,4.5,4.6c1.4,0,2.4-0.3,3-0.6l-0.3-1.2c-0.6,0.3-1.3,0.5-2.5,0.5
		c-1.7,0-3.1-0.9-3.1-3.2h6.4c0-0.2,0.1-0.4,0.1-0.8C44.2,109.1,43.4,106.5,40.5,106.5z M37.8,110.3c0.1-1.1,0.9-2.7,2.5-2.7
		c1.9,0,2.3,1.6,2.3,2.7H37.8z"/>
	<path class="st0" d="M47.8,108.4L47.8,108.4l-0.1-1.8h-1.4c0.1,0.8,0.1,1.8,0.1,2.8v6.2h1.6v-4.8c0-0.3,0-0.5,0.1-0.8
		c0.2-1.2,1-2.1,2.2-2.1c0.2,0,0.4,0,0.6,0.1v-1.6c-0.2,0-0.3-0.1-0.5-0.1C49.2,106.5,48.2,107.2,47.8,108.4z"/>
	<path class="st0" d="M57.2,106.5c-1.5,0-2.5,0.7-3.2,1.8h0l-0.1-1.6h-1.5c0,0.9,0.1,1.8,0.1,3v9.8h1.6v-4.9h0
		c0.5,0.9,1.6,1.4,2.8,1.4c2.1,0,4.1-1.6,4.1-4.9C61.1,108.3,59.4,106.5,57.2,106.5z M56.7,114.7c-1.2,0-2.2-0.8-2.5-1.9
		c0-0.2-0.1-0.4-0.1-0.7v-1.6c0-0.2,0.1-0.5,0.1-0.7c0.3-1.2,1.4-2,2.5-2c1.7,0,2.7,1.6,2.7,3.4C59.4,113.2,58.4,114.7,56.7,114.7z"
		/>
	<path class="st0" d="M64.7,108.4L64.7,108.4l-0.1-1.8h-1.4c0.1,0.8,0.1,1.8,0.1,2.8v6.2h1.6v-4.8c0-0.3,0-0.5,0.1-0.8
		c0.2-1.2,1.1-2.1,2.2-2.1c0.2,0,0.4,0,0.6,0.1v-1.6c-0.2,0-0.3-0.1-0.5-0.1C66.1,106.5,65.1,107.2,64.7,108.4z"/>
	<path class="st0" d="M72.9,106.5c-2.5,0-4.5,1.8-4.5,4.8c0,2.9,1.9,4.7,4.3,4.7c2.2,0,4.5-1.5,4.5-4.8
		C77.3,108.4,75.6,106.5,72.9,106.5z M72.9,114.7c-1.6,0-2.8-1.5-2.8-3.5c0-1.7,0.8-3.5,2.8-3.5c1.9,0,2.7,1.9,2.7,3.5
		C75.6,113.2,74.4,114.7,72.9,114.7z"/>
	<path class="st0" d="M83.2,106.5c-2.5,0-4.5,1.8-4.5,4.8c0,2.9,1.9,4.7,4.3,4.7c2.2,0,4.5-1.5,4.5-4.8
		C87.6,108.4,85.8,106.5,83.2,106.5z M83.2,114.7c-1.6,0-2.8-1.5-2.8-3.5c0-1.7,0.8-3.5,2.8-3.5c1.9,0,2.7,1.9,2.7,3.5
		C85.9,113.2,84.7,114.7,83.2,114.7z"/>
	<path class="st0" d="M93.3,103.6c0.5,0,0.8,0.1,1.1,0.2l0.2-1.3c-0.3-0.1-0.8-0.3-1.4-0.3c-0.8,0-1.6,0.2-2.2,0.8
		c-0.8,0.7-1.1,1.9-1.1,3.2v0.4h-1.3v1.3h1.3v7.8h1.6v-7.8h2.2v-1.3h-2.2v-0.5C91.5,104.8,91.8,103.6,93.3,103.6z"/>
	<path class="st0" d="M37.5,82c32.3,0,0-43.4,0-43.4S5.2,82,37.5,82z M27.1,69.5c1.7,4.6,6.6,9.1,6.6,9.1
		C25.8,77.4,27.1,69.5,27.1,69.5z"/>
	<path class="st0" d="M66.8,69.1c22.7,0,0-30.5,0-30.5S44.1,69.1,66.8,69.1z M59.3,58.9c1.1,3,4.3,6,4.3,6
		C58.5,64.1,59.3,58.9,59.3,58.9z"/>
	<path class="st0" d="M52,39.2c18.1,0,0-24.3,0-24.3S33.9,39.2,52,39.2z M46.2,32.3c0.9,2.6,3.7,5.1,3.7,5.1
		C45.5,36.7,46.2,32.3,46.2,32.3z"/>
	<path class="st0" d="M50,93.5c22.9,0,41.5-18.6,41.5-41.5S72.9,10.5,50,10.5S8.5,29.1,8.5,52S27.1,93.5,50,93.5z M50,13.6
		c21.2,0,38.4,17.2,38.4,38.4S71.2,90.4,50,90.4S11.6,73.2,11.6,52S28.8,13.6,50,13.6z"/>
</g>
</svg>
