<?xml version="1.0" encoding="utf-8"?>
<!-- Generator: Adobe Illustrator 24.2.1, SVG Export Plug-In . SVG Version: 6.00 Build 0)  -->
<svg version="1.1" id="Layer_1" xmlns="http://www.w3.org/2000/svg" xmlns:xlink="http://www.w3.org/1999/xlink" x="0px" y="0px"
	 viewBox="0 0 100 120" style="enable-background:new 0 0 100 120;" xml:space="preserve">
<style type="text/css">
	.st0{fill:#383838;}
</style>
<g>
	<g>
		<g>
			<path class="st0" d="M6.1,102.3L3.2,91.5l1.5,0l1.3,5.5c0.3,1.4,0.6,2.7,0.8,3.7h0c0.2-1.1,0.5-2.4,0.9-3.8l1.4-5.5l1.5,0
				l1.4,5.5c0.3,1.3,0.6,2.6,0.8,3.7h0c0.2-1.2,0.5-2.4,0.8-3.8l1.4-5.5l1.4,0l-3,10.9l-1.5,0l-1.4-5.6c-0.4-1.4-0.6-2.4-0.7-3.5h0
				c-0.2,1.1-0.4,2.1-0.8,3.6l-1.5,5.7L6.1,102.3z"/>
		</g>
		<g>
			<path class="st0" d="M18.1,98.5c0,1.9,1.3,2.7,2.7,2.7c1,0,1.6-0.2,2.2-0.4l0.2,1c-0.5,0.2-1.3,0.5-2.6,0.5
				c-2.4,0-3.8-1.5-3.9-3.9c0-2.4,1.3-4.2,3.6-4.2c2.5,0,3.2,2.2,3.3,3.6c0,0.3,0,0.5,0,0.7L18.1,98.5z M22.3,97.5
				c0-0.9-0.4-2.3-2-2.3c-1.4,0-2.1,1.3-2.2,2.3L22.3,97.5z"/>
		</g>
		<g>
			<path class="st0" d="M29.7,102.1l-0.1-1l0,0c-0.4,0.6-1.3,1.2-2.4,1.2c-1.6,0-2.4-1.1-2.4-2.2c0-1.9,1.6-2.9,4.7-2.9l0-0.2
				c0-0.6-0.2-1.8-1.8-1.8c-0.7,0-1.5,0.2-2,0.6l-0.3-0.9c0.6-0.4,1.6-0.7,2.6-0.7c2.4,0,3,1.6,3,3.2l0,2.9c0,0.7,0,1.3,0.1,1.9
				L29.7,102.1z M29.5,98.1c-1.5,0-3.3,0.3-3.3,1.8c0,0.9,0.6,1.3,1.3,1.3c1,0,1.7-0.7,1.9-1.3c0-0.1,0.1-0.3,0.1-0.5L29.5,98.1z"/>
		</g>
		<g>
			<path class="st0" d="M34.7,92l0,2.2l2,0l0,1.1l-2,0l0,4.2c0,1,0.3,1.5,1.1,1.5c0.4,0,0.6-0.1,0.8-0.1l0.1,1.1
				c-0.3,0.1-0.7,0.2-1.3,0.2c-0.7,0-1.2-0.2-1.5-0.6c-0.4-0.4-0.6-1.1-0.6-2l0-4.3l-1.2,0l0-1.1l1.2,0l0-1.9L34.7,92z"/>
		</g>
		<g>
			<path class="st0" d="M38.3,90.6l1.4,0l0,4.9h0c0.2-0.4,0.6-0.8,1-1c0.4-0.2,0.9-0.4,1.4-0.4c1,0,2.7,0.6,2.8,3.3l0,4.6l-1.4,0
				l0-4.5c0-1.3-0.5-2.3-1.8-2.3c-0.9,0-1.6,0.7-1.9,1.4c-0.1,0.2-0.1,0.4-0.1,0.7l0,4.7l-1.4,0L38.3,90.6z"/>
		</g>
		<g>
			<path class="st0" d="M48.1,98.3c0,1.9,1.3,2.7,2.7,2.7c1,0,1.6-0.2,2.2-0.4l0.2,1c-0.5,0.2-1.3,0.5-2.6,0.5
				c-2.4,0-3.8-1.5-3.9-3.9s1.3-4.2,3.6-4.2c2.5,0,3.2,2.2,3.3,3.6c0,0.3,0,0.5,0,0.7L48.1,98.3z M52.3,97.2c0-0.9-0.4-2.3-2-2.3
				c-1.4,0-2,1.3-2.2,2.3L52.3,97.2z"/>
		</g>
		<g>
			<path class="st0" d="M55.4,96.5c0-0.9,0-1.7-0.1-2.4l1.2,0l0.1,1.5l0.1,0c0.3-1,1.2-1.7,2.1-1.7c0.2,0,0.3,0,0.4,0l0,1.3
				c-0.1,0-0.3,0-0.5,0c-1,0-1.7,0.8-1.9,1.8c0,0.2-0.1,0.4-0.1,0.7l0,4.2l-1.4,0L55.4,96.5z"/>
		</g>
		<g>
			<path class="st0" d="M60.7,96.6c0-1,0-1.8-0.1-2.5l1.3,0l0.1,1.3h0c0.6-1,1.5-1.5,2.8-1.5c1.9,0,3.3,1.6,3.3,3.9
				c0,2.8-1.7,4.2-3.5,4.2c-1,0-1.9-0.4-2.4-1.2h0l0,4.2l-1.4,0L60.7,96.6z M62.1,98.6c0,0.2,0,0.4,0.1,0.6c0.3,1,1.1,1.6,2.1,1.6
				c1.5,0,2.4-1.2,2.3-3c0-1.6-0.8-2.9-2.3-2.9c-1,0-1.9,0.7-2.1,1.8c0,0.2-0.1,0.4-0.1,0.6L62.1,98.6z"/>
		</g>
		<g>
			<path class="st0" d="M69.9,96.4c0-0.9,0-1.7-0.1-2.4l1.2,0l0.1,1.5l0.1,0c0.3-1,1.2-1.7,2.1-1.7c0.2,0,0.3,0,0.4,0l0,1.3
				c-0.1,0-0.3,0-0.5,0c-1,0-1.7,0.8-1.9,1.8c0,0.2-0.1,0.4-0.1,0.7l0,4.2l-1.4,0L69.9,96.4z"/>
		</g>
		<g>
			<path class="st0" d="M82.1,97.7c0,2.9-2,4.2-3.8,4.2c-2.1,0-3.8-1.5-3.8-4c0-2.6,1.7-4.2,3.8-4.2C80.5,93.7,82,95.3,82.1,97.7z
				 M75.9,97.8c0,1.7,1,3,2.4,3c1.4,0,2.4-1.3,2.3-3c0-1.3-0.7-3-2.4-3C76.6,94.8,75.9,96.3,75.9,97.8z"/>
		</g>
		<g>
			<path class="st0" d="M90.9,97.6c0,2.9-2,4.2-3.8,4.2c-2.1,0-3.8-1.5-3.8-4c0-2.6,1.7-4.2,3.8-4.2C89.3,93.6,90.9,95.2,90.9,97.6z
				 M84.7,97.7c0,1.7,1,3,2.4,3c1.4,0,2.4-1.3,2.3-3c0-1.3-0.7-3-2.4-3C85.4,94.7,84.7,96.2,84.7,97.7z"/>
		</g>
		<g>
			<path class="st0" d="M92.9,101.5l-0.1-6.7l-1.1,0l0-1.1l1.1,0l0-0.4c0-1.1,0.2-2.1,0.9-2.7c0.5-0.5,1.2-0.7,1.9-0.7
				c0.5,0,0.9,0.1,1.2,0.2l-0.2,1.1c-0.2-0.1-0.5-0.2-0.9-0.2c-1.2,0-1.5,1.1-1.5,2.3l0,0.4l1.9,0l0,1.1l-1.9,0l0.1,6.7L92.9,101.5z
				"/>
		</g>
	</g>
	<g>
		<g>
			<g id="KNwPzr.tif_21_">
				<g>
					<g>
						<g>
							<path class="st0" d="M82.1,80.4c0,0.1,0,0.1-0.1,0.2c-0.5,0.8-1.1,1.6-1.7,2.4c-0.2,0.4-0.1,0.8,0.3,0.9
								c0.2,0.1,0.4,0,0.6-0.2c0.2-0.3,0.5-0.7,0.7-1c0-0.1,0.1-0.1,0.2-0.2c0,0.1,0,0.2,0,0.2c0,0.8,0,1.5,0,2.3
								c0,0.3,0.2,0.5,0.4,0.5c0.2,0.1,0.5,0,0.6-0.2c0.1-0.1,0.1-0.3,0.1-0.4c0-0.7,0-1.5,0-2.2c0-0.1,0-0.1,0-0.2c0,0,0,0,0,0
								c0.2,0.3,0.5,0.7,0.7,1c0.1,0.1,0.1,0.2,0.2,0.2c0.2,0.3,0.5,0.3,0.8,0.1c0.2-0.2,0.3-0.5,0.1-0.8c-0.4-0.6-0.8-1.1-1.2-1.7
								c-0.2-0.3-0.5-0.6-0.6-0.9c-0.1-0.3,0-0.7,0-1.1c0-0.7,0-1.4,0-2.1c0.1,0,0.1,0,0.1,0.1c0.8,0.5,1.7,0.9,2.5,1.4
								c0.1,0,0.2,0.1,0.2,0.2c0.4,0.9,0.9,1.8,1.3,2.6c0.2,0.3,0.5,0.4,0.7,0.3c0.3-0.1,0.4-0.5,0.2-0.8c-0.2-0.4-0.4-0.8-0.5-1.1
								c0-0.1,0-0.1-0.1-0.2c0.3,0.2,0.6,0.4,0.9,0.5c0.4,0.2,0.8,0.5,1.2,0.7c0.3,0.2,0.6,0.1,0.8-0.2c0.2-0.3,0.1-0.6-0.3-0.8
								c-0.7-0.4-1.3-0.7-2-1.1c-0.1,0-0.1-0.1-0.2-0.1c0.5,0,1-0.1,1.4-0.1c0.4,0,0.6-0.3,0.6-0.6c0-0.3-0.3-0.5-0.7-0.5
								c-1,0.1-1.9,0.2-2.9,0.3c-0.1,0-0.2,0-0.2,0c-0.9-0.5-1.8-1-2.7-1.5c0.2-0.1,0.4-0.2,0.6-0.3c0.7-0.4,1.4-0.8,2-1.2
								c0.1,0,0.2-0.1,0.3-0.1c0.7,0,1.5,0.1,2.2,0.1c0.2,0,0.5,0,0.7,0.1c0.3,0,0.6-0.2,0.6-0.5c0-0.3-0.2-0.6-0.5-0.6
								c-0.4,0-0.8-0.1-1.3-0.1c-0.1,0-0.1,0-0.2-0.1c0.3-0.2,0.5-0.3,0.8-0.5c0.4-0.3,0.9-0.5,1.3-0.8c0.3-0.2,0.4-0.5,0.3-0.8
								c-0.2-0.3-0.5-0.4-0.8-0.2c-0.7,0.4-1.3,0.8-2,1.2c0,0-0.1,0-0.1,0.1c0.2-0.4,0.4-0.8,0.5-1.2c0-0.1,0.1-0.2,0.1-0.3
								c0.1-0.3,0-0.6-0.3-0.7c-0.3-0.1-0.6,0-0.7,0.3c-0.4,0.9-0.8,1.8-1.3,2.7c0,0.1-0.1,0.2-0.2,0.2c-0.8,0.5-1.6,1-2.4,1.4
								c-0.1,0-0.1,0.1-0.2,0.1c0-0.1,0-0.1,0-0.2c0-0.9,0-1.9,0-2.8c0-0.1,0-0.2,0.1-0.3c0.5-0.8,1.1-1.6,1.6-2.4
								c0.1-0.2,0.2-0.4,0-0.6c-0.1-0.2-0.3-0.3-0.5-0.2c-0.2,0-0.3,0.1-0.4,0.3c-0.3,0.4-0.5,0.8-0.8,1.2c0-0.1,0-0.2,0-0.2
								c0-0.8,0-1.5,0-2.3c0-0.4-0.2-0.6-0.6-0.6c-0.3,0-0.5,0.2-0.5,0.6c0,0.8,0,1.5,0,2.3c0,0.1,0,0.1,0,0.2c0,0,0,0,0,0
								c0-0.1-0.1-0.1-0.1-0.2c-0.2-0.3-0.5-0.7-0.7-1c-0.2-0.3-0.5-0.4-0.8-0.2c-0.3,0.2-0.3,0.5-0.1,0.8c0.5,0.8,1.1,1.6,1.6,2.3
								c0.1,0.1,0.1,0.2,0.1,0.4c0,0.9,0,1.9,0,2.8c0,0,0,0.1,0,0.1c-0.2-0.1-0.5-0.3-0.7-0.4c-0.6-0.4-1.3-0.7-1.9-1.1
								c-0.1-0.1-0.2-0.1-0.2-0.2c-0.4-0.9-0.9-1.8-1.3-2.6c-0.2-0.3-0.4-0.4-0.7-0.3c-0.3,0.1-0.4,0.4-0.3,0.7
								c0.2,0.4,0.4,0.9,0.7,1.4c-0.2-0.1-0.4-0.2-0.5-0.3c-0.6-0.3-1.1-0.6-1.7-0.9c-0.3-0.2-0.6-0.1-0.8,0.2
								c-0.2,0.3-0.1,0.6,0.3,0.8c0.6,0.4,1.3,0.7,1.9,1.1c0.1,0,0.1,0.1,0.2,0.1c-0.3,0-0.5,0.1-0.8,0.1c-0.2,0-0.5,0-0.7,0
								c-0.3,0-0.5,0.2-0.6,0.4c-0.1,0.2,0,0.5,0.2,0.6c0.1,0.1,0.3,0.1,0.4,0.1c0.9-0.1,1.8-0.1,2.7-0.2c0.3,0,0.6,0,0.8,0.2
								c0.8,0.4,1.5,0.9,2.3,1.3c0,0,0,0,0.1,0.1c-0.3,0.2-0.7,0.4-1,0.6c-0.5,0.3-1.1,0.6-1.6,1c-0.1,0.1-0.2,0.1-0.3,0.1
								c-1-0.1-2-0.1-2.9-0.2c-0.3,0-0.6,0.2-0.6,0.5c0,0.3,0.2,0.6,0.6,0.6c0.5,0,1,0.1,1.5,0.1c-0.2,0.1-0.4,0.2-0.5,0.3
								c-0.6,0.3-1.1,0.7-1.7,1c-0.2,0.1-0.3,0.3-0.3,0.6c0,0.2,0.2,0.4,0.5,0.4c0.1,0,0.3,0,0.4-0.1c0.7-0.4,1.3-0.8,2-1.1
								c0,0,0.1,0,0.2-0.1c0,0.1-0.1,0.2-0.1,0.2c-0.2,0.4-0.4,0.8-0.6,1.2c-0.1,0.3,0,0.5,0.2,0.7c0.2,0.1,0.5,0.1,0.7-0.1
								c0.1-0.1,0.1-0.2,0.2-0.3c0.4-0.9,0.8-1.7,1.2-2.6c0-0.1,0.1-0.1,0.1-0.2c0.9-0.5,1.7-1,2.6-1.5c0,0,0,0,0.1,0
								C82.1,78.3,82.1,79.3,82.1,80.4z"/>
						</g>
					</g>
					<g>
						<g>
							<path class="st0" d="M82.1,77.3c0,1.1,0,2.1,0,3.1c0,0.1,0,0.1-0.1,0.2c-0.5,0.8-1.1,1.6-1.7,2.4c-0.2,0.4-0.1,0.8,0.3,0.9
								c0.2,0.1,0.4,0,0.6-0.2c0.2-0.3,0.5-0.7,0.7-1c0-0.1,0.1-0.1,0.2-0.2c0,0.1,0,0.2,0,0.2c0,0.8,0,1.5,0,2.3
								c0,0.3,0.2,0.5,0.4,0.5c0.2,0.1,0.5,0,0.6-0.2c0.1-0.1,0.1-0.3,0.1-0.4c0-0.7,0-1.5,0-2.2c0-0.1,0-0.1,0-0.2c0,0,0,0,0,0
								c0.2,0.3,0.5,0.7,0.7,1c0.1,0.1,0.1,0.2,0.2,0.2c0.2,0.3,0.5,0.3,0.8,0.1c0.2-0.2,0.3-0.5,0.1-0.8c-0.4-0.6-0.8-1.1-1.2-1.7
								c-0.2-0.3-0.5-0.6-0.6-0.9c-0.1-0.3,0-0.7,0-1.1c0-0.7,0-1.4,0-2.1c0.1,0,0.1,0,0.1,0.1c0.8,0.5,1.7,0.9,2.5,1.4
								c0.1,0,0.2,0.1,0.2,0.2c0.4,0.9,0.9,1.8,1.3,2.6c0.2,0.3,0.5,0.4,0.7,0.3c0.3-0.1,0.4-0.5,0.2-0.8c-0.2-0.4-0.4-0.8-0.5-1.1
								c0-0.1,0-0.1-0.1-0.2c0.3,0.2,0.6,0.4,0.9,0.5c0.4,0.2,0.8,0.5,1.2,0.7c0.3,0.2,0.6,0.1,0.8-0.2c0.2-0.3,0.1-0.6-0.3-0.8
								c-0.7-0.4-1.3-0.7-2-1.1c-0.1,0-0.1-0.1-0.2-0.1c0.5,0,1-0.1,1.4-0.1c0.4,0,0.6-0.3,0.6-0.6c0-0.3-0.3-0.5-0.7-0.5
								c-1,0.1-1.9,0.2-2.9,0.3c-0.1,0-0.2,0-0.2,0c-0.9-0.5-1.8-1-2.7-1.5c0.2-0.1,0.4-0.2,0.6-0.3c0.7-0.4,1.4-0.8,2-1.2
								c0.1,0,0.2-0.1,0.3-0.1c0.7,0,1.5,0.1,2.2,0.1c0.2,0,0.5,0,0.7,0.1c0.3,0,0.6-0.2,0.6-0.5c0-0.3-0.2-0.6-0.5-0.6
								c-0.4,0-0.8-0.1-1.3-0.1c-0.1,0-0.1,0-0.2-0.1c0.3-0.2,0.5-0.3,0.8-0.5c0.4-0.3,0.9-0.5,1.3-0.8c0.3-0.2,0.4-0.5,0.3-0.8
								c-0.2-0.3-0.5-0.4-0.8-0.2c-0.7,0.4-1.3,0.8-2,1.2c0,0-0.1,0-0.1,0.1c0.2-0.4,0.4-0.8,0.5-1.2c0-0.1,0.1-0.2,0.1-0.3
								c0.1-0.3,0-0.6-0.3-0.7c-0.3-0.1-0.6,0-0.7,0.3c-0.4,0.9-0.8,1.8-1.3,2.7c0,0.1-0.1,0.2-0.2,0.2c-0.8,0.5-1.6,1-2.4,1.4
								c-0.1,0-0.1,0.1-0.2,0.1c0-0.1,0-0.1,0-0.2c0-0.9,0-1.9,0-2.8c0-0.1,0-0.2,0.1-0.3c0.5-0.8,1.1-1.6,1.6-2.4
								c0.1-0.2,0.2-0.4,0-0.6c-0.1-0.2-0.3-0.3-0.5-0.2c-0.2,0-0.3,0.1-0.4,0.3c-0.3,0.4-0.5,0.8-0.8,1.2c0-0.1,0-0.2,0-0.2
								c0-0.8,0-1.5,0-2.3c0-0.4-0.2-0.6-0.6-0.6c-0.3,0-0.5,0.2-0.5,0.6c0,0.8,0,1.5,0,2.3c0,0.1,0,0.1,0,0.2c0,0,0,0,0,0
								c0-0.1-0.1-0.1-0.1-0.2c-0.2-0.3-0.5-0.7-0.7-1c-0.2-0.3-0.5-0.4-0.8-0.2c-0.3,0.2-0.3,0.5-0.1,0.8c0.5,0.8,1.1,1.6,1.6,2.3
								c0.1,0.1,0.1,0.2,0.1,0.4c0,0.9,0,1.9,0,2.8c0,0,0,0.1,0,0.1c-0.2-0.1-0.5-0.3-0.7-0.4c-0.6-0.4-1.3-0.7-1.9-1.1
								c-0.1-0.1-0.2-0.1-0.2-0.2c-0.4-0.9-0.9-1.8-1.3-2.6c-0.2-0.3-0.4-0.4-0.7-0.3c-0.3,0.1-0.4,0.4-0.3,0.7
								c0.2,0.4,0.4,0.9,0.7,1.4c-0.2-0.1-0.4-0.2-0.5-0.3c-0.6-0.3-1.1-0.6-1.7-0.9c-0.3-0.2-0.6-0.1-0.8,0.2
								c-0.2,0.3-0.1,0.6,0.3,0.8c0.6,0.4,1.3,0.7,1.9,1.1c0.1,0,0.1,0.1,0.2,0.1c-0.3,0-0.5,0.1-0.8,0.1c-0.2,0-0.5,0-0.7,0
								c-0.3,0-0.5,0.2-0.6,0.4c-0.1,0.2,0,0.5,0.2,0.6c0.1,0.1,0.3,0.1,0.4,0.1c0.9-0.1,1.8-0.1,2.7-0.2c0.3,0,0.6,0,0.8,0.2
								c0.8,0.4,1.5,0.9,2.3,1.3c0,0,0,0,0.1,0.1c-0.3,0.2-0.7,0.4-1,0.6c-0.5,0.3-1.1,0.6-1.6,1c-0.1,0.1-0.2,0.1-0.3,0.1
								c-1-0.1-2-0.1-2.9-0.2c-0.3,0-0.6,0.2-0.6,0.5c0,0.3,0.2,0.6,0.6,0.6c0.5,0,1,0.1,1.5,0.1c-0.2,0.1-0.4,0.2-0.5,0.3
								c-0.6,0.3-1.1,0.7-1.7,1c-0.2,0.1-0.3,0.3-0.3,0.6c0,0.2,0.2,0.4,0.5,0.4c0.1,0,0.3,0,0.4-0.1c0.7-0.4,1.3-0.8,2-1.1
								c0,0,0.1,0,0.2-0.1c0,0.1-0.1,0.2-0.1,0.2c-0.2,0.4-0.4,0.8-0.6,1.2c-0.1,0.3,0,0.5,0.2,0.7c0.2,0.1,0.5,0.1,0.7-0.1
								c0.1-0.1,0.1-0.2,0.2-0.3c0.4-0.9,0.8-1.7,1.2-2.6c0-0.1,0.1-0.1,0.1-0.2C80.3,78.3,81.1,77.8,82.1,77.3
								C82,77.3,82,77.3,82.1,77.3z"/>
						</g>
					</g>
				</g>
			</g>
		</g>
		<g>
			<g id="KNwPzr.tif_17_">
				<g>
					<g>
						<g>
							<path class="st0" d="M59.5,80.6c0,0.1,0,0.1-0.1,0.2c-0.5,0.8-1.1,1.6-1.7,2.4c-0.2,0.4-0.1,0.8,0.3,0.9
								c0.2,0.1,0.4,0,0.6-0.2c0.2-0.3,0.5-0.7,0.7-1c0-0.1,0.1-0.1,0.2-0.2c0,0.1,0,0.2,0,0.2c0,0.8,0,1.5,0,2.3
								c0,0.3,0.2,0.5,0.4,0.5c0.2,0.1,0.5,0,0.6-0.2c0.1-0.1,0.1-0.3,0.1-0.4c0-0.7,0-1.5,0-2.2c0-0.1,0-0.1,0-0.2c0,0,0,0,0,0
								c0.2,0.3,0.5,0.7,0.7,1c0.1,0.1,0.1,0.2,0.2,0.2c0.2,0.3,0.5,0.3,0.8,0.1c0.2-0.2,0.3-0.5,0.1-0.8c-0.4-0.6-0.8-1.1-1.2-1.7
								c-0.2-0.3-0.5-0.6-0.6-0.9c-0.1-0.3,0-0.7,0-1.1c0-0.7,0-1.4,0-2.1c0.1,0,0.1,0,0.1,0.1c0.8,0.5,1.7,0.9,2.5,1.4
								c0.1,0,0.2,0.1,0.2,0.2c0.4,0.9,0.9,1.8,1.3,2.6c0.2,0.3,0.5,0.4,0.7,0.3c0.3-0.1,0.4-0.5,0.2-0.8c-0.2-0.4-0.4-0.8-0.5-1.1
								c0-0.1,0-0.1-0.1-0.2c0.3,0.2,0.6,0.4,0.9,0.5c0.4,0.2,0.8,0.5,1.2,0.7c0.3,0.2,0.6,0.1,0.8-0.2c0.2-0.3,0.1-0.6-0.3-0.8
								c-0.7-0.4-1.3-0.7-2-1.1c-0.1,0-0.1-0.1-0.2-0.1c0.5,0,1-0.1,1.4-0.1c0.4,0,0.6-0.3,0.6-0.6c0-0.3-0.3-0.5-0.7-0.5
								c-1,0.1-1.9,0.2-2.9,0.3c-0.1,0-0.2,0-0.2,0c-0.9-0.5-1.8-1-2.7-1.5c0.2-0.1,0.4-0.2,0.6-0.3c0.7-0.4,1.4-0.8,2-1.2
								c0.1,0,0.2-0.1,0.3-0.1c0.7,0,1.5,0.1,2.2,0.1c0.2,0,0.5,0,0.7,0.1c0.3,0,0.6-0.2,0.6-0.5c0-0.3-0.2-0.6-0.5-0.6
								c-0.4,0-0.8-0.1-1.3-0.1c-0.1,0-0.1,0-0.2-0.1c0.3-0.2,0.5-0.3,0.8-0.5c0.4-0.3,0.9-0.5,1.3-0.8c0.3-0.2,0.4-0.5,0.3-0.8
								c-0.2-0.3-0.5-0.4-0.8-0.2c-0.7,0.4-1.3,0.8-2,1.2c0,0-0.1,0-0.1,0.1c0.2-0.4,0.4-0.8,0.5-1.2c0-0.1,0.1-0.2,0.1-0.3
								c0.1-0.3,0-0.6-0.3-0.7c-0.3-0.1-0.6,0-0.7,0.3c-0.4,0.9-0.8,1.8-1.3,2.7c0,0.1-0.1,0.2-0.2,0.2c-0.8,0.5-1.6,1-2.4,1.4
								c-0.1,0-0.1,0.1-0.2,0.1c0-0.1,0-0.1,0-0.2c0-0.9,0-1.9,0-2.8c0-0.1,0-0.2,0.1-0.3c0.5-0.8,1.1-1.6,1.6-2.4
								c0.1-0.2,0.2-0.4,0-0.6c-0.1-0.2-0.3-0.3-0.5-0.2c-0.2,0-0.3,0.1-0.4,0.3c-0.3,0.4-0.5,0.8-0.8,1.2c0-0.1,0-0.2,0-0.2
								c0-0.8,0-1.5,0-2.3c0-0.4-0.2-0.6-0.6-0.6c-0.3,0-0.5,0.2-0.5,0.6c0,0.8,0,1.5,0,2.3c0,0.1,0,0.1,0,0.2c0,0,0,0,0,0
								c0-0.1-0.1-0.1-0.1-0.2c-0.2-0.3-0.5-0.7-0.7-1c-0.2-0.3-0.5-0.4-0.8-0.2c-0.3,0.2-0.3,0.5-0.1,0.8c0.5,0.8,1.1,1.6,1.6,2.3
								c0.1,0.1,0.1,0.2,0.1,0.4c0,0.9,0,1.9,0,2.8c0,0,0,0.1,0,0.1c-0.2-0.1-0.5-0.3-0.7-0.4c-0.6-0.4-1.3-0.7-1.9-1.1
								c-0.1-0.1-0.2-0.1-0.2-0.2c-0.4-0.9-0.9-1.8-1.3-2.6c-0.2-0.3-0.4-0.4-0.7-0.3c-0.3,0.1-0.4,0.4-0.3,0.7
								c0.2,0.4,0.4,0.9,0.7,1.4c-0.2-0.1-0.4-0.2-0.5-0.3c-0.6-0.3-1.1-0.6-1.7-0.9c-0.3-0.2-0.6-0.1-0.8,0.2
								c-0.2,0.3-0.1,0.6,0.3,0.8c0.6,0.4,1.3,0.7,1.9,1.1c0.1,0,0.1,0.1,0.2,0.1c-0.3,0-0.5,0.1-0.8,0.1c-0.2,0-0.5,0-0.7,0
								c-0.3,0-0.5,0.2-0.6,0.4c-0.1,0.2,0,0.5,0.2,0.6c0.1,0.1,0.3,0.1,0.4,0.1c0.9-0.1,1.8-0.1,2.7-0.2c0.3,0,0.6,0,0.8,0.2
								c0.8,0.4,1.5,0.9,2.3,1.3c0,0,0,0,0.1,0.1c-0.3,0.2-0.7,0.4-1,0.6c-0.5,0.3-1.1,0.6-1.6,1c-0.1,0.1-0.2,0.1-0.3,0.1
								c-1-0.1-2-0.1-2.9-0.2c-0.3,0-0.6,0.2-0.6,0.5c0,0.3,0.2,0.6,0.6,0.6c0.5,0,1,0.1,1.5,0.1c-0.2,0.1-0.4,0.2-0.5,0.3
								c-0.6,0.3-1.1,0.7-1.7,1c-0.2,0.1-0.3,0.3-0.3,0.6c0,0.2,0.2,0.4,0.5,0.4c0.1,0,0.3,0,0.4-0.1c0.7-0.4,1.3-0.8,2-1.1
								c0,0,0.1,0,0.2-0.1c0,0.1-0.1,0.2-0.1,0.2c-0.2,0.4-0.4,0.8-0.6,1.2c-0.1,0.3,0,0.5,0.2,0.7c0.2,0.1,0.5,0.1,0.7-0.1
								c0.1-0.1,0.1-0.2,0.2-0.3c0.4-0.9,0.8-1.7,1.2-2.6c0-0.1,0.1-0.1,0.1-0.2c0.9-0.5,1.7-1,2.6-1.5c0,0,0,0,0.1,0
								C59.5,78.5,59.5,79.5,59.5,80.6z"/>
						</g>
					</g>
					<g>
						<g>
							<path class="st0" d="M59.5,77.5c0,1.1,0,2.1,0,3.1c0,0.1,0,0.1-0.1,0.2c-0.5,0.8-1.1,1.6-1.7,2.4c-0.2,0.4-0.1,0.8,0.3,0.9
								c0.2,0.1,0.4,0,0.6-0.2c0.2-0.3,0.5-0.7,0.7-1c0-0.1,0.1-0.1,0.2-0.2c0,0.1,0,0.2,0,0.2c0,0.8,0,1.5,0,2.3
								c0,0.3,0.2,0.5,0.4,0.5c0.2,0.1,0.5,0,0.6-0.2c0.1-0.1,0.1-0.3,0.1-0.4c0-0.7,0-1.5,0-2.2c0-0.1,0-0.1,0-0.2c0,0,0,0,0,0
								c0.2,0.3,0.5,0.7,0.7,1c0.1,0.1,0.1,0.2,0.2,0.2c0.2,0.3,0.5,0.3,0.8,0.1c0.2-0.2,0.3-0.5,0.1-0.8c-0.4-0.6-0.8-1.1-1.2-1.7
								c-0.2-0.3-0.5-0.6-0.6-0.9c-0.1-0.3,0-0.7,0-1.1c0-0.7,0-1.4,0-2.1c0.1,0,0.1,0,0.1,0.1c0.8,0.5,1.7,0.9,2.5,1.4
								c0.1,0,0.2,0.1,0.2,0.2c0.4,0.9,0.9,1.8,1.3,2.6c0.2,0.3,0.5,0.4,0.7,0.3c0.3-0.1,0.4-0.5,0.2-0.8c-0.2-0.4-0.4-0.8-0.5-1.1
								c0-0.1,0-0.1-0.1-0.2c0.3,0.2,0.6,0.4,0.9,0.5c0.4,0.2,0.8,0.5,1.2,0.7c0.3,0.2,0.6,0.1,0.8-0.2c0.2-0.3,0.1-0.6-0.3-0.8
								c-0.7-0.4-1.3-0.7-2-1.1c-0.1,0-0.1-0.1-0.2-0.1c0.5,0,1-0.1,1.4-0.1c0.4,0,0.6-0.3,0.6-0.6c0-0.3-0.3-0.5-0.7-0.5
								c-1,0.1-1.9,0.2-2.9,0.3c-0.1,0-0.2,0-0.2,0c-0.9-0.5-1.8-1-2.7-1.5c0.2-0.1,0.4-0.2,0.6-0.3c0.7-0.4,1.4-0.8,2-1.2
								c0.1,0,0.2-0.1,0.3-0.1c0.7,0,1.5,0.1,2.2,0.1c0.2,0,0.5,0,0.7,0.1c0.3,0,0.6-0.2,0.6-0.5c0-0.3-0.2-0.6-0.5-0.6
								c-0.4,0-0.8-0.1-1.3-0.1c-0.1,0-0.1,0-0.2-0.1c0.3-0.2,0.5-0.3,0.8-0.5c0.4-0.3,0.9-0.5,1.3-0.8c0.3-0.2,0.4-0.5,0.3-0.8
								c-0.2-0.3-0.5-0.4-0.8-0.2c-0.7,0.4-1.3,0.8-2,1.2c0,0-0.1,0-0.1,0.1c0.2-0.4,0.4-0.8,0.5-1.2c0-0.1,0.1-0.2,0.1-0.3
								c0.1-0.3,0-0.6-0.3-0.7c-0.3-0.1-0.6,0-0.7,0.3c-0.4,0.9-0.8,1.8-1.3,2.7c0,0.1-0.1,0.2-0.2,0.2c-0.8,0.5-1.6,1-2.4,1.4
								c-0.1,0-0.1,0.1-0.2,0.1c0-0.1,0-0.1,0-0.2c0-0.9,0-1.9,0-2.8c0-0.1,0-0.2,0.1-0.3c0.5-0.8,1.1-1.6,1.6-2.4
								c0.1-0.2,0.2-0.4,0-0.6c-0.1-0.2-0.3-0.3-0.5-0.2c-0.2,0-0.3,0.1-0.4,0.3c-0.3,0.4-0.5,0.8-0.8,1.2c0-0.1,0-0.2,0-0.2
								c0-0.8,0-1.5,0-2.3c0-0.4-0.2-0.6-0.6-0.6c-0.3,0-0.5,0.2-0.5,0.6c0,0.8,0,1.5,0,2.3c0,0.1,0,0.1,0,0.2c0,0,0,0,0,0
								c0-0.1-0.1-0.1-0.1-0.2c-0.2-0.3-0.5-0.7-0.7-1c-0.2-0.3-0.5-0.4-0.8-0.2c-0.3,0.2-0.3,0.5-0.1,0.8c0.5,0.8,1.1,1.6,1.6,2.3
								c0.1,0.1,0.1,0.2,0.1,0.4c0,0.9,0,1.9,0,2.8c0,0,0,0.1,0,0.1c-0.2-0.1-0.5-0.3-0.7-0.4c-0.6-0.4-1.3-0.7-1.9-1.1
								c-0.1-0.1-0.2-0.1-0.2-0.2c-0.4-0.9-0.9-1.8-1.3-2.6c-0.2-0.3-0.4-0.4-0.7-0.3c-0.3,0.1-0.4,0.4-0.3,0.7
								c0.2,0.4,0.4,0.9,0.7,1.4c-0.2-0.1-0.4-0.2-0.5-0.3c-0.6-0.3-1.1-0.6-1.7-0.9c-0.3-0.2-0.6-0.1-0.8,0.2
								c-0.2,0.3-0.1,0.6,0.3,0.8c0.6,0.4,1.3,0.7,1.9,1.1c0.1,0,0.1,0.1,0.2,0.1c-0.3,0-0.5,0.1-0.8,0.1c-0.2,0-0.5,0-0.7,0
								c-0.3,0-0.5,0.2-0.6,0.4c-0.1,0.2,0,0.5,0.2,0.6c0.1,0.1,0.3,0.1,0.4,0.1c0.9-0.1,1.8-0.1,2.7-0.2c0.3,0,0.6,0,0.8,0.2
								c0.8,0.4,1.5,0.9,2.3,1.3c0,0,0,0,0.1,0.1c-0.3,0.2-0.7,0.4-1,0.6c-0.5,0.3-1.1,0.6-1.6,1c-0.1,0.1-0.2,0.1-0.3,0.1
								c-1-0.1-2-0.1-2.9-0.2c-0.3,0-0.6,0.2-0.6,0.5c0,0.3,0.2,0.6,0.6,0.6c0.5,0,1,0.1,1.5,0.1c-0.2,0.1-0.4,0.2-0.5,0.3
								c-0.6,0.3-1.1,0.7-1.7,1c-0.2,0.1-0.3,0.3-0.3,0.6c0,0.2,0.2,0.4,0.5,0.4c0.1,0,0.3,0,0.4-0.1c0.7-0.4,1.3-0.8,2-1.1
								c0,0,0.1,0,0.2-0.1c0,0.1-0.1,0.2-0.1,0.2c-0.2,0.4-0.4,0.8-0.6,1.2c-0.1,0.3,0,0.5,0.2,0.7c0.2,0.1,0.5,0.1,0.7-0.1
								c0.1-0.1,0.1-0.2,0.2-0.3c0.4-0.9,0.8-1.7,1.2-2.6c0-0.1,0.1-0.1,0.1-0.2C57.7,78.5,58.5,78,59.5,77.5
								C59.4,77.5,59.5,77.5,59.5,77.5z"/>
						</g>
					</g>
				</g>
			</g>
		</g>
		<g>
			<path class="st0" d="M25.4,66.4c-3.3,0-6.6-0.3-9.9-1.8C9.1,61.7,5,55.4,4.9,48.7C4.8,40.3,10.8,33,18.9,31.4
				c0.6-9.1,8.1-16.3,17.3-16.4c0.1,0,0.1,0,0.2,0c5.4,0,10.6,2.5,13.9,6.8c2.1-0.9,4.3-1.3,6.6-1.3c0.1,0,0.1,0,0.2,0
				c7.2,0,13.6,4.4,16.2,11c1.4-0.4,2.8-0.5,4.2-0.6l0,0c0.1,0,0.1,0,0.2,0c9.6,0,17.4,7.7,17.5,17.3c0.1,9.4-7.2,17.1-16.6,17.6
				l0,0c-0.3,0-0.5,0-0.8,0l-47.4,0.4c-0.7,0-1.5,0-2.2,0C27.2,66.4,26.3,66.4,25.4,66.4z M36.4,17.4c0,0-0.1,0-0.1,0
				c-8.2,0.1-14.9,6.8-14.9,15l0,1.1l-1,0.1c-7.5,1-13,7.5-13,15.1c0.1,5.7,3.7,11.2,9.2,13.7c3.8,1.7,7.6,1.6,11.6,1.5
				c0.7,0,1.5,0,2.2,0l47.4-0.4c0,0,0.1,0,0.3,0l0.4,0c8.1-0.4,14.4-7.1,14.3-15.2c-0.1-8.3-6.8-14.9-15.1-14.9c0,0-0.1,0-0.1,0l0,0
				c-1.6,0-3.1,0.3-4.6,0.8l-1.2,0.4l-0.4-1.2c-2-6.3-7.8-10.4-14.3-10.4c0,0-0.1,0-0.1,0c-2.3,0-4.4,0.5-6.5,1.5l-0.9,0.5L48.9,24
				C46,19.9,41.4,17.4,36.4,17.4z"/>
		</g>
		<g>
			<g>
				<path class="st0" d="M38.3,67.9c0,0-13.2,17.7,0.2,17.6C51.7,85.4,38.3,67.9,38.3,67.9z M33.8,79.2c1,2.7,3.8,5.4,3.8,5.4
					C33.1,83.9,33.8,79.2,33.8,79.2z"/>
			</g>
		</g>
		<g>
			<g>
				<path class="st0" d="M15.7,68.1c0,0-13.2,17.7,0.2,17.6C29.1,85.6,15.7,68.1,15.7,68.1z M11.2,79.4c1,2.7,3.8,5.4,3.8,5.4
					C10.5,84.1,11.2,79.4,11.2,79.4z"/>
			</g>
		</g>
	</g>
</g>
</svg>
