<?xml version="1.0" encoding="utf-8"?>
<!-- Generator: Adobe Illustrator 24.2.1, SVG Export Plug-In . SVG Version: 6.00 Build 0)  -->
<svg version="1.1" id="Layer_1" xmlns="http://www.w3.org/2000/svg" xmlns:xlink="http://www.w3.org/1999/xlink" x="0px" y="0px"
	 viewBox="0 0 100 120" style="enable-background:new 0 0 100 120;" xml:space="preserve">
<style type="text/css">
	.st0{fill:#383838;}
</style>
<g>
	<g>
		<g>
			<path class="st0" d="M4.8,100.97L2.03,90.26l1.46-0.01l1.3,5.42c0.32,1.34,0.62,2.67,0.81,3.71l0.03,0
				c0.17-1.07,0.5-2.34,0.86-3.73l1.41-5.42l1.45-0.01l1.33,5.44c0.31,1.27,0.6,2.54,0.76,3.67l0.03,0
				c0.22-1.18,0.52-2.37,0.84-3.71l1.39-5.42l1.42-0.01l-3,10.74l-1.45,0.01l-1.38-5.58C8.97,94,8.74,92.95,8.6,91.87l-0.03,0
				c-0.19,1.07-0.42,2.12-0.81,3.5l-1.51,5.59L4.8,100.97z"/>
			<path class="st0" d="M16.7,97.33c0.04,1.89,1.25,2.67,2.65,2.66c1,0,1.61-0.18,2.13-0.41l0.24,1c-0.49,0.23-1.34,0.48-2.56,0.49
				c-2.37,0.01-3.79-1.54-3.8-3.87c-0.01-2.32,1.35-4.16,3.6-4.17c2.51-0.01,3.19,2.2,3.2,3.61c0,0.29-0.03,0.51-0.05,0.65
				L16.7,97.33z M20.81,96.31c0.01-0.89-0.38-2.27-1.95-2.27c-1.42,0.01-2.03,1.31-2.14,2.28L20.81,96.31z"/>
			<path class="st0" d="M28.18,100.88l-0.12-0.97l-0.05,0c-0.43,0.61-1.25,1.15-2.35,1.16c-1.56,0.01-2.36-1.09-2.36-2.2
				c-0.01-1.86,1.64-2.89,4.62-2.88l0-0.16c0-0.64-0.18-1.78-1.76-1.78c-0.72,0-1.46,0.23-2,0.58l-0.32-0.92
				c0.64-0.42,1.56-0.69,2.53-0.69c2.36-0.01,2.94,1.6,2.94,3.14l0.01,2.88c0,0.67,0.04,1.32,0.13,1.85L28.18,100.88z M27.95,96.95
				c-1.53-0.02-3.26,0.25-3.26,1.75c0,0.91,0.61,1.33,1.33,1.33c1,0,1.64-0.64,1.86-1.3c0.05-0.14,0.08-0.3,0.08-0.44L27.95,96.95z"
				/>
			<path class="st0" d="M33.17,90.94l0.01,2.21l2.01-0.01l0,1.07l-2.01,0.01l0.02,4.15c0,0.95,0.28,1.5,1.06,1.49
				c0.37,0,0.64-0.05,0.81-0.1l0.07,1.05c-0.27,0.11-0.7,0.19-1.24,0.2c-0.65,0-1.18-0.2-1.51-0.58c-0.4-0.41-0.55-1.1-0.55-2
				l-0.02-4.2l-1.19,0l0-1.07l1.19,0l-0.01-1.85L33.17,90.94z"/>
			<path class="st0" d="M36.74,89.54l1.4-0.01l0.02,4.81l0.03,0c0.22-0.4,0.57-0.75,1-0.99c0.41-0.24,0.91-0.4,1.43-0.4
				c1.04,0,2.69,0.63,2.7,3.28l0.02,4.58l-1.4,0.01l-0.02-4.42c-0.01-1.24-0.47-2.29-1.79-2.29c-0.91,0-1.62,0.64-1.87,1.41
				c-0.08,0.19-0.09,0.4-0.09,0.67l0.02,4.65l-1.4,0.01L36.74,89.54z"/>
			<path class="st0" d="M46.39,97.21c0.04,1.89,1.25,2.67,2.65,2.66c1,0,1.61-0.18,2.13-0.41l0.24,1c-0.49,0.23-1.34,0.48-2.56,0.49
				c-2.37,0.01-3.79-1.54-3.8-3.87c-0.01-2.32,1.35-4.16,3.6-4.17c2.51-0.01,3.19,2.2,3.2,3.61c0,0.29-0.03,0.51-0.05,0.65
				L46.39,97.21z M50.49,96.19c0.01-0.89-0.38-2.27-1.95-2.27c-1.42,0.01-2.03,1.31-2.14,2.28L50.49,96.19z"/>
			<path class="st0" d="M53.57,95.47c0-0.91-0.02-1.69-0.07-2.4l1.23-0.01l0.05,1.51l0.06,0c0.35-1.04,1.19-1.69,2.13-1.7
				c0.16,0,0.27,0.01,0.4,0.05l0.01,1.32c-0.14-0.03-0.29-0.05-0.48-0.05c-0.99,0-1.68,0.75-1.87,1.81
				c-0.03,0.19-0.06,0.41-0.06,0.65l0.02,4.11l-1.38,0.01L53.57,95.47z"/>
			<path class="st0" d="M62.18,90.14c0.67-0.11,1.54-0.21,2.66-0.22c1.37-0.01,2.37,0.31,3.01,0.88c0.59,0.51,0.94,1.28,0.95,2.24
				c0,0.97-0.28,1.74-0.82,2.29c-0.73,0.78-1.92,1.19-3.27,1.19c-0.41,0-0.8-0.01-1.11-0.09l0.02,4.3l-1.38,0.01L62.18,90.14z
				 M63.58,95.31c0.3,0.08,0.68,0.11,1.15,0.11c1.67-0.01,2.69-0.82,2.68-2.3c-0.01-1.42-1.01-2.1-2.54-2.09
				c-0.6,0-1.07,0.05-1.3,0.12L63.58,95.31z"/>
			<path class="st0" d="M70.37,95.4c0-0.91-0.02-1.69-0.07-2.4L71.52,93l0.05,1.51l0.06,0c0.35-1.04,1.19-1.69,2.13-1.7
				c0.16,0,0.27,0.01,0.4,0.05l0.01,1.32c-0.14-0.03-0.29-0.05-0.48-0.05c-0.99,0-1.68,0.75-1.87,1.81
				c-0.03,0.19-0.06,0.41-0.06,0.65l0.02,4.11l-1.38,0.01L70.37,95.4z"/>
			<path class="st0" d="M82.39,96.74c0.01,2.85-1.96,4.1-3.82,4.11c-2.08,0.01-3.7-1.51-3.71-3.95c-0.01-2.58,1.67-4.1,3.8-4.11
				C80.88,92.78,82.38,94.38,82.39,96.74z M76.28,96.84c0.01,1.69,0.98,2.96,2.35,2.95c1.34-0.01,2.33-1.27,2.33-3
				c-0.01-1.31-0.66-2.96-2.32-2.95C76.98,93.85,76.27,95.38,76.28,96.84z"/>
			<path class="st0" d="M91.13,96.7c0.01,2.85-1.96,4.1-3.82,4.11c-2.08,0.01-3.7-1.51-3.71-3.95c-0.01-2.58,1.67-4.1,3.8-4.11
				C89.61,92.75,91.12,94.35,91.13,96.7z M85.01,96.81c0.01,1.69,0.98,2.96,2.35,2.95c1.34-0.01,2.33-1.27,2.33-3
				c-0.01-1.31-0.66-2.96-2.32-2.95C85.72,93.81,85.01,95.34,85.01,96.81z"/>
			<path class="st0" d="M93.05,100.61l-0.03-6.64l-1.08,0l0-1.07l1.08,0l0-0.37c0-1.08,0.23-2.07,0.88-2.69
				c0.52-0.51,1.22-0.72,1.88-0.72c0.49,0,0.92,0.11,1.19,0.22l-0.19,1.08c-0.21-0.1-0.5-0.17-0.89-0.17
				c-1.19,0-1.49,1.06-1.49,2.23l0,0.41l1.86-0.01l0,1.07l-1.86,0.01l0.03,6.64L93.05,100.61z"/>
		</g>
		<g>
			<path class="st0" d="M25.99,60.7c-3.44,0.01-6.76-0.21-10.22-1.81C9.58,56.01,5.55,49.9,5.53,43.32
				c-0.03-8.17,5.78-15.21,13.69-16.8c0.65-8.78,8.04-15.77,16.96-15.81c5.34-0.02,10.34,2.44,13.58,6.63
				c2-0.81,4.12-1.22,6.31-1.23c7.07-0.03,13.31,4.22,15.91,10.68c1.31-0.32,2.65-0.48,4-0.49c9.42-0.04,17.11,7.59,17.15,17.01
				C93.15,52.48,86,60,76.84,60.43l0-0.02c-0.27,0.04-0.54,0.04-0.74,0.04l-45.84,0.19c-0.72,0-1.43,0.02-2.13,0.03
				C27.41,60.68,26.7,60.69,25.99,60.7z M36.18,13.35c-7.85,0.03-14.3,6.45-14.37,14.3L21.8,28.8l-1.14,0.15
				c-7.15,0.96-12.52,7.13-12.49,14.36c0.02,5.47,3.53,10.77,8.72,13.18c3.61,1.68,7.29,1.61,11.19,1.54
				c0.72-0.01,1.44-0.03,2.17-0.03l45.84-0.19c0,0,0.13,0,0.26,0l0.37-0.02c7.74-0.36,13.78-6.72,13.74-14.47
				c-0.03-7.96-6.53-14.4-14.49-14.37c-1.51,0.01-2.99,0.25-4.42,0.71l-1.27,0.41l-0.4-1.27c-1.92-6.04-7.47-10.08-13.81-10.05
				c-2.17,0.01-4.25,0.49-6.19,1.42l-1.03,0.5l-0.64-0.95C45.5,15.71,41.01,13.33,36.18,13.35z"/>
		</g>
		<g>
			<g>
				<g id="KNwPzr.tif_17_">
					<g>
						<g>
							<g>
								<path class="st0" d="M78.39,76.35c0,0.07-0.04,0.14-0.08,0.2c-0.59,0.88-1.19,1.75-1.79,2.63
									c-0.27,0.39-0.11,0.82,0.34,0.95c0.21,0.06,0.46-0.04,0.6-0.25c0.26-0.37,0.51-0.74,0.76-1.12
									c0.05-0.07,0.09-0.13,0.17-0.24c0.01,0.11,0.01,0.17,0.01,0.24c0,0.83,0.01,1.66,0.01,2.48c0,0.29,0.16,0.51,0.4,0.58
									c0.26,0.08,0.54,0,0.66-0.23c0.07-0.13,0.1-0.3,0.11-0.45c0.01-0.79,0-1.57,0-2.36c0-0.07,0-0.14,0-0.22
									c0.01,0,0.03-0.01,0.04-0.01c0.25,0.36,0.5,0.71,0.74,1.07c0.06,0.08,0.11,0.17,0.18,0.25c0.22,0.28,0.54,0.33,0.82,0.13
									c0.26-0.19,0.32-0.53,0.13-0.82c-0.42-0.61-0.84-1.21-1.26-1.82c-0.22-0.31-0.51-0.6-0.63-0.95
									c-0.11-0.35-0.04-0.76-0.04-1.14c0-0.75-0.01-1.49-0.01-2.26c0.07,0.03,0.12,0.04,0.16,0.07c0.9,0.51,1.79,1.02,2.68,1.54
									c0.09,0.05,0.17,0.14,0.21,0.23c0.46,0.94,0.91,1.89,1.37,2.84c0.17,0.34,0.49,0.47,0.8,0.33c0.32-0.15,0.43-0.49,0.26-0.83
									c-0.19-0.41-0.39-0.81-0.59-1.22c-0.03-0.06-0.05-0.12-0.1-0.23c0.36,0.21,0.68,0.39,1,0.57c0.44,0.25,0.89,0.51,1.33,0.76
									c0.35,0.2,0.68,0.12,0.87-0.19c0.17-0.29,0.06-0.63-0.28-0.83c-0.7-0.4-1.4-0.8-2.1-1.2c-0.06-0.04-0.12-0.08-0.23-0.14
									c0.56-0.05,1.06-0.09,1.56-0.13c0.39-0.03,0.67-0.29,0.63-0.63c-0.03-0.36-0.32-0.57-0.71-0.54
									c-1.05,0.09-2.1,0.18-3.15,0.27c-0.08,0.01-0.17,0-0.24-0.04c-0.96-0.54-1.91-1.09-2.89-1.65c0.21-0.13,0.41-0.25,0.61-0.36
									c0.73-0.43,1.46-0.85,2.2-1.27c0.09-0.05,0.22-0.08,0.32-0.07c0.8,0.05,1.6,0.11,2.39,0.16c0.25,0.02,0.5,0.04,0.76,0.06
									c0.38,0.03,0.64-0.17,0.69-0.52c0.04-0.31-0.19-0.6-0.55-0.64c-0.45-0.05-0.91-0.07-1.37-0.1
									c-0.07-0.01-0.15-0.01-0.23-0.06c0.29-0.17,0.58-0.34,0.87-0.51c0.47-0.27,0.93-0.54,1.4-0.82c0.34-0.2,0.45-0.53,0.28-0.83
									c-0.17-0.31-0.52-0.39-0.87-0.19c-0.73,0.42-1.45,0.84-2.18,1.27c-0.03,0.02-0.07,0.04-0.15,0.08
									c0.21-0.44,0.39-0.84,0.58-1.24c0.04-0.09,0.09-0.18,0.13-0.28c0.12-0.31,0-0.63-0.29-0.76c-0.3-0.14-0.63-0.03-0.78,0.28
									c-0.46,0.96-0.91,1.93-1.37,2.89c-0.05,0.1-0.14,0.2-0.24,0.26c-0.86,0.51-1.73,1.02-2.6,1.52
									c-0.06,0.03-0.12,0.06-0.19,0.1c0-0.08-0.01-0.14-0.01-0.2c0-1.01-0.01-2.03-0.01-3.04c0-0.11,0.04-0.24,0.11-0.34
									c0.58-0.87,1.18-1.73,1.77-2.59c0.15-0.22,0.18-0.46,0.03-0.69c-0.14-0.21-0.34-0.29-0.59-0.26
									c-0.19,0.02-0.32,0.14-0.43,0.29c-0.29,0.42-0.58,0.85-0.9,1.32c-0.01-0.12-0.01-0.19-0.01-0.26c0-0.81,0-1.63-0.01-2.44
									c0-0.4-0.23-0.64-0.6-0.63c-0.35,0-0.58,0.25-0.58,0.63c0,0.81,0.01,1.63,0.01,2.44c0,0.07,0,0.13,0,0.2
									c-0.01,0.01-0.03,0.01-0.04,0.02c-0.04-0.06-0.09-0.12-0.13-0.18c-0.25-0.35-0.49-0.71-0.74-1.06
									c-0.23-0.33-0.58-0.41-0.87-0.21c-0.28,0.2-0.33,0.56-0.1,0.89c0.58,0.84,1.18,1.68,1.75,2.52
									c0.07,0.11,0.12,0.26,0.13,0.39c0.01,1.02,0.01,2.04,0.02,3.06c0,0.04,0,0.08-0.01,0.15c-0.27-0.15-0.51-0.29-0.76-0.43
									c-0.68-0.39-1.37-0.78-2.04-1.18c-0.1-0.06-0.19-0.16-0.24-0.26c-0.46-0.94-0.92-1.89-1.38-2.84
									c-0.16-0.34-0.48-0.47-0.79-0.32c-0.3,0.14-0.43,0.47-0.28,0.8c0.22,0.48,0.45,0.96,0.71,1.49
									c-0.22-0.12-0.39-0.21-0.55-0.31c-0.6-0.34-1.2-0.68-1.8-1.03c-0.33-0.19-0.69-0.11-0.86,0.19
									c-0.17,0.3-0.06,0.64,0.28,0.83c0.69,0.4,1.39,0.79,2.08,1.19c0.07,0.04,0.14,0.08,0.26,0.16
									c-0.32,0.03-0.57,0.06-0.83,0.08c-0.25,0.02-0.49,0.03-0.74,0.05c-0.32,0.02-0.53,0.18-0.61,0.44
									c-0.07,0.23,0,0.5,0.21,0.62c0.13,0.08,0.31,0.13,0.46,0.12c0.95-0.07,1.91-0.14,2.86-0.24c0.33-0.03,0.6,0.04,0.88,0.21
									c0.81,0.48,1.63,0.94,2.45,1.41c0.02,0.01,0.04,0.03,0.09,0.07c-0.36,0.21-0.7,0.41-1.05,0.61
									c-0.58,0.34-1.17,0.68-1.76,1.02c-0.09,0.05-0.22,0.09-0.33,0.08c-1.06-0.07-2.11-0.16-3.17-0.24
									c-0.37-0.03-0.64,0.21-0.66,0.55c-0.02,0.35,0.23,0.6,0.59,0.62c0.52,0.03,1.03,0.08,1.62,0.12
									c-0.22,0.13-0.39,0.23-0.55,0.33c-0.61,0.36-1.22,0.71-1.82,1.07c-0.24,0.14-0.35,0.37-0.3,0.62
									c0.04,0.25,0.22,0.45,0.5,0.47c0.15,0.01,0.32-0.05,0.46-0.12c0.71-0.4,1.41-0.81,2.11-1.22c0.05-0.03,0.09-0.05,0.18-0.1
									c-0.04,0.1-0.07,0.17-0.1,0.23c-0.2,0.43-0.41,0.85-0.6,1.28c-0.12,0.27-0.03,0.56,0.21,0.72c0.22,0.15,0.53,0.13,0.72-0.06
									c0.08-0.08,0.15-0.2,0.2-0.31c0.44-0.93,0.88-1.87,1.32-2.8c0.03-0.07,0.08-0.15,0.15-0.18c0.92-0.54,1.85-1.08,2.78-1.62
									c0.02-0.01,0.05-0.02,0.1-0.04C78.39,74.15,78.39,75.25,78.39,76.35z"/>
							</g>
						</g>
						<g>
							<g>
								<path class="st0" d="M78.38,73.02c0,1.13,0.01,2.23,0.01,3.33c0,0.07-0.04,0.14-0.08,0.2c-0.59,0.88-1.19,1.75-1.79,2.63
									c-0.27,0.39-0.11,0.82,0.34,0.95c0.21,0.06,0.46-0.04,0.6-0.25c0.26-0.37,0.51-0.74,0.76-1.12
									c0.05-0.07,0.09-0.13,0.17-0.24c0.01,0.11,0.01,0.17,0.01,0.24c0,0.83,0.01,1.66,0.01,2.48c0,0.29,0.16,0.51,0.4,0.58
									c0.26,0.08,0.54,0,0.66-0.23c0.07-0.13,0.1-0.3,0.11-0.45c0.01-0.79,0-1.57,0-2.36c0-0.07,0-0.14,0-0.22
									c0.01,0,0.03-0.01,0.04-0.01c0.25,0.36,0.5,0.71,0.74,1.07c0.06,0.08,0.11,0.17,0.18,0.25c0.22,0.28,0.54,0.33,0.82,0.13
									c0.26-0.19,0.32-0.53,0.13-0.82c-0.42-0.61-0.84-1.21-1.26-1.82c-0.22-0.31-0.51-0.6-0.63-0.95
									c-0.11-0.35-0.04-0.76-0.04-1.14c0-0.75-0.01-1.49-0.01-2.26c0.07,0.03,0.12,0.04,0.16,0.07c0.9,0.51,1.79,1.02,2.68,1.54
									c0.09,0.05,0.17,0.14,0.21,0.23c0.46,0.94,0.91,1.89,1.37,2.84c0.17,0.34,0.49,0.47,0.8,0.33c0.32-0.15,0.43-0.49,0.26-0.83
									c-0.19-0.41-0.39-0.81-0.59-1.22c-0.03-0.06-0.05-0.12-0.1-0.23c0.36,0.21,0.68,0.39,1,0.57c0.44,0.25,0.89,0.51,1.33,0.76
									c0.35,0.2,0.68,0.12,0.87-0.19c0.17-0.29,0.06-0.63-0.28-0.83c-0.7-0.4-1.4-0.8-2.1-1.2c-0.06-0.04-0.12-0.08-0.23-0.14
									c0.56-0.05,1.06-0.09,1.56-0.13c0.39-0.03,0.67-0.29,0.63-0.63c-0.03-0.36-0.32-0.57-0.71-0.54
									c-1.05,0.09-2.1,0.18-3.15,0.27c-0.08,0.01-0.17,0-0.24-0.04c-0.96-0.54-1.91-1.09-2.89-1.65c0.21-0.13,0.41-0.25,0.61-0.36
									c0.73-0.43,1.46-0.85,2.2-1.27c0.09-0.05,0.22-0.08,0.32-0.07c0.8,0.05,1.6,0.11,2.39,0.16c0.25,0.02,0.5,0.04,0.76,0.06
									c0.38,0.03,0.64-0.17,0.69-0.52c0.04-0.31-0.19-0.6-0.55-0.64c-0.45-0.05-0.91-0.07-1.37-0.1
									c-0.07-0.01-0.15-0.01-0.23-0.06c0.29-0.17,0.58-0.34,0.87-0.51c0.47-0.27,0.93-0.54,1.4-0.82c0.34-0.2,0.45-0.53,0.28-0.83
									c-0.17-0.31-0.52-0.39-0.87-0.19c-0.73,0.42-1.45,0.84-2.18,1.27c-0.03,0.02-0.07,0.04-0.15,0.08
									c0.21-0.44,0.39-0.84,0.58-1.24c0.04-0.09,0.09-0.18,0.13-0.28c0.12-0.31,0-0.63-0.29-0.76c-0.3-0.14-0.63-0.03-0.78,0.28
									c-0.46,0.96-0.91,1.93-1.37,2.89c-0.05,0.1-0.14,0.2-0.24,0.26c-0.86,0.51-1.73,1.02-2.6,1.52
									c-0.06,0.03-0.12,0.06-0.19,0.1c0-0.08-0.01-0.14-0.01-0.2c0-1.01-0.01-2.03-0.01-3.04c0-0.11,0.04-0.24,0.11-0.34
									c0.58-0.87,1.18-1.73,1.77-2.59c0.15-0.22,0.18-0.46,0.03-0.69c-0.14-0.21-0.34-0.29-0.59-0.26
									c-0.19,0.02-0.32,0.14-0.43,0.29c-0.29,0.42-0.58,0.85-0.9,1.32c-0.01-0.12-0.01-0.19-0.01-0.26c0-0.81,0-1.63-0.01-2.44
									c0-0.4-0.23-0.64-0.6-0.63c-0.35,0-0.58,0.25-0.58,0.63c0,0.81,0.01,1.63,0.01,2.44c0,0.07,0,0.13,0,0.2
									c-0.01,0.01-0.03,0.01-0.04,0.02c-0.04-0.06-0.09-0.12-0.13-0.18c-0.25-0.35-0.49-0.71-0.74-1.06
									c-0.23-0.33-0.58-0.41-0.87-0.21c-0.28,0.2-0.33,0.56-0.1,0.89c0.58,0.84,1.18,1.68,1.75,2.52
									c0.07,0.11,0.12,0.26,0.13,0.39c0.01,1.02,0.01,2.04,0.02,3.06c0,0.04,0,0.08-0.01,0.15c-0.27-0.15-0.51-0.29-0.76-0.43
									c-0.68-0.39-1.37-0.78-2.04-1.18c-0.1-0.06-0.19-0.16-0.24-0.26c-0.46-0.94-0.92-1.89-1.38-2.84
									c-0.16-0.34-0.48-0.47-0.79-0.32c-0.3,0.14-0.43,0.47-0.28,0.8c0.22,0.48,0.45,0.96,0.71,1.49
									c-0.22-0.12-0.39-0.21-0.55-0.31c-0.6-0.34-1.2-0.68-1.8-1.03c-0.33-0.19-0.69-0.11-0.86,0.19
									c-0.17,0.3-0.06,0.64,0.28,0.83c0.69,0.4,1.39,0.79,2.08,1.19c0.07,0.04,0.14,0.08,0.26,0.16
									c-0.32,0.03-0.57,0.06-0.83,0.08c-0.25,0.02-0.49,0.03-0.74,0.05c-0.32,0.02-0.53,0.18-0.61,0.44
									c-0.07,0.23,0,0.5,0.21,0.62c0.13,0.08,0.31,0.13,0.46,0.12c0.95-0.07,1.91-0.14,2.86-0.24c0.33-0.03,0.6,0.04,0.88,0.21
									c0.81,0.48,1.63,0.94,2.45,1.41c0.02,0.01,0.04,0.03,0.09,0.07c-0.36,0.21-0.7,0.41-1.05,0.61
									c-0.58,0.34-1.17,0.68-1.76,1.02c-0.09,0.05-0.22,0.09-0.33,0.08c-1.06-0.07-2.11-0.16-3.17-0.24
									c-0.37-0.03-0.64,0.21-0.66,0.55c-0.02,0.35,0.23,0.6,0.59,0.62c0.52,0.03,1.03,0.08,1.62,0.12
									c-0.22,0.13-0.39,0.23-0.55,0.33c-0.61,0.36-1.22,0.71-1.82,1.07c-0.24,0.14-0.35,0.37-0.3,0.62
									c0.04,0.25,0.22,0.45,0.5,0.47c0.15,0.01,0.32-0.05,0.46-0.12c0.71-0.4,1.41-0.81,2.11-1.22c0.05-0.03,0.09-0.05,0.18-0.1
									c-0.04,0.1-0.07,0.17-0.1,0.23c-0.2,0.43-0.41,0.85-0.6,1.28c-0.12,0.27-0.03,0.56,0.21,0.72c0.22,0.15,0.53,0.13,0.72-0.06
									c0.08-0.08,0.15-0.2,0.2-0.31c0.44-0.93,0.88-1.87,1.32-2.8c0.03-0.07,0.08-0.15,0.15-0.18c0.92-0.54,1.85-1.08,2.78-1.62
									C78.31,73.05,78.33,73.04,78.38,73.02z"/>
							</g>
						</g>
					</g>
				</g>
			</g>
			<g>
				<g id="KNwPzr.tif_16_">
					<g>
						<g>
							<g>
								<path class="st0" d="M56.73,76.44c0,0.07-0.04,0.14-0.08,0.2c-0.59,0.88-1.19,1.75-1.79,2.63
									c-0.27,0.39-0.11,0.82,0.34,0.95c0.21,0.06,0.46-0.04,0.6-0.25c0.26-0.37,0.51-0.74,0.76-1.12
									c0.05-0.07,0.09-0.13,0.17-0.24c0.01,0.11,0.01,0.17,0.01,0.24c0,0.83,0.01,1.66,0.01,2.48c0,0.29,0.16,0.51,0.4,0.58
									c0.26,0.08,0.54,0,0.66-0.23c0.07-0.13,0.1-0.3,0.11-0.45c0.01-0.79,0-1.57,0-2.36c0-0.07,0-0.14,0-0.22
									c0.01,0,0.03-0.01,0.04-0.01c0.25,0.36,0.5,0.71,0.74,1.07c0.06,0.08,0.11,0.17,0.18,0.25c0.22,0.28,0.54,0.33,0.82,0.13
									c0.26-0.19,0.32-0.53,0.13-0.82c-0.42-0.61-0.84-1.21-1.26-1.82c-0.22-0.31-0.51-0.6-0.63-0.95
									c-0.11-0.35-0.04-0.76-0.04-1.14c0-0.75-0.01-1.49-0.01-2.26c0.07,0.03,0.12,0.04,0.16,0.07c0.9,0.51,1.79,1.02,2.68,1.54
									c0.09,0.05,0.17,0.14,0.21,0.23c0.46,0.94,0.91,1.89,1.37,2.84c0.17,0.34,0.49,0.47,0.8,0.33c0.32-0.15,0.43-0.49,0.26-0.83
									c-0.19-0.41-0.39-0.81-0.59-1.22c-0.03-0.06-0.05-0.12-0.1-0.23c0.36,0.21,0.68,0.39,1,0.57c0.44,0.25,0.89,0.51,1.33,0.76
									c0.35,0.2,0.68,0.12,0.87-0.19c0.17-0.29,0.06-0.63-0.28-0.83c-0.7-0.4-1.4-0.8-2.1-1.2c-0.06-0.04-0.12-0.08-0.23-0.14
									c0.56-0.05,1.06-0.09,1.56-0.13c0.39-0.03,0.67-0.29,0.63-0.63c-0.03-0.36-0.32-0.57-0.71-0.54
									c-1.05,0.09-2.1,0.18-3.15,0.27c-0.08,0.01-0.17,0-0.24-0.04c-0.96-0.54-1.91-1.09-2.89-1.65c0.21-0.13,0.41-0.25,0.61-0.36
									c0.73-0.43,1.46-0.85,2.2-1.27c0.09-0.05,0.22-0.08,0.32-0.07c0.8,0.05,1.6,0.11,2.39,0.16c0.25,0.02,0.5,0.04,0.76,0.06
									c0.38,0.03,0.64-0.17,0.69-0.52c0.04-0.31-0.19-0.6-0.55-0.64c-0.45-0.05-0.91-0.07-1.37-0.1
									c-0.07-0.01-0.15-0.01-0.23-0.06c0.29-0.17,0.58-0.34,0.87-0.51c0.47-0.27,0.93-0.54,1.4-0.82c0.34-0.2,0.45-0.53,0.28-0.83
									c-0.17-0.31-0.52-0.39-0.87-0.19c-0.73,0.42-1.45,0.84-2.18,1.27c-0.03,0.02-0.07,0.04-0.15,0.08
									c0.21-0.44,0.39-0.84,0.58-1.24c0.04-0.09,0.09-0.18,0.13-0.28c0.12-0.31,0-0.63-0.29-0.76c-0.3-0.14-0.63-0.03-0.78,0.28
									c-0.46,0.96-0.91,1.93-1.37,2.89c-0.05,0.1-0.14,0.2-0.24,0.26c-0.86,0.51-1.73,1.02-2.6,1.52
									c-0.06,0.03-0.12,0.06-0.19,0.1c0-0.08-0.01-0.14-0.01-0.2c0-1.01-0.01-2.03-0.01-3.04c0-0.11,0.04-0.24,0.11-0.34
									c0.58-0.87,1.18-1.73,1.77-2.59c0.15-0.22,0.18-0.46,0.03-0.69c-0.14-0.21-0.34-0.29-0.59-0.26
									c-0.19,0.02-0.32,0.14-0.43,0.29c-0.29,0.42-0.58,0.85-0.9,1.32c-0.01-0.12-0.01-0.19-0.01-0.26c0-0.81,0-1.63-0.01-2.44
									c0-0.4-0.23-0.64-0.6-0.63c-0.35,0-0.58,0.25-0.58,0.63c0,0.81,0.01,1.63,0.01,2.44c0,0.07,0,0.13,0,0.2
									c-0.01,0.01-0.03,0.01-0.04,0.02c-0.04-0.06-0.09-0.12-0.13-0.18c-0.25-0.35-0.49-0.71-0.74-1.06
									c-0.23-0.33-0.58-0.41-0.87-0.21c-0.28,0.2-0.33,0.56-0.1,0.89c0.58,0.84,1.18,1.68,1.75,2.52
									c0.07,0.11,0.12,0.26,0.13,0.39c0.01,1.02,0.01,2.04,0.02,3.06c0,0.04,0,0.08-0.01,0.15c-0.27-0.15-0.51-0.29-0.76-0.43
									c-0.68-0.39-1.37-0.78-2.04-1.18c-0.1-0.06-0.19-0.16-0.24-0.26c-0.46-0.94-0.92-1.89-1.38-2.84
									c-0.16-0.34-0.48-0.47-0.79-0.32c-0.3,0.14-0.43,0.47-0.28,0.8c0.22,0.48,0.45,0.96,0.71,1.49
									c-0.22-0.12-0.39-0.21-0.55-0.31c-0.6-0.34-1.2-0.68-1.8-1.03c-0.33-0.19-0.69-0.11-0.86,0.19
									c-0.17,0.3-0.06,0.64,0.28,0.83c0.69,0.4,1.39,0.79,2.08,1.19c0.07,0.04,0.14,0.08,0.26,0.16
									c-0.32,0.03-0.57,0.06-0.83,0.08c-0.25,0.02-0.49,0.03-0.74,0.05c-0.32,0.02-0.53,0.18-0.61,0.44
									c-0.07,0.23,0,0.5,0.21,0.62c0.13,0.08,0.31,0.13,0.46,0.12c0.95-0.07,1.91-0.14,2.86-0.24c0.33-0.03,0.6,0.04,0.88,0.21
									c0.81,0.48,1.63,0.94,2.45,1.41c0.02,0.01,0.04,0.03,0.09,0.07c-0.36,0.21-0.7,0.41-1.05,0.61
									c-0.58,0.34-1.17,0.68-1.76,1.02c-0.09,0.05-0.22,0.09-0.33,0.08c-1.06-0.07-2.11-0.16-3.17-0.24
									c-0.37-0.03-0.64,0.21-0.66,0.55c-0.02,0.35,0.23,0.6,0.59,0.62c0.52,0.03,1.03,0.08,1.62,0.12
									c-0.22,0.13-0.39,0.23-0.55,0.33c-0.61,0.36-1.22,0.71-1.82,1.07c-0.24,0.14-0.35,0.37-0.3,0.62
									c0.04,0.25,0.22,0.45,0.5,0.47c0.15,0.01,0.32-0.05,0.46-0.12c0.71-0.4,1.41-0.81,2.11-1.22c0.05-0.03,0.09-0.05,0.18-0.1
									c-0.04,0.1-0.07,0.17-0.1,0.23c-0.2,0.43-0.41,0.85-0.6,1.28c-0.12,0.27-0.03,0.56,0.21,0.72c0.22,0.15,0.53,0.13,0.72-0.06
									c0.08-0.08,0.15-0.2,0.2-0.31c0.44-0.93,0.88-1.87,1.32-2.8c0.03-0.07,0.08-0.15,0.15-0.18c0.92-0.54,1.85-1.08,2.78-1.62
									c0.02-0.01,0.05-0.02,0.1-0.04C56.72,74.24,56.73,75.34,56.73,76.44z"/>
							</g>
						</g>
						<g>
							<g>
								<path class="st0" d="M56.72,73.11c0,1.13,0.01,2.23,0.01,3.33c0,0.07-0.04,0.14-0.08,0.2c-0.59,0.88-1.19,1.75-1.79,2.63
									c-0.27,0.39-0.11,0.82,0.34,0.95c0.21,0.06,0.46-0.04,0.6-0.25c0.26-0.37,0.51-0.74,0.76-1.12
									c0.05-0.07,0.09-0.13,0.17-0.24c0.01,0.11,0.01,0.17,0.01,0.24c0,0.83,0.01,1.66,0.01,2.48c0,0.29,0.16,0.51,0.4,0.58
									c0.26,0.08,0.54,0,0.66-0.23c0.07-0.13,0.1-0.3,0.11-0.45c0.01-0.79,0-1.57,0-2.36c0-0.07,0-0.14,0-0.22
									c0.01,0,0.03-0.01,0.04-0.01c0.25,0.36,0.5,0.71,0.74,1.07c0.06,0.08,0.11,0.17,0.18,0.25c0.22,0.28,0.54,0.33,0.82,0.13
									c0.26-0.19,0.32-0.53,0.13-0.82c-0.42-0.61-0.84-1.21-1.26-1.82c-0.22-0.31-0.51-0.6-0.63-0.95
									c-0.11-0.35-0.04-0.76-0.04-1.14c0-0.75-0.01-1.49-0.01-2.26c0.07,0.03,0.12,0.04,0.16,0.07c0.9,0.51,1.79,1.02,2.68,1.54
									c0.09,0.05,0.17,0.14,0.21,0.23c0.46,0.94,0.91,1.89,1.37,2.84c0.17,0.34,0.49,0.47,0.8,0.33c0.32-0.15,0.43-0.49,0.26-0.83
									c-0.19-0.41-0.39-0.81-0.59-1.22c-0.03-0.06-0.05-0.12-0.1-0.23c0.36,0.21,0.68,0.39,1,0.57c0.44,0.25,0.89,0.51,1.33,0.76
									c0.35,0.2,0.68,0.12,0.87-0.19c0.17-0.29,0.06-0.63-0.28-0.83c-0.7-0.4-1.4-0.8-2.1-1.2c-0.06-0.04-0.12-0.08-0.23-0.14
									c0.56-0.05,1.06-0.09,1.56-0.13c0.39-0.03,0.67-0.29,0.63-0.63c-0.03-0.36-0.32-0.57-0.71-0.54
									c-1.05,0.09-2.1,0.18-3.15,0.27c-0.08,0.01-0.17,0-0.24-0.04c-0.96-0.54-1.91-1.09-2.89-1.65c0.21-0.13,0.41-0.25,0.61-0.36
									c0.73-0.43,1.46-0.85,2.2-1.27c0.09-0.05,0.22-0.08,0.32-0.07c0.8,0.05,1.6,0.11,2.39,0.16c0.25,0.02,0.5,0.04,0.76,0.06
									c0.38,0.03,0.64-0.17,0.69-0.52c0.04-0.31-0.19-0.6-0.55-0.64c-0.45-0.05-0.91-0.07-1.37-0.1
									c-0.07-0.01-0.15-0.01-0.23-0.06c0.29-0.17,0.58-0.34,0.87-0.51c0.47-0.27,0.93-0.54,1.4-0.82c0.34-0.2,0.45-0.53,0.28-0.83
									c-0.17-0.31-0.52-0.39-0.87-0.19c-0.73,0.42-1.45,0.84-2.18,1.27c-0.03,0.02-0.07,0.04-0.15,0.08
									c0.21-0.44,0.39-0.84,0.58-1.24c0.04-0.09,0.09-0.18,0.13-0.28c0.12-0.31,0-0.63-0.29-0.76c-0.3-0.14-0.63-0.03-0.78,0.28
									c-0.46,0.96-0.91,1.93-1.37,2.89c-0.05,0.1-0.14,0.2-0.24,0.26c-0.86,0.51-1.73,1.02-2.6,1.52
									c-0.06,0.03-0.12,0.06-0.19,0.1c0-0.08-0.01-0.14-0.01-0.2c0-1.01-0.01-2.03-0.01-3.04c0-0.11,0.04-0.24,0.11-0.34
									c0.58-0.87,1.18-1.73,1.77-2.59c0.15-0.22,0.18-0.46,0.03-0.69c-0.14-0.21-0.34-0.29-0.59-0.26
									c-0.19,0.02-0.32,0.14-0.43,0.29c-0.29,0.42-0.58,0.85-0.9,1.32c-0.01-0.12-0.01-0.19-0.01-0.26c0-0.81,0-1.63-0.01-2.44
									c0-0.4-0.23-0.64-0.6-0.63c-0.35,0-0.58,0.25-0.58,0.63c0,0.81,0.01,1.63,0.01,2.44c0,0.07,0,0.13,0,0.2
									c-0.01,0.01-0.03,0.01-0.04,0.02c-0.04-0.06-0.09-0.12-0.13-0.18c-0.25-0.35-0.49-0.71-0.74-1.06
									c-0.23-0.33-0.58-0.41-0.87-0.21c-0.28,0.2-0.33,0.56-0.1,0.89c0.58,0.84,1.18,1.68,1.75,2.52
									c0.07,0.11,0.12,0.26,0.13,0.39c0.01,1.02,0.01,2.04,0.02,3.06c0,0.04,0,0.08-0.01,0.15c-0.27-0.15-0.51-0.29-0.76-0.43
									c-0.68-0.39-1.37-0.78-2.04-1.18c-0.1-0.06-0.19-0.16-0.24-0.26c-0.46-0.94-0.92-1.89-1.38-2.84
									c-0.16-0.34-0.48-0.47-0.79-0.32c-0.3,0.14-0.43,0.47-0.28,0.8c0.22,0.48,0.45,0.96,0.71,1.49
									c-0.22-0.12-0.39-0.21-0.55-0.31c-0.6-0.34-1.2-0.68-1.8-1.03c-0.33-0.19-0.69-0.11-0.86,0.19
									c-0.17,0.3-0.06,0.64,0.28,0.83c0.69,0.4,1.39,0.79,2.08,1.19c0.07,0.04,0.14,0.08,0.26,0.16
									c-0.32,0.03-0.57,0.06-0.83,0.08c-0.25,0.02-0.49,0.03-0.74,0.05c-0.32,0.02-0.53,0.18-0.61,0.44
									c-0.07,0.23,0,0.5,0.21,0.62c0.13,0.08,0.31,0.13,0.46,0.12c0.95-0.07,1.91-0.14,2.86-0.24c0.33-0.03,0.6,0.04,0.88,0.21
									c0.81,0.48,1.63,0.94,2.45,1.41c0.02,0.01,0.04,0.03,0.09,0.07c-0.36,0.21-0.7,0.41-1.05,0.61
									c-0.58,0.34-1.17,0.68-1.76,1.02c-0.09,0.05-0.22,0.09-0.33,0.08c-1.06-0.07-2.11-0.16-3.17-0.24
									c-0.37-0.03-0.64,0.21-0.66,0.55c-0.02,0.35,0.23,0.6,0.59,0.62c0.52,0.03,1.03,0.08,1.62,0.12
									c-0.22,0.13-0.39,0.23-0.55,0.33c-0.61,0.36-1.22,0.71-1.82,1.07c-0.24,0.14-0.35,0.37-0.3,0.62
									c0.04,0.25,0.22,0.45,0.5,0.47c0.15,0.01,0.32-0.05,0.46-0.12c0.71-0.4,1.41-0.81,2.11-1.22c0.05-0.03,0.09-0.05,0.18-0.1
									c-0.04,0.1-0.07,0.17-0.1,0.23c-0.2,0.43-0.41,0.85-0.6,1.28c-0.12,0.27-0.03,0.56,0.21,0.72c0.22,0.15,0.53,0.13,0.72-0.06
									c0.08-0.08,0.15-0.2,0.2-0.31c0.44-0.93,0.88-1.87,1.32-2.8c0.03-0.07,0.08-0.15,0.15-0.18c0.92-0.54,1.85-1.08,2.78-1.62
									C56.64,73.13,56.66,73.13,56.72,73.11z"/>
							</g>
						</g>
					</g>
				</g>
			</g>
			<g>
				<g>
					<path class="st0" d="M35.75,62.72c0,0-14.24,18.95,0.08,18.89S35.75,62.72,35.75,62.72z M30.86,74.87
						c1.01,2.91,4.02,5.81,4.02,5.81C30.14,79.9,30.86,74.87,30.86,74.87z"/>
				</g>
			</g>
			<g>
				<g>
					<path class="st0" d="M17.58,62.79c0,0-14.24,18.95,0.08,18.89C31.97,81.62,17.58,62.79,17.58,62.79z M12.69,74.94
						c1.01,2.91,4.02,5.81,4.02,5.81C11.97,79.97,12.69,74.94,12.69,74.94z"/>
				</g>
			</g>
		</g>
	</g>
</g>
</svg>
