<?xml version="1.0" encoding="utf-8"?>
<!-- Generator: Adobe Illustrator 24.2.1, SVG Export Plug-In . SVG Version: 6.00 Build 0)  -->
<svg version="1.1" id="Layer_1" xmlns="http://www.w3.org/2000/svg" xmlns:xlink="http://www.w3.org/1999/xlink" x="0px" y="0px"
	 viewBox="0 0 100 120" style="enable-background:new 0 0 100 120;" xml:space="preserve">
<style type="text/css">
	.st0{fill:#383838;}
</style>
<g>
	<g>
		<g id="KNwPzr.tif_17_">
			<g>
				<g>
					<g>
						<path class="st0" d="M83.12,70.22c0,0.07-0.04,0.15-0.09,0.21c-0.61,0.9-1.23,1.79-1.85,2.69c-0.28,0.4-0.12,0.85,0.34,0.98
							c0.22,0.06,0.47-0.03,0.62-0.25c0.27-0.38,0.53-0.76,0.79-1.14c0.05-0.07,0.1-0.13,0.17-0.24c0.01,0.11,0.01,0.18,0.01,0.24
							c0,0.85,0,1.7,0,2.55c0,0.29,0.17,0.53,0.41,0.6c0.27,0.08,0.55,0,0.68-0.23c0.07-0.13,0.11-0.3,0.11-0.46
							c0.01-0.81,0-1.62,0-2.43c0-0.07,0-0.15,0-0.22c0.02,0,0.03-0.01,0.05-0.01c0.25,0.37,0.51,0.73,0.76,1.1
							c0.06,0.09,0.12,0.18,0.18,0.26c0.23,0.29,0.56,0.34,0.84,0.14c0.27-0.19,0.33-0.54,0.14-0.84c-0.42-0.63-0.86-1.25-1.29-1.88
							c-0.22-0.32-0.53-0.62-0.64-0.98c-0.11-0.36-0.03-0.78-0.04-1.17c0-0.77,0-1.53,0-2.33c0.07,0.03,0.12,0.05,0.16,0.07
							c0.92,0.53,1.84,1.06,2.75,1.59c0.09,0.05,0.17,0.15,0.21,0.24c0.47,0.97,0.93,1.95,1.39,2.92c0.17,0.35,0.5,0.48,0.82,0.34
							c0.33-0.15,0.44-0.5,0.27-0.86c-0.2-0.42-0.4-0.84-0.6-1.26c-0.03-0.06-0.05-0.12-0.1-0.24c0.37,0.21,0.7,0.4,1.02,0.59
							c0.46,0.26,0.91,0.53,1.37,0.79c0.36,0.21,0.7,0.13,0.89-0.19c0.18-0.3,0.06-0.65-0.29-0.85c-0.72-0.41-1.43-0.83-2.15-1.24
							c-0.06-0.04-0.12-0.08-0.23-0.15c0.57-0.05,1.09-0.09,1.6-0.13c0.4-0.03,0.69-0.3,0.65-0.65c-0.03-0.37-0.33-0.59-0.73-0.56
							c-1.08,0.09-2.16,0.18-3.23,0.26c-0.08,0.01-0.17,0-0.24-0.04c-0.98-0.56-1.96-1.13-2.97-1.71c0.22-0.13,0.42-0.25,0.63-0.37
							c0.75-0.43,1.51-0.87,2.27-1.3c0.09-0.05,0.22-0.08,0.33-0.07c0.82,0.05,1.64,0.12,2.46,0.18c0.26,0.02,0.52,0.05,0.78,0.07
							c0.39,0.03,0.66-0.17,0.71-0.53c0.05-0.32-0.19-0.62-0.56-0.66c-0.47-0.06-0.94-0.07-1.41-0.11
							c-0.08-0.01-0.15-0.01-0.24-0.06c0.3-0.17,0.6-0.35,0.9-0.52c0.48-0.28,0.96-0.55,1.44-0.83c0.35-0.2,0.47-0.54,0.3-0.85
							c-0.18-0.32-0.54-0.4-0.9-0.19c-0.75,0.43-1.5,0.86-2.24,1.29c-0.03,0.02-0.07,0.04-0.15,0.08c0.21-0.45,0.41-0.86,0.6-1.27
							c0.04-0.09,0.09-0.19,0.13-0.29c0.13-0.32,0-0.64-0.29-0.78c-0.31-0.15-0.65-0.03-0.8,0.29c-0.48,0.99-0.94,1.98-1.42,2.96
							c-0.05,0.11-0.14,0.21-0.24,0.27c-0.89,0.52-1.78,1.04-2.68,1.55c-0.06,0.03-0.12,0.06-0.2,0.1c0-0.08-0.01-0.14-0.01-0.21
							c0-1.04,0-2.08,0-3.12c0-0.12,0.05-0.25,0.11-0.35c0.6-0.89,1.22-1.77,1.83-2.65c0.16-0.23,0.19-0.47,0.04-0.71
							c-0.14-0.22-0.35-0.3-0.6-0.27c-0.2,0.02-0.33,0.14-0.44,0.3c-0.3,0.43-0.6,0.87-0.93,1.35c-0.01-0.12-0.01-0.19-0.01-0.26
							c0-0.84,0-1.67,0-2.51c0-0.41-0.24-0.65-0.61-0.65c-0.36,0-0.6,0.25-0.6,0.64c0,0.84,0,1.67,0,2.51c0,0.07,0,0.14,0,0.21
							c-0.01,0.01-0.03,0.01-0.04,0.02c-0.05-0.06-0.09-0.12-0.14-0.19c-0.25-0.36-0.5-0.73-0.75-1.09
							c-0.24-0.34-0.59-0.42-0.89-0.22c-0.29,0.2-0.34,0.57-0.1,0.91c0.6,0.87,1.2,1.73,1.79,2.6c0.08,0.11,0.13,0.27,0.13,0.4
							c0.01,1.05,0.01,2.1,0.01,3.14c0,0.04,0,0.08-0.01,0.16c-0.27-0.15-0.53-0.3-0.78-0.44c-0.7-0.4-1.4-0.8-2.09-1.22
							c-0.1-0.06-0.2-0.16-0.25-0.26c-0.47-0.97-0.94-1.95-1.4-2.92c-0.17-0.35-0.49-0.48-0.81-0.34c-0.31,0.14-0.44,0.48-0.29,0.82
							c0.22,0.5,0.46,0.99,0.72,1.54c-0.22-0.13-0.4-0.22-0.57-0.32c-0.61-0.35-1.23-0.71-1.84-1.06c-0.34-0.2-0.7-0.12-0.88,0.19
							c-0.18,0.3-0.06,0.66,0.28,0.85c0.71,0.41,1.42,0.82,2.13,1.23c0.07,0.04,0.14,0.09,0.26,0.16c-0.33,0.03-0.59,0.05-0.85,0.07
							c-0.25,0.02-0.5,0.03-0.76,0.05c-0.32,0.02-0.55,0.19-0.62,0.45c-0.07,0.24,0,0.51,0.21,0.63c0.13,0.08,0.32,0.13,0.47,0.12
							c0.98-0.06,1.96-0.14,2.94-0.23c0.34-0.03,0.62,0.04,0.91,0.22c0.83,0.5,1.67,0.97,2.51,1.46c0.02,0.01,0.04,0.03,0.09,0.07
							c-0.37,0.21-0.72,0.42-1.08,0.63c-0.6,0.35-1.2,0.7-1.81,1.04c-0.1,0.05-0.23,0.09-0.34,0.08c-1.09-0.08-2.17-0.17-3.26-0.26
							c-0.38-0.03-0.66,0.21-0.68,0.56c-0.02,0.36,0.23,0.62,0.6,0.64c0.53,0.04,1.06,0.08,1.66,0.13c-0.23,0.13-0.4,0.23-0.57,0.33
							c-0.63,0.36-1.25,0.72-1.88,1.09c-0.25,0.15-0.36,0.38-0.31,0.64c0.04,0.26,0.23,0.46,0.51,0.48
							c0.15,0.01,0.33-0.05,0.47-0.12c0.73-0.41,1.45-0.83,2.17-1.25c0.05-0.03,0.1-0.05,0.19-0.1c-0.04,0.11-0.07,0.17-0.1,0.24
							c-0.21,0.44-0.42,0.87-0.62,1.31c-0.13,0.28-0.03,0.58,0.21,0.74c0.22,0.15,0.54,0.14,0.74-0.06c0.09-0.09,0.15-0.2,0.2-0.31
							c0.46-0.96,0.91-1.91,1.37-2.87c0.03-0.07,0.09-0.15,0.15-0.19c0.95-0.56,1.91-1.11,2.86-1.66c0.02-0.01,0.05-0.02,0.1-0.04
							C83.12,67.96,83.12,69.09,83.12,70.22z"/>
					</g>
				</g>
				<g>
					<g>
						<path class="st0" d="M83.12,66.8c0,1.16,0,2.29,0,3.43c0,0.07-0.04,0.15-0.09,0.21c-0.61,0.9-1.23,1.79-1.85,2.69
							c-0.28,0.4-0.12,0.85,0.34,0.98c0.22,0.06,0.47-0.03,0.62-0.25c0.27-0.38,0.53-0.76,0.79-1.14c0.05-0.07,0.1-0.13,0.17-0.24
							c0.01,0.11,0.01,0.18,0.01,0.24c0,0.85,0,1.7,0,2.55c0,0.29,0.17,0.53,0.41,0.6c0.27,0.08,0.55,0,0.68-0.23
							c0.07-0.13,0.11-0.3,0.11-0.46c0.01-0.81,0-1.62,0-2.43c0-0.07,0-0.15,0-0.22c0.02,0,0.03-0.01,0.05-0.01
							c0.25,0.37,0.51,0.73,0.76,1.1c0.06,0.09,0.12,0.18,0.18,0.26c0.23,0.29,0.56,0.34,0.84,0.14c0.27-0.19,0.33-0.54,0.14-0.84
							c-0.42-0.63-0.86-1.25-1.29-1.88c-0.22-0.32-0.53-0.62-0.64-0.98c-0.11-0.36-0.03-0.78-0.04-1.17c0-0.77,0-1.53,0-2.33
							c0.07,0.03,0.12,0.05,0.16,0.07c0.92,0.53,1.84,1.06,2.75,1.59c0.09,0.05,0.17,0.15,0.21,0.24c0.47,0.97,0.93,1.95,1.39,2.92
							c0.17,0.35,0.5,0.48,0.82,0.34c0.33-0.15,0.44-0.5,0.27-0.86c-0.2-0.42-0.4-0.84-0.6-1.26c-0.03-0.06-0.05-0.12-0.1-0.24
							c0.37,0.21,0.7,0.4,1.02,0.59c0.46,0.26,0.91,0.53,1.37,0.79c0.36,0.21,0.7,0.13,0.89-0.19c0.18-0.3,0.06-0.65-0.29-0.85
							c-0.72-0.41-1.43-0.83-2.15-1.24c-0.06-0.04-0.12-0.08-0.23-0.15c0.57-0.05,1.09-0.09,1.6-0.13c0.4-0.03,0.69-0.3,0.65-0.65
							c-0.03-0.37-0.33-0.59-0.73-0.56c-1.08,0.09-2.16,0.18-3.23,0.26c-0.08,0.01-0.17,0-0.24-0.04c-0.98-0.56-1.96-1.13-2.97-1.71
							c0.22-0.13,0.42-0.25,0.63-0.37c0.75-0.43,1.51-0.87,2.27-1.3c0.09-0.05,0.22-0.08,0.33-0.07c0.82,0.05,1.64,0.12,2.46,0.18
							c0.26,0.02,0.52,0.05,0.78,0.07c0.39,0.03,0.66-0.17,0.71-0.53c0.05-0.32-0.19-0.62-0.56-0.66c-0.47-0.06-0.94-0.07-1.41-0.11
							c-0.08-0.01-0.15-0.01-0.24-0.06c0.3-0.17,0.6-0.35,0.9-0.52c0.48-0.28,0.96-0.55,1.44-0.83c0.35-0.2,0.47-0.54,0.3-0.85
							c-0.18-0.32-0.54-0.4-0.9-0.19c-0.75,0.43-1.5,0.86-2.24,1.29c-0.03,0.02-0.07,0.04-0.15,0.08c0.21-0.45,0.41-0.86,0.6-1.27
							c0.04-0.09,0.09-0.19,0.13-0.29c0.13-0.32,0-0.64-0.29-0.78c-0.31-0.15-0.65-0.03-0.8,0.29c-0.48,0.99-0.94,1.98-1.42,2.96
							c-0.05,0.11-0.14,0.21-0.24,0.27c-0.89,0.52-1.78,1.04-2.68,1.55c-0.06,0.03-0.12,0.06-0.2,0.1c0-0.08-0.01-0.14-0.01-0.21
							c0-1.04,0-2.08,0-3.12c0-0.12,0.05-0.25,0.11-0.35c0.6-0.89,1.22-1.77,1.83-2.65c0.16-0.23,0.19-0.47,0.04-0.71
							c-0.14-0.22-0.35-0.3-0.6-0.27c-0.2,0.02-0.33,0.14-0.44,0.3c-0.3,0.43-0.6,0.87-0.93,1.35c-0.01-0.12-0.01-0.19-0.01-0.26
							c0-0.84,0-1.67,0-2.51c0-0.41-0.24-0.65-0.61-0.65c-0.36,0-0.6,0.25-0.6,0.64c0,0.84,0,1.67,0,2.51c0,0.07,0,0.14,0,0.21
							c-0.01,0.01-0.03,0.01-0.04,0.02c-0.05-0.06-0.09-0.12-0.14-0.19c-0.25-0.36-0.5-0.73-0.75-1.09
							c-0.24-0.34-0.59-0.42-0.89-0.22c-0.29,0.2-0.34,0.57-0.1,0.91c0.6,0.87,1.2,1.73,1.79,2.6c0.08,0.11,0.13,0.27,0.13,0.4
							c0.01,1.05,0.01,2.1,0.01,3.14c0,0.04,0,0.08-0.01,0.16c-0.27-0.15-0.53-0.3-0.78-0.44c-0.7-0.4-1.4-0.8-2.09-1.22
							c-0.1-0.06-0.2-0.16-0.25-0.26c-0.47-0.97-0.94-1.95-1.4-2.92c-0.17-0.35-0.49-0.48-0.81-0.34c-0.31,0.14-0.44,0.48-0.29,0.82
							c0.22,0.5,0.46,0.99,0.72,1.54c-0.22-0.13-0.4-0.22-0.57-0.32c-0.61-0.35-1.23-0.71-1.84-1.06c-0.34-0.2-0.7-0.12-0.88,0.19
							c-0.18,0.3-0.06,0.66,0.28,0.85c0.71,0.41,1.42,0.82,2.13,1.23c0.07,0.04,0.14,0.09,0.26,0.16c-0.33,0.03-0.59,0.05-0.85,0.07
							c-0.25,0.02-0.5,0.03-0.76,0.05c-0.32,0.02-0.55,0.19-0.62,0.45c-0.07,0.24,0,0.51,0.21,0.63c0.13,0.08,0.32,0.13,0.47,0.12
							c0.98-0.06,1.96-0.14,2.94-0.23c0.34-0.03,0.62,0.04,0.91,0.22c0.83,0.5,1.67,0.97,2.51,1.46c0.02,0.01,0.04,0.03,0.09,0.07
							c-0.37,0.21-0.72,0.42-1.08,0.63c-0.6,0.35-1.2,0.7-1.81,1.04c-0.1,0.05-0.23,0.09-0.34,0.08c-1.09-0.08-2.17-0.17-3.26-0.26
							c-0.38-0.03-0.66,0.21-0.68,0.56c-0.02,0.36,0.23,0.62,0.6,0.64c0.53,0.04,1.06,0.08,1.66,0.13c-0.23,0.13-0.4,0.23-0.57,0.33
							c-0.63,0.36-1.25,0.72-1.88,1.09c-0.25,0.15-0.36,0.38-0.31,0.64c0.04,0.26,0.23,0.46,0.51,0.48
							c0.15,0.01,0.33-0.05,0.47-0.12c0.73-0.41,1.45-0.83,2.17-1.25c0.05-0.03,0.1-0.05,0.19-0.1c-0.04,0.11-0.07,0.17-0.1,0.24
							c-0.21,0.44-0.42,0.87-0.62,1.31c-0.13,0.28-0.03,0.58,0.21,0.74c0.22,0.15,0.54,0.14,0.74-0.06c0.09-0.09,0.15-0.2,0.2-0.31
							c0.46-0.96,0.91-1.91,1.37-2.87c0.03-0.07,0.09-0.15,0.15-0.19c0.95-0.56,1.91-1.11,2.86-1.66
							C83.04,66.82,83.07,66.82,83.12,66.8z"/>
					</g>
				</g>
			</g>
		</g>
	</g>
	<g>
		<g id="KNwPzr.tif_16_">
			<g>
				<g>
					<g>
						<path class="st0" d="M60.85,70.22c0,0.07-0.04,0.15-0.09,0.21c-0.61,0.9-1.23,1.79-1.85,2.69c-0.28,0.4-0.12,0.85,0.34,0.98
							c0.22,0.06,0.47-0.03,0.62-0.25c0.27-0.38,0.53-0.76,0.79-1.14c0.05-0.07,0.1-0.13,0.17-0.24c0.01,0.11,0.01,0.18,0.01,0.24
							c0,0.85,0,1.7,0,2.55c0,0.29,0.17,0.53,0.41,0.6c0.27,0.08,0.55,0,0.68-0.23c0.07-0.13,0.11-0.3,0.11-0.46
							c0.01-0.81,0-1.62,0-2.43c0-0.07,0-0.15,0-0.22c0.02,0,0.03-0.01,0.05-0.01c0.25,0.37,0.51,0.73,0.76,1.1
							c0.06,0.09,0.12,0.18,0.18,0.26c0.23,0.29,0.56,0.34,0.84,0.14c0.27-0.19,0.33-0.54,0.14-0.84c-0.42-0.63-0.86-1.25-1.29-1.88
							c-0.22-0.32-0.53-0.62-0.64-0.98c-0.11-0.36-0.03-0.78-0.04-1.17c0-0.77,0-1.53,0-2.33c0.07,0.03,0.12,0.05,0.16,0.07
							c0.92,0.53,1.84,1.06,2.75,1.59c0.09,0.05,0.17,0.15,0.21,0.24c0.47,0.97,0.93,1.95,1.39,2.92c0.17,0.35,0.5,0.48,0.82,0.34
							c0.33-0.15,0.44-0.5,0.27-0.86c-0.2-0.42-0.4-0.84-0.6-1.26c-0.03-0.06-0.05-0.12-0.1-0.24c0.37,0.21,0.7,0.4,1.02,0.59
							c0.46,0.26,0.91,0.53,1.37,0.79c0.36,0.21,0.7,0.13,0.89-0.19c0.18-0.3,0.06-0.65-0.29-0.85c-0.72-0.41-1.43-0.83-2.15-1.24
							c-0.06-0.04-0.12-0.08-0.23-0.15c0.57-0.05,1.09-0.09,1.6-0.13c0.4-0.03,0.69-0.3,0.65-0.65c-0.03-0.37-0.33-0.59-0.73-0.56
							c-1.08,0.09-2.16,0.18-3.23,0.26c-0.08,0.01-0.17,0-0.24-0.04c-0.98-0.56-1.96-1.13-2.97-1.71c0.22-0.13,0.42-0.25,0.63-0.37
							c0.75-0.43,1.51-0.87,2.27-1.3c0.09-0.05,0.22-0.08,0.33-0.07c0.82,0.05,1.64,0.12,2.46,0.18c0.26,0.02,0.52,0.05,0.78,0.07
							c0.39,0.03,0.66-0.17,0.71-0.53c0.05-0.32-0.19-0.62-0.56-0.66c-0.47-0.06-0.94-0.07-1.41-0.11
							c-0.08-0.01-0.15-0.01-0.24-0.06c0.3-0.17,0.6-0.35,0.9-0.52c0.48-0.28,0.96-0.55,1.44-0.83c0.35-0.2,0.47-0.54,0.3-0.85
							c-0.18-0.32-0.54-0.4-0.9-0.19c-0.75,0.43-1.5,0.86-2.24,1.29c-0.03,0.02-0.07,0.04-0.15,0.08c0.21-0.45,0.41-0.86,0.6-1.27
							c0.04-0.09,0.09-0.19,0.13-0.29c0.13-0.32,0-0.64-0.29-0.78c-0.31-0.15-0.65-0.03-0.8,0.29c-0.48,0.99-0.94,1.98-1.42,2.96
							c-0.05,0.11-0.14,0.21-0.24,0.27c-0.89,0.52-1.78,1.04-2.68,1.55c-0.06,0.03-0.12,0.06-0.2,0.1c0-0.08-0.01-0.14-0.01-0.21
							c0-1.04,0-2.08,0-3.12c0-0.12,0.05-0.25,0.11-0.35c0.6-0.89,1.22-1.77,1.83-2.65c0.16-0.23,0.19-0.47,0.04-0.71
							c-0.14-0.22-0.35-0.3-0.6-0.27c-0.2,0.02-0.33,0.14-0.44,0.3c-0.3,0.43-0.6,0.87-0.93,1.35c-0.01-0.12-0.01-0.19-0.01-0.26
							c0-0.84,0-1.67,0-2.51c0-0.41-0.24-0.65-0.61-0.65c-0.36,0-0.6,0.25-0.6,0.64c0,0.84,0,1.67,0,2.51c0,0.07,0,0.14,0,0.21
							c-0.01,0.01-0.03,0.01-0.04,0.02c-0.05-0.06-0.09-0.12-0.14-0.19c-0.25-0.36-0.5-0.73-0.75-1.09
							c-0.24-0.34-0.59-0.42-0.89-0.22c-0.29,0.2-0.34,0.57-0.1,0.91c0.6,0.87,1.2,1.73,1.79,2.6c0.08,0.11,0.13,0.27,0.13,0.4
							c0.01,1.05,0.01,2.1,0.01,3.14c0,0.04,0,0.08-0.01,0.16c-0.27-0.15-0.53-0.3-0.78-0.44c-0.7-0.4-1.4-0.8-2.09-1.22
							c-0.1-0.06-0.2-0.16-0.25-0.26c-0.47-0.97-0.94-1.95-1.4-2.92c-0.17-0.35-0.49-0.48-0.81-0.34c-0.31,0.14-0.44,0.48-0.29,0.82
							c0.22,0.5,0.46,0.99,0.72,1.54c-0.22-0.13-0.4-0.22-0.57-0.32c-0.61-0.35-1.23-0.71-1.84-1.06c-0.34-0.2-0.7-0.12-0.88,0.19
							c-0.18,0.3-0.06,0.66,0.28,0.85c0.71,0.41,1.42,0.82,2.13,1.23c0.07,0.04,0.14,0.09,0.26,0.16c-0.33,0.03-0.59,0.05-0.85,0.07
							c-0.25,0.02-0.5,0.03-0.76,0.05c-0.32,0.02-0.55,0.19-0.62,0.45c-0.07,0.24,0,0.51,0.21,0.63c0.13,0.08,0.32,0.13,0.47,0.12
							c0.98-0.06,1.96-0.14,2.94-0.23c0.34-0.03,0.62,0.04,0.91,0.22c0.83,0.5,1.67,0.97,2.51,1.46c0.02,0.01,0.04,0.03,0.09,0.07
							c-0.37,0.21-0.72,0.42-1.08,0.63c-0.6,0.35-1.2,0.7-1.81,1.04c-0.1,0.05-0.23,0.09-0.34,0.08c-1.09-0.08-2.17-0.17-3.26-0.26
							c-0.38-0.03-0.66,0.21-0.68,0.56c-0.02,0.36,0.23,0.62,0.6,0.64c0.53,0.04,1.06,0.08,1.66,0.13c-0.23,0.13-0.4,0.23-0.57,0.33
							c-0.63,0.36-1.25,0.72-1.88,1.09c-0.25,0.15-0.36,0.38-0.31,0.64c0.04,0.26,0.23,0.46,0.51,0.48
							c0.15,0.01,0.33-0.05,0.47-0.12c0.73-0.41,1.45-0.83,2.17-1.25c0.05-0.03,0.1-0.05,0.19-0.1c-0.04,0.11-0.07,0.17-0.1,0.24
							c-0.21,0.44-0.42,0.87-0.62,1.31c-0.13,0.28-0.03,0.58,0.21,0.74c0.22,0.15,0.54,0.14,0.74-0.06c0.09-0.09,0.15-0.2,0.2-0.31
							c0.46-0.96,0.91-1.91,1.37-2.87c0.03-0.07,0.09-0.15,0.15-0.19c0.95-0.56,1.91-1.11,2.86-1.66c0.02-0.01,0.05-0.02,0.1-0.04
							C60.86,67.96,60.86,69.09,60.85,70.22z"/>
					</g>
				</g>
				<g>
					<g>
						<path class="st0" d="M60.86,66.8c0,1.16,0,2.29,0,3.43c0,0.07-0.04,0.15-0.09,0.21c-0.61,0.9-1.23,1.79-1.85,2.69
							c-0.28,0.4-0.12,0.85,0.34,0.98c0.22,0.06,0.47-0.03,0.62-0.25c0.27-0.38,0.53-0.76,0.79-1.14c0.05-0.07,0.1-0.13,0.17-0.24
							c0.01,0.11,0.01,0.18,0.01,0.24c0,0.85,0,1.7,0,2.55c0,0.29,0.17,0.53,0.41,0.6c0.27,0.08,0.55,0,0.68-0.23
							c0.07-0.13,0.11-0.3,0.11-0.46c0.01-0.81,0-1.62,0-2.43c0-0.07,0-0.15,0-0.22c0.02,0,0.03-0.01,0.05-0.01
							c0.25,0.37,0.51,0.73,0.76,1.1c0.06,0.09,0.12,0.18,0.18,0.26c0.23,0.29,0.56,0.34,0.84,0.14c0.27-0.19,0.33-0.54,0.14-0.84
							c-0.42-0.63-0.86-1.25-1.29-1.88c-0.22-0.32-0.53-0.62-0.64-0.98c-0.11-0.36-0.03-0.78-0.04-1.17c0-0.77,0-1.53,0-2.33
							c0.07,0.03,0.12,0.05,0.16,0.07c0.92,0.53,1.84,1.06,2.75,1.59c0.09,0.05,0.17,0.15,0.21,0.24c0.47,0.97,0.93,1.95,1.39,2.92
							c0.17,0.35,0.5,0.48,0.82,0.34c0.33-0.15,0.44-0.5,0.27-0.86c-0.2-0.42-0.4-0.84-0.6-1.26c-0.03-0.06-0.05-0.12-0.1-0.24
							c0.37,0.21,0.7,0.4,1.02,0.59c0.46,0.26,0.91,0.53,1.37,0.79c0.36,0.21,0.7,0.13,0.89-0.19c0.18-0.3,0.06-0.65-0.29-0.85
							c-0.72-0.41-1.43-0.83-2.15-1.24c-0.06-0.04-0.12-0.08-0.23-0.15c0.57-0.05,1.09-0.09,1.6-0.13c0.4-0.03,0.69-0.3,0.65-0.65
							c-0.03-0.37-0.33-0.59-0.73-0.56c-1.08,0.09-2.16,0.18-3.23,0.26c-0.08,0.01-0.17,0-0.24-0.04c-0.98-0.56-1.96-1.13-2.97-1.71
							c0.22-0.13,0.42-0.25,0.63-0.37c0.75-0.43,1.51-0.87,2.27-1.3c0.09-0.05,0.22-0.08,0.33-0.07c0.82,0.05,1.64,0.12,2.46,0.18
							c0.26,0.02,0.52,0.05,0.78,0.07c0.39,0.03,0.66-0.17,0.71-0.53c0.05-0.32-0.19-0.62-0.56-0.66c-0.47-0.06-0.94-0.07-1.41-0.11
							c-0.08-0.01-0.15-0.01-0.24-0.06c0.3-0.17,0.6-0.35,0.9-0.52c0.48-0.28,0.96-0.55,1.44-0.83c0.35-0.2,0.47-0.54,0.3-0.85
							c-0.18-0.32-0.54-0.4-0.9-0.19c-0.75,0.43-1.5,0.86-2.24,1.29c-0.03,0.02-0.07,0.04-0.15,0.08c0.21-0.45,0.41-0.86,0.6-1.27
							c0.04-0.09,0.09-0.19,0.13-0.29c0.13-0.32,0-0.64-0.29-0.78c-0.31-0.15-0.65-0.03-0.8,0.29c-0.48,0.99-0.94,1.98-1.42,2.96
							c-0.05,0.11-0.14,0.21-0.24,0.27c-0.89,0.52-1.78,1.04-2.68,1.55c-0.06,0.03-0.12,0.06-0.2,0.1c0-0.08-0.01-0.14-0.01-0.21
							c0-1.04,0-2.08,0-3.12c0-0.12,0.05-0.25,0.11-0.35c0.6-0.89,1.22-1.77,1.83-2.65c0.16-0.23,0.19-0.47,0.04-0.71
							c-0.14-0.22-0.35-0.3-0.6-0.27c-0.2,0.02-0.33,0.14-0.44,0.3c-0.3,0.43-0.6,0.87-0.93,1.35c-0.01-0.12-0.01-0.19-0.01-0.26
							c0-0.84,0-1.67,0-2.51c0-0.41-0.24-0.65-0.61-0.65c-0.36,0-0.6,0.25-0.6,0.64c0,0.84,0,1.67,0,2.51c0,0.07,0,0.14,0,0.21
							c-0.01,0.01-0.03,0.01-0.04,0.02c-0.05-0.06-0.09-0.12-0.14-0.19c-0.25-0.36-0.5-0.73-0.75-1.09
							c-0.24-0.34-0.59-0.42-0.89-0.22c-0.29,0.2-0.34,0.57-0.1,0.91c0.6,0.87,1.2,1.73,1.79,2.6c0.08,0.11,0.13,0.27,0.13,0.4
							c0.01,1.05,0.01,2.1,0.01,3.14c0,0.04,0,0.08-0.01,0.16c-0.27-0.15-0.53-0.3-0.78-0.44c-0.7-0.4-1.4-0.8-2.09-1.22
							c-0.1-0.06-0.2-0.16-0.25-0.26c-0.47-0.97-0.94-1.95-1.4-2.92c-0.17-0.35-0.49-0.48-0.81-0.34c-0.31,0.14-0.44,0.48-0.29,0.82
							c0.22,0.5,0.46,0.99,0.72,1.54c-0.22-0.13-0.4-0.22-0.57-0.32c-0.61-0.35-1.23-0.71-1.84-1.06c-0.34-0.2-0.7-0.12-0.88,0.19
							c-0.18,0.3-0.06,0.66,0.28,0.85c0.71,0.41,1.42,0.82,2.13,1.23c0.07,0.04,0.14,0.09,0.26,0.16c-0.33,0.03-0.59,0.05-0.85,0.07
							c-0.25,0.02-0.5,0.03-0.76,0.05c-0.32,0.02-0.55,0.19-0.62,0.45c-0.07,0.24,0,0.51,0.21,0.63c0.13,0.08,0.32,0.13,0.47,0.12
							c0.98-0.06,1.96-0.14,2.94-0.23c0.34-0.03,0.62,0.04,0.91,0.22c0.83,0.5,1.67,0.97,2.51,1.46c0.02,0.01,0.04,0.03,0.09,0.07
							c-0.37,0.21-0.72,0.42-1.08,0.63c-0.6,0.35-1.2,0.7-1.81,1.04c-0.1,0.05-0.23,0.09-0.34,0.08c-1.09-0.08-2.17-0.17-3.26-0.26
							c-0.38-0.03-0.66,0.21-0.68,0.56c-0.02,0.36,0.23,0.62,0.6,0.64c0.53,0.04,1.06,0.08,1.66,0.13c-0.23,0.13-0.4,0.23-0.57,0.33
							c-0.63,0.36-1.25,0.72-1.88,1.09c-0.25,0.15-0.36,0.38-0.31,0.64c0.04,0.26,0.23,0.46,0.51,0.48
							c0.15,0.01,0.33-0.05,0.47-0.12c0.73-0.41,1.45-0.83,2.17-1.25c0.05-0.03,0.1-0.05,0.19-0.1c-0.04,0.11-0.07,0.17-0.1,0.24
							c-0.21,0.44-0.42,0.87-0.62,1.31c-0.13,0.28-0.03,0.58,0.21,0.74c0.22,0.15,0.54,0.14,0.74-0.06c0.09-0.09,0.15-0.2,0.2-0.31
							c0.46-0.96,0.91-1.91,1.37-2.87c0.03-0.07,0.09-0.15,0.15-0.19c0.95-0.56,1.91-1.11,2.86-1.66
							C60.78,66.82,60.8,66.82,60.86,66.8z"/>
					</g>
				</g>
			</g>
		</g>
	</g>
	<g>
		<path class="st0" d="M25.96,53.91c-3.53,0-6.95-0.24-10.49-1.91C9.11,49.03,5,42.73,5,35.97c0-8.4,6-15.61,14.14-17.21
			c0.71-9.02,8.32-16.18,17.49-16.18c5.49,0,10.61,2.55,13.93,6.87c2.06-0.82,4.24-1.24,6.49-1.24c7.27,0,13.66,4.39,16.3,11.05
			c1.34-0.32,2.72-0.49,4.11-0.49c9.68,0,17.55,7.87,17.55,17.55c0,9.43-7.37,17.13-16.79,17.53l0-0.02
			c-0.28,0.04-0.55,0.04-0.76,0.04H30.35c-0.74,0-1.47,0.01-2.19,0.02C27.41,53.9,26.68,53.91,25.96,53.91z M36.63,5.3
			c-8.07,0-14.72,6.57-14.83,14.64l-0.01,1.18l-1.17,0.15c-7.35,0.96-12.9,7.28-12.9,14.7c0,5.62,3.58,11.08,8.9,13.58
			c3.7,1.74,7.49,1.69,11.49,1.63c0.74-0.01,1.48-0.02,2.23-0.02h47.11c0,0,0.13,0,0.27,0l0.38-0.02
			c7.95-0.34,14.18-6.85,14.18-14.81c0-8.18-6.65-14.83-14.83-14.83c-1.55,0-3.08,0.24-4.55,0.71l-1.3,0.42l-0.41-1.31
			c-1.95-6.21-7.64-10.38-14.15-10.38c-2.23,0-4.37,0.48-6.37,1.43l-1.06,0.51l-0.65-0.98C46.2,7.77,41.59,5.3,36.63,5.3z"/>
	</g>
	<g>
		<g>
			<path class="st0" d="M39.36,56.03c0,0-14.71,19.41,0,19.41S39.36,56.03,39.36,56.03z M34.28,68.49c1.03,2.99,4.1,5.99,4.1,5.99
				C33.52,73.66,34.28,68.49,34.28,68.49z"/>
		</g>
	</g>
	<g>
		<g>
			<path class="st0" d="M16.68,56.03c0,0-14.71,19.41,0,19.41S16.68,56.03,16.68,56.03z M11.61,68.49c1.03,2.99,4.1,5.99,4.1,5.99
				C10.84,73.66,11.61,68.49,11.61,68.49z"/>
		</g>
	</g>
	<g>
		<g>
			<g>
				<path class="st0" d="M26.77,103.03c0.89-0.15,2.06-0.28,3.55-0.28c1.83,0,3.17,0.42,4.02,1.19c0.79,0.68,1.25,1.72,1.25,3
					c0,1.3-0.38,2.32-1.11,3.06c-0.98,1.04-2.57,1.57-4.38,1.57c-0.55,0-1.06-0.02-1.49-0.13v5.74h-1.85V103.03z M28.62,109.93
					c0.4,0.11,0.91,0.15,1.53,0.15c2.23,0,3.59-1.08,3.59-3.06c0-1.89-1.34-2.8-3.38-2.8c-0.81,0-1.42,0.06-1.74,0.15V109.93z"/>
			</g>
			<g>
				<path class="st0" d="M37.68,110.1c0-1.21-0.02-2.25-0.09-3.21h1.64l0.06,2.02h0.09c0.47-1.38,1.59-2.25,2.85-2.25
					c0.21,0,0.36,0.02,0.53,0.06v1.76c-0.19-0.04-0.38-0.06-0.64-0.06c-1.32,0-2.25,1-2.51,2.4c-0.04,0.26-0.09,0.55-0.09,0.87v5.48
					h-1.85V110.1z"/>
			</g>
			<g>
				<path class="st0" d="M53.72,111.95c0,3.8-2.64,5.46-5.12,5.46c-2.78,0-4.93-2.04-4.93-5.29c0-3.44,2.25-5.46,5.1-5.46
					C51.72,106.66,53.72,108.81,53.72,111.95z M45.56,112.06c0,2.25,1.3,3.95,3.12,3.95c1.79,0,3.12-1.68,3.12-3.99
					c0-1.74-0.87-3.95-3.08-3.95C46.52,108.07,45.56,110.1,45.56,112.06z"/>
			</g>
			<g>
				<path class="st0" d="M65.38,111.95c0,3.8-2.64,5.46-5.12,5.46c-2.78,0-4.93-2.04-4.93-5.29c0-3.44,2.25-5.46,5.1-5.46
					C63.39,106.66,65.38,108.81,65.38,111.95z M57.23,112.06c0,2.25,1.3,3.95,3.12,3.95c1.79,0,3.12-1.68,3.12-3.99
					c0-1.74-0.87-3.95-3.08-3.95C58.18,108.07,57.23,110.1,57.23,112.06z"/>
			</g>
			<g>
				<path class="st0" d="M67.93,117.18v-8.86h-1.44v-1.42h1.44v-0.49c0-1.44,0.32-2.76,1.19-3.59c0.7-0.68,1.64-0.96,2.51-0.96
					c0.66,0,1.23,0.15,1.59,0.3l-0.25,1.44c-0.28-0.13-0.66-0.23-1.19-0.23c-1.59,0-2,1.4-2,2.97v0.55h2.49v1.42h-2.49v8.86H67.93z"
					/>
			</g>
		</g>
		<g>
			<g>
				<path class="st0" d="M16.7,97.63l-3.63-14.32h1.95l1.7,7.24c0.42,1.78,0.81,3.57,1.06,4.95h0.04c0.23-1.42,0.68-3.12,1.17-4.97
					l1.91-7.22h1.93l1.74,7.27c0.4,1.7,0.79,3.4,1,4.91h0.04c0.3-1.57,0.7-3.17,1.15-4.95l1.89-7.22h1.89L26.5,97.63h-1.93
					l-1.81-7.46c-0.45-1.83-0.74-3.23-0.94-4.67h-0.04c-0.26,1.42-0.57,2.83-1.11,4.67l-2.04,7.46H16.7z"/>
			</g>
			<g>
				<path class="st0" d="M32.62,92.83c0.04,2.53,1.66,3.57,3.53,3.57c1.34,0,2.15-0.23,2.85-0.53l0.32,1.34
					c-0.66,0.3-1.79,0.64-3.42,0.64c-3.17,0-5.06-2.08-5.06-5.18c0-3.1,1.83-5.55,4.82-5.55c3.36,0,4.25,2.95,4.25,4.84
					c0,0.38-0.04,0.68-0.06,0.87H32.62z M38.1,91.49c0.02-1.19-0.49-3.04-2.59-3.04c-1.89,0-2.72,1.74-2.87,3.04H38.1z"/>
			</g>
			<g>
				<path class="st0" d="M47.92,97.63l-0.15-1.3H47.7c-0.57,0.81-1.68,1.53-3.14,1.53c-2.08,0-3.14-1.47-3.14-2.95
					c0-2.49,2.21-3.85,6.18-3.82v-0.21c0-0.85-0.23-2.38-2.34-2.38c-0.96,0-1.95,0.3-2.68,0.76l-0.42-1.23
					c0.85-0.55,2.08-0.91,3.38-0.91c3.14,0,3.91,2.15,3.91,4.21v3.85c0,0.89,0.04,1.76,0.17,2.46H47.92z M47.64,92.38
					c-2.04-0.04-4.36,0.32-4.36,2.32c0,1.21,0.81,1.78,1.76,1.78c1.34,0,2.19-0.85,2.49-1.72c0.06-0.19,0.11-0.4,0.11-0.59V92.38z"
					/>
			</g>
			<g>
				<path class="st0" d="M54.63,84.4v2.95h2.68v1.42h-2.68v5.55c0,1.27,0.36,2,1.4,2c0.49,0,0.85-0.06,1.08-0.13l0.09,1.4
					c-0.36,0.15-0.93,0.25-1.66,0.25c-0.87,0-1.57-0.28-2.02-0.79c-0.53-0.55-0.72-1.47-0.72-2.68v-5.61h-1.59v-1.42h1.59v-2.46
					L54.63,84.4z"/>
			</g>
			<g>
				<path class="st0" d="M59.41,82.55h1.87v6.42h0.04c0.3-0.53,0.76-1,1.34-1.32c0.55-0.32,1.21-0.53,1.91-0.53
					c1.38,0,3.59,0.85,3.59,4.4v6.12H66.3v-5.91c0-1.66-0.62-3.06-2.38-3.06c-1.21,0-2.17,0.85-2.51,1.87
					c-0.11,0.26-0.13,0.53-0.13,0.89v6.2h-1.87V82.55z"/>
			</g>
			<g>
				<path class="st0" d="M72.25,92.83c0.04,2.53,1.66,3.57,3.53,3.57c1.34,0,2.15-0.23,2.85-0.53l0.32,1.34
					c-0.66,0.3-1.79,0.64-3.42,0.64c-3.17,0-5.06-2.08-5.06-5.18c0-3.1,1.83-5.55,4.82-5.55c3.36,0,4.25,2.95,4.25,4.84
					c0,0.38-0.04,0.68-0.06,0.87H72.25z M77.73,91.49c0.02-1.19-0.49-3.04-2.59-3.04c-1.89,0-2.72,1.74-2.87,3.04H77.73z"/>
			</g>
			<g>
				<path class="st0" d="M81.85,90.56c0-1.21-0.02-2.25-0.09-3.21h1.64l0.06,2.02h0.09c0.47-1.38,1.59-2.25,2.85-2.25
					c0.21,0,0.36,0.02,0.53,0.06v1.76c-0.19-0.04-0.38-0.06-0.64-0.06c-1.32,0-2.25,1-2.51,2.4c-0.04,0.26-0.09,0.55-0.09,0.87v5.48
					h-1.85V90.56z"/>
			</g>
		</g>
	</g>
</g>
</svg>
